COMMENT @(#)07	1.1  src/bos/usr/lpp/tls/fonts/Chtp417.bdf, cmdtw, bos411, 9428A410j 6/11/94 17:32:41
COMMENT
COMMENT   COMPONENT_NAME: cmdtw
COMMENT
COMMENT   FUNCTIONS: none
COMMENT
COMMENT   ORIGINS: 129
COMMENT
COMMENT   (C) COPYRIGHT Central Bureau of Standards, Ministry of
COMMENT       Economic Affairs, ROC (Taiwan), 1994
COMMENT
STARTFONT 2.1
FONT -IBM_Aix-Sung-Medium-R-Normal--27-170-100-100-M-260-CNS11643.1992-4
SIZE 27 100 100
FONTBOUNDINGBOX 26 27 0 -1
STARTPROPERTIES 24
FONTNAME_REGISTRY "_"
_FOUNDRY "IBM_AIX "
FAMILY "Sung"
_WEIGHT_NAME "Medium "
SLANT "R"
SETWIDTH_NAME "Normal"
ADD_STYLE_NAME ""
PIXEL_SIZE 27
POINT_SIZE 170
RESOLUTION_X 100
RESOLUTION_Y 100
SPACING "M"
AVERAGE_WIDTH 260
CHARSET_REGISTRY "CNS11643.1992"
CHARSET_ENCODING "4"
FONT_ASCENT 26
FONT_DESCENT 1
DEFAULT_CHAR 0
CAP_HEIGHT 27
COPYRIGHT "Copyright, 1993 by IBM."
FOUNDRY "IBM_Aix"
FAMILY_NAME "Sung"
WEIGHT_NAME "Medium"
X_HEIGHT 26
ENDPROPERTIES
CHARS 7298
STARTCHAR 2121
ENCODING 8481
SWIDTH 962 0
DWIDTH 26 0
BBX 26 27 0 -1
BITMAP
00000000
00007000
0001f800
043f0000
07e00000
06000000
06000000
06000000
06000000
06000000
06000000
06000000
06000000
06000000
06000000
06000000
0c000000
0c000000
0c000000
18000000
18000000
30000000
20000000
40000000
80000000
00000000
00000000
ENDCHAR
STARTCHAR 2122
ENCODING 8482
SWIDTH 962 0
DWIDTH 26 0
BBX 26 27 0 -1
BITMAP
00000000
00000000
00000000
00000000
00c00000
01e00000
03e00000
07300000
0e300000
1c180000
70180000
000c0000
000c0000
00060000
00070000
00030000
00018000
0001c000
0000e000
00007000
00003c00
00001f00
00000c00
00000000
00000000
00000000
00000000
ENDCHAR
STARTCHAR 2123
ENCODING 8483
SWIDTH 962 0
DWIDTH 26 0
BBX 26 27 0 -1
BITMAP
00000000
00000000
00000000
00000000
00000000
00600000
3ff00000
00300000
00300000
00180000
00180000
000c0000
000c0000
00060000
00060000
00030000
00018000
0001c000
0000e000
00007000
00003c00
00001f00
00000800
00000000
00000000
00000000
00000000
ENDCHAR
STARTCHAR 2124
ENCODING 8484
SWIDTH 962 0
DWIDTH 26 0
BBX 26 27 0 -1
BITMAP
00000000
02000000
03800000
03000000
03000000
03000000
03000000
03000000
03000000
03000000
03000000
03000000
03000000
03000000
03000000
03000000
03000000
03000800
03000800
03000800
03000800
03800c00
01fffc00
00fff800
00000000
00000000
00000000
ENDCHAR
STARTCHAR 2125
ENCODING 8485
SWIDTH 962 0
DWIDTH 26 0
BBX 26 27 0 -1
BITMAP
00000000
00080000
000f0000
000e0000
001c0000
00380000
00300000
00600000
00c00000
01800000
03000000
06000000
0c000000
0e000000
03800000
00c00000
00700000
00380000
001c0000
000e0000
00070000
00070000
00030000
00000000
00000000
00000000
00000000
ENDCHAR
STARTCHAR 2126
ENCODING 8486
SWIDTH 962 0
DWIDTH 26 0
BBX 26 27 0 -1
BITMAP
00000000
00000000
00000c00
7ffffe00
00600000
00600000
00c00000
00c00000
01800000
03003000
07fff800
02003000
00003000
00003000
00003000
00003000
00007000
00006000
00006000
0000e000
0000c000
01c1c000
003b8000
000f0000
00060000
00000000
00000000
ENDCHAR
STARTCHAR 2127
ENCODING 8487
SWIDTH 962 0
DWIDTH 26 0
BBX 26 27 0 -1
BITMAP
00000000
00008000
0000e000
0400c000
0700c000
0600c000
0600c000
0600c000
0600c000
0600c000
0600c000
0600c000
0600c000
0600c000
0600c000
0fffc000
0400c000
0000c000
0000c000
0000c000
0000c000
0000c000
0000c000
0000c000
00008000
00000000
00000000
ENDCHAR
STARTCHAR 2128
ENCODING 8488
SWIDTH 962 0
DWIDTH 26 0
BBX 26 27 0 -1
BITMAP
00000000
00000000
00060000
7fff0000
00060000
00060000
000c0000
000c0000
00180000
00180c00
003ffe00
00100c00
00000c00
00000c00
00000c00
00000c00
00000c00
00000c00
00000c00
00000c00
00001c00
00001800
00003800
000ff000
00006000
00000000
00000000
ENDCHAR
STARTCHAR 2129
ENCODING 8489
SWIDTH 962 0
DWIDTH 26 0
BBX 26 27 0 -1
BITMAP
00000000
00000000
02018000
03ffc000
03018000
03018000
03018000
03018000
03018000
03018000
03018000
03018000
03018000
03018000
03018000
03018000
06018000
06018000
06018000
0c018000
0c018000
1801fe00
3000ff00
60000000
80000000
00000000
00000000
ENDCHAR
STARTCHAR 212a
ENCODING 8490
SWIDTH 962 0
DWIDTH 26 0
BBX 26 27 0 -1
BITMAP
00000000
00010000
0001c000
00018000
01018000
01c18000
01818000
01818000
01818000
01818000
01818000
01818000
01818000
01818000
01818000
01818000
01818000
01818000
01018000
00018000
00018000
00018000
00018000
007f8000
00070000
00000000
00000000
ENDCHAR
STARTCHAR 212b
ENCODING 8491
SWIDTH 962 0
DWIDTH 26 0
BBX 26 27 0 -1
BITMAP
00000000
00000000
10006000
1ffff000
18006000
18006000
18006000
18006000
18006000
18006000
18006000
18006000
1800e000
183fc000
18018000
18000000
18000000
18000400
18000400
18000400
18000400
18000600
1ffffe00
0ffffc00
00000000
00000000
00000000
ENDCHAR
STARTCHAR 212c
ENCODING 8492
SWIDTH 962 0
DWIDTH 26 0
BBX 26 27 0 -1
BITMAP
00000000
00000000
00802000
00f03c00
00e03800
01c07000
01806000
0300c000
03018000
06030000
0c060000
180c0000
30180000
30180000
180c0000
0c060000
06030000
03018000
0180c000
00c06000
00e07000
00703800
00703800
00301800
00000000
00000000
00000000
ENDCHAR
STARTCHAR 212d
ENCODING 8493
SWIDTH 962 0
DWIDTH 26 0
BBX 26 27 0 -1
BITMAP
00000000
00000000
10001800
1ffffc00
18001800
18001800
18001800
18001800
18001800
18001800
18001800
18019800
1bffd800
18001800
18001800
18001800
18001800
18001800
18001800
18001800
18001800
18001800
18001800
1801f800
10003000
00000000
00000000
ENDCHAR
STARTCHAR 212e
ENCODING 8494
SWIDTH 962 0
DWIDTH 26 0
BBX 26 27 0 -1
BITMAP
00000000
00000000
00000000
20000800
38000e00
30000c00
30000c00
30000c00
30000c00
3000cc00
37ffec00
30000c00
30000c00
30000c00
30000c00
30000c00
30000c00
30000c00
30000c00
30000c00
7ffffc00
20000c00
00000800
00000000
00000000
00000000
00000000
ENDCHAR
STARTCHAR 212f
ENCODING 8495
SWIDTH 962 0
DWIDTH 26 0
BBX 26 27 0 -1
BITMAP
00000000
04000000
07000000
06000000
06000000
0c000000
0c000600
0fffff00
18000600
18000600
30000600
60000600
40000600
80018600
07ffc600
00000600
00000600
00000600
00000600
00000600
00000e00
00000c00
00001c00
000ff800
00007000
00000000
00000000
ENDCHAR
STARTCHAR 2130
ENCODING 8496
SWIDTH 962 0
DWIDTH 26 0
BBX 26 27 0 -1
BITMAP
00000000
00000000
00018000
3fffc000
00018000
02018000
03818000
03018000
03018000
03018000
03018000
03318000
7ff98200
03018200
03018200
03018200
03018300
0301ff00
0300fe00
03000000
03000000
03000000
03000000
03000000
02000000
00000000
00000000
ENDCHAR
STARTCHAR 2131
ENCODING 8497
SWIDTH 962 0
DWIDTH 26 0
BBX 26 27 0 -1
BITMAP
00000000
00000000
02006000
03fff000
03006000
03006000
03206000
03106000
03186000
030c6000
030c6000
03066000
03066000
03006000
03006000
0300e000
031fc000
03018000
03000000
03000000
03000000
03000000
03000000
03000000
02000000
00000000
00000000
ENDCHAR
STARTCHAR 2132
ENCODING 8498
SWIDTH 962 0
DWIDTH 26 0
BBX 26 27 0 -1
BITMAP
00000000
00001800
3ffffc00
00001800
00003000
00006000
0000c000
00030000
000c0000
000c0000
000c0000
000c0000
000c0c00
000ffe00
000c0000
000c0000
000c0000
000c0000
000c0000
000c0000
000c0000
000c0000
000c0000
03fc0000
00380000
00000000
00000000
ENDCHAR
STARTCHAR 2133
ENCODING 8499
SWIDTH 962 0
DWIDTH 26 0
BBX 26 27 0 -1
BITMAP
00000000
00001800
3ffffc00
00003800
0000e000
00018000
00060000
000c0000
000c0000
000c0000
000c0000
000c0000
000c0000
00fc0000
078c0000
fc0c0000
700c0000
000c0000
000c0000
000c0000
000c0000
000c0000
000c0000
01fc0000
00380000
00000000
00000000
ENDCHAR
STARTCHAR 2134
ENCODING 8500
SWIDTH 962 0
DWIDTH 26 0
BBX 26 27 0 -1
BITMAP
00000000
00200000
00380000
00300000
00300000
00300000
00300600
ffffff00
00360000
00360000
00360000
00360000
00660000
00660000
00660000
00c60000
00c60000
01860200
01860200
03060200
06060200
0c060300
1807ff00
3003fe00
c0000000
00000000
00000000
ENDCHAR
STARTCHAR 2135
ENCODING 8501
SWIDTH 962 0
DWIDTH 26 0
BBX 26 27 0 -1
BITMAP
00000000
00100000
001c0000
00180000
20180800
38180e00
30180c00
30180c00
30180c00
30180c00
30180c00
30180c00
30180c00
7ffffc00
20180c00
00180800
00180000
00180000
00300000
00300000
00600000
00c00000
01800000
06000000
18000000
00000000
00000000
ENDCHAR
STARTCHAR 2136
ENCODING 8502
SWIDTH 962 0
DWIDTH 26 0
BBX 26 27 0 -1
BITMAP
00000000
00200000
00380000
00300000
00300000
00300000
02320000
02318000
0230c000
06306000
04307000
0c303000
0c303000
18300000
18300000
00300000
00300000
00300000
00300000
00300000
00300000
00300000
00300000
00300000
00200000
00000000
00000000
ENDCHAR
STARTCHAR 2137
ENCODING 8503
SWIDTH 962 0
DWIDTH 26 0
BBX 26 27 0 -1
BITMAP
00000000
00080000
000e0000
000c0000
000c0000
000c0000
000c0600
7fffff00
000c0000
000c0000
000c0000
000c0000
000c7000
000f8000
003c0000
01ec0000
3f0c0000
1c0c0000
000c0000
000c0000
000c0000
000c0000
000c0000
01fc0000
00180000
00000000
00000000
ENDCHAR
STARTCHAR 2138
ENCODING 8504
SWIDTH 962 0
DWIDTH 26 0
BBX 26 27 0 -1
BITMAP
00000000
00010000
0301c000
00c38000
00770000
003e0000
001c0000
00360000
00630000
00c30000
03038000
0c078000
00078000
000d8000
00198000
00318000
00618000
00c18000
03018000
0c018000
00038000
00030000
00070000
01fe0000
001c0000
00000000
00000000
ENDCHAR
STARTCHAR 2139
ENCODING 8505
SWIDTH 962 0
DWIDTH 26 0
BBX 26 27 0 -1
BITMAP
00000000
00000000
00003000
1ffff800
00603000
00603000
00603000
00603000
0c603000
03603000
00e03000
00703000
00783000
00dc3000
00ce3000
01863000
01803000
03003000
06007000
0c006000
1800e000
201fc000
00038600
ffffff00
00000000
00000000
00000000
ENDCHAR
STARTCHAR 213a
ENCODING 8506
SWIDTH 962 0
DWIDTH 26 0
BBX 26 27 0 -1
BITMAP
00000000
00100000
001c0000
00186000
0019f000
001f0000
00f80000
1f180000
00180000
00186000
0019f000
001f0000
00f80000
1f180000
00186000
0019f000
001f0000
00f80000
1f180000
00180000
00180000
00180000
00180000
00180000
00100000
00000000
00000000
ENDCHAR
STARTCHAR 213b
ENCODING 8507
SWIDTH 962 0
DWIDTH 26 0
BBX 26 27 0 -1
BITMAP
00000000
00000000
00006000
0ffff000
00000000
00000000
00000000
00000000
00000000
00001800
3ffffc00
00000000
00000000
00000000
00000000
00006000
0ffff000
00000000
00000000
00000000
00000000
00000000
00000600
ffffff00
00000000
00000000
00000000
ENDCHAR
STARTCHAR 213c
ENCODING 8508
SWIDTH 962 0
DWIDTH 26 0
BBX 26 27 0 -1
BITMAP
00000000
00100000
00180000
00300000
006c0000
00c30000
01818000
0300e000
0c107800
301c3f00
c0180c00
00180000
00180000
00181800
3ffffc00
00180000
00180000
00180000
00180000
00180000
00180000
00180000
00180000
00180000
00100000
00000000
00000000
ENDCHAR
STARTCHAR 213d
ENCODING 8509
SWIDTH 962 0
DWIDTH 26 0
BBX 26 27 0 -1
BITMAP
00000000
00100000
001c0000
00180000
00180000
00181800
3ffffc00
18180000
18180000
18180000
18180000
18300000
18300c00
1ffffe00
00660000
00660000
00c60000
00c60200
01860200
03060200
06060200
0c060300
1807ff00
6003fe00
80000000
00000000
00000000
ENDCHAR
STARTCHAR 213e
ENCODING 8510
SWIDTH 962 0
DWIDTH 26 0
BBX 26 27 0 -1
BITMAP
00000000
00000000
20000c00
3ffffe00
30000c00
30000c00
30000c00
3000cc00
37ffec00
30000c00
30000c00
30000c00
30000c00
30000c00
3000cc00
37ffec00
30000c00
30000c00
30000c00
30000c00
30000c00
30000c00
30000c00
3001fc00
20001800
00000000
00000000
ENDCHAR
STARTCHAR 213f
ENCODING 8511
SWIDTH 962 0
DWIDTH 26 0
BBX 26 27 0 -1
BITMAP
00000000
00100000
001c0000
00380000
00360000
00618000
00c0c000
01807000
03003800
06001c00
0c000e00
30100600
c01c0000
00380000
00340000
00660000
00c30000
01818000
0300c000
06006000
0c003000
18001c00
30000f00
c0000400
00000000
00000000
00000000
ENDCHAR
STARTCHAR 2140
ENCODING 8512
SWIDTH 962 0
DWIDTH 26 0
BBX 26 27 0 -1
BITMAP
00000000
00000400
00180700
7ffc0600
06188600
0618e600
0618c600
0618c600
0618c600
0618c600
0618c600
0618c600
0618c600
0618c600
0618c600
0618c600
0618c600
0c18c600
0c18c600
08188600
18180600
10180600
20380600
47f07e00
80600c00
00000000
00000000
ENDCHAR
STARTCHAR 2141
ENCODING 8513
SWIDTH 962 0
DWIDTH 26 0
BBX 26 27 0 -1
BITMAP
00000000
00000000
00600600
ffefff00
18618600
18618600
18618600
18618600
18618600
18618600
18618600
18618600
18618600
18618600
18618600
18618600
18630600
30630600
30630600
30660600
20660600
60ec0600
4fc80e00
4090fc00
80201800
00000000
00000000
ENDCHAR
STARTCHAR 2142
ENCODING 8514
SWIDTH 962 0
DWIDTH 26 0
BBX 26 27 0 -1
BITMAP
00000000
08000000
0e000000
0c000000
0c003000
0ffff800
0c000000
0c000000
0c000000
0c000000
0ffff800
07fffc00
00100000
001c0000
00180000
00180000
00180600
ffffff00
00180000
00180000
00180000
00180000
00180000
00180000
00100000
00000000
00000000
ENDCHAR
STARTCHAR 2143
ENCODING 8515
SWIDTH 962 0
DWIDTH 26 0
BBX 26 27 0 -1
BITMAP
00000000
00000000
40c40c00
7fe7fe00
60c60c00
60c60c00
60c60c00
60c60c00
60c60c00
60c60c00
60c60c00
60c60c00
60c60c00
6fc6fc00
61861800
60060000
60060000
60060200
60060200
60060200
60c60200
67060300
7c07ff00
3003fe00
00000000
00000000
00000000
ENDCHAR
STARTCHAR 2144
ENCODING 8516
SWIDTH 962 0
DWIDTH 26 0
BBX 26 27 0 -1
BITMAP
00000000
02000000
03800000
0300c000
07ffe000
0600c000
0c018000
18030600
3fffff00
58000000
18000000
18000000
18000000
18000000
18000000
18000000
18000000
18000000
18000000
30000000
30000000
20000000
60000000
40000000
80000000
00000000
00000000
ENDCHAR
STARTCHAR 2145
ENCODING 8517
SWIDTH 962 0
DWIDTH 26 0
BBX 26 27 0 -1
BITMAP
00000000
00000000
00000000
04004000
07007000
06006000
06006000
06006000
06006000
06006000
0600c000
0c00c000
0c00c000
0c018000
19018800
18818400
30c30600
30430200
60660300
67e63f00
fc6fe300
60660300
00000000
00000000
00000000
00000000
00000000
ENDCHAR
STARTCHAR 2146
ENCODING 8518
SWIDTH 962 0
DWIDTH 26 0
BBX 26 27 0 -1
BITMAP
00000000
00040000
00070000
41860000
7fc60000
61860000
61860000
61860000
61860000
61860000
61860000
61860000
61860000
61860000
61860000
61860000
61860200
61860200
7f860200
61060200
40060200
00060300
0007ff00
0003fe00
00000000
00000000
00000000
ENDCHAR
STARTCHAR 2147
ENCODING 8519
SWIDTH 962 0
DWIDTH 26 0
BBX 26 27 0 -1
BITMAP
00000000
00000000
00000600
ffffff00
00000000
00000000
00000000
00000000
00000000
10001800
1ffffc00
18001800
18001800
18001800
18001800
18001800
18001800
18001800
18001800
18001800
1ffff800
18001800
18001000
10000000
00000000
00000000
00000000
ENDCHAR
STARTCHAR 2148
ENCODING 8520
SWIDTH 962 0
DWIDTH 26 0
BBX 26 27 0 -1
BITMAP
00000000
00000000
0001e000
000ff000
00fc0000
0f980000
00180000
00180000
00180000
00180000
00180000
00183000
1ffff800
00180000
00180000
00180000
00180000
00180000
00180000
00180000
00180000
00180c00
7ffffe00
00000000
00000000
00000000
00000000
ENDCHAR
STARTCHAR 2149
ENCODING 8521
SWIDTH 962 0
DWIDTH 26 0
BBX 26 27 0 -1
BITMAP
00000000
04000000
07000000
06000000
06000000
06000000
06180000
0ffc0000
04180000
00180000
00180000
00180000
00180600
ffffff00
00340000
00360000
00630000
00610000
00c18000
0180c000
03006000
06003000
0c001c00
30000f00
c0000400
00000000
00000000
ENDCHAR
STARTCHAR 214a
ENCODING 8522
SWIDTH 962 0
DWIDTH 26 0
BBX 26 27 0 -1
BITMAP
00000000
00060000
01010000
01c18000
0180c000
03804000
03006000
06003000
0c001800
18000c00
31018700
c1ffc200
01818000
01818000
01818000
01818000
01818000
01818200
03018200
03018200
06018200
0c018300
1801ff00
3000fe00
c0000000
00000000
00000000
ENDCHAR
STARTCHAR 214b
ENCODING 8523
SWIDTH 962 0
DWIDTH 26 0
BBX 26 27 0 -1
BITMAP
00000000
00020000
01018000
01c0c000
01807000
03803800
03001c00
06000e00
0c000700
19010300
31c1c000
c1818000
01818000
01818000
01818000
01818000
01818000
01818200
03018200
03018200
06018200
0c018300
1801ff00
3000fe00
c0000000
00000000
00000000
ENDCHAR
STARTCHAR 214c
ENCODING 8524
SWIDTH 962 0
DWIDTH 26 0
BBX 26 27 0 -1
BITMAP
00000000
00007000
0001f800
001f0000
03f80000
7e180000
00180000
00180000
20180c00
3ffffe00
30180c00
30180c00
30180c00
30180c00
30180c00
30180c00
30180c00
30180c00
3018fc00
20181800
00180000
00180000
00180000
00180000
00100000
00000000
00000000
ENDCHAR
STARTCHAR 214d
ENCODING 8525
SWIDTH 962 0
DWIDTH 26 0
BBX 26 27 0 -1
BITMAP
00000000
00000000
00001800
3ffffc00
01818000
01818000
01818000
01818000
01818000
01818000
01818000
01818600
ffffff00
01818000
01818000
01818000
03018000
03018000
06018000
06018000
0c018000
18018000
30018000
60018000
80010000
00000000
00000000
ENDCHAR
STARTCHAR 214e
ENCODING 8526
SWIDTH 962 0
DWIDTH 26 0
BBX 26 27 0 -1
BITMAP
00000000
00000000
00000600
ffffff00
00180000
00180000
00180000
00380000
003c0000
007e0000
005b0000
00d90000
00998000
0198c000
03186000
06183000
0c181800
18180c00
30180700
60180200
80180000
00180000
00180000
00180000
00100000
00000000
00000000
ENDCHAR
STARTCHAR 214f
ENCODING 8527
SWIDTH 962 0
DWIDTH 26 0
BBX 26 27 0 -1
BITMAP
00000000
00000000
10000000
0c003000
067ff800
04003000
00003000
81006000
61006000
3100c000
23018000
02018000
06030000
04060000
0c060000
0c0c0000
18180000
f8180200
70300200
30300200
30600200
18600300
187fff00
183ffe00
18000000
00000000
00000000
ENDCHAR
STARTCHAR 2150
ENCODING 8528
SWIDTH 962 0
DWIDTH 26 0
BBX 26 27 0 -1
BITMAP
00000000
00000000
00000000
00000000
00000000
00000000
00000000
00000000
00000000
00000000
00000000
00000000
02081000
11040800
11860c00
30c30600
30c30700
60618700
e0618300
c0000000
00000000
00000000
00000000
00000000
00000000
00000000
00000000
ENDCHAR
STARTCHAR 2151
ENCODING 8529
SWIDTH 962 0
DWIDTH 26 0
BBX 26 27 0 -1
BITMAP
00000000
00000000
00000000
00000000
00007000
0007f800
007f0000
3f800000
00000000
00000000
00000000
00404000
08202000
08303000
18181800
10180c00
300c0e00
700c0600
60000000
00000000
00000000
00000000
00000000
00000000
00000000
00000000
00000000
ENDCHAR
STARTCHAR 2152
ENCODING 8530
SWIDTH 962 0
DWIDTH 26 0
BBX 26 27 0 -1
BITMAP
00000000
00000000
20000c00
3ffffe00
30000c00
30000c00
30010c00
3001cc00
32018c00
31818c00
30c30c00
30630c00
30360c00
301e0c00
301c0c00
301e0c00
30360c00
30630c00
30c38c00
31818c00
33018c00
34000c00
30000c00
3000fc00
20001800
00000000
00000000
ENDCHAR
STARTCHAR 2153
ENCODING 8531
SWIDTH 962 0
DWIDTH 26 0
BBX 26 27 0 -1
BITMAP
00000000
00000000
00000000
00000000
00000000
04004000
07007000
06006000
06006000
06406600
ffe7ff00
06006000
06006000
06006000
06006000
04004000
00000000
00000000
00000000
00000000
00000000
00000000
00000000
00000000
00000000
00000000
00000000
ENDCHAR
STARTCHAR 2154
ENCODING 8532
SWIDTH 962 0
DWIDTH 26 0
BBX 26 27 0 -1
BITMAP
00000000
00000000
40000000
30000000
18000000
18000000
00000000
00000000
0c000000
fe000000
0c000000
0c000000
18000000
30000000
7e000000
06000000
06000000
06000000
0c000000
0c000000
18000000
fe000000
c3c00000
00ffff00
003ffc00
00000000
00000000
ENDCHAR
STARTCHAR 2155
ENCODING 8533
SWIDTH 962 0
DWIDTH 26 0
BBX 26 27 0 -1
BITMAP
00000000
04004000
07107000
061c6000
06186000
06186000
06186000
06186000
06186800
3ffffc00
06186000
06186000
06186000
06186000
06186000
06186000
06186000
06186000
06186000
06186000
06186000
06106000
06006600
ffffff00
00000000
00000000
00000000
ENDCHAR
STARTCHAR 2156
ENCODING 8534
SWIDTH 962 0
DWIDTH 26 0
BBX 26 27 0 -1
BITMAP
00000000
0c008000
0e00e000
0600c000
03018000
01818000
0383c000
0cc33000
30660c00
c0660300
003c0000
00180000
00180000
00180000
00180000
00180000
00180000
00180000
00180000
00180000
00180000
00180000
00180000
00180000
00100000
00000000
00000000
ENDCHAR
STARTCHAR 2157
ENCODING 8535
SWIDTH 962 0
DWIDTH 26 0
BBX 26 27 0 -1
BITMAP
00000000
04000000
07000000
06000000
06001800
0ffffc00
0c000000
18100000
101c0000
28180000
4e183000
0c1ff800
0ff83000
fc183000
0c183000
0c186000
0c184000
0c188400
0c100400
0c000400
0c000400
0c000600
0ffffe00
07fffc00
00000000
00000000
00000000
ENDCHAR
STARTCHAR 2158
ENCODING 8536
SWIDTH 962 0
DWIDTH 26 0
BBX 26 27 0 -1
BITMAP
00000000
08018000
0e00c000
0c408600
0c7fff00
18600000
18600000
10600000
38600000
38600000
58600000
98600000
18600000
18600000
18600000
18600000
18600000
18600000
18400000
18c00000
18c00000
18800000
19800000
19000000
12000000
00000000
00000000
ENDCHAR
STARTCHAR 2159
ENCODING 8537
SWIDTH 962 0
DWIDTH 26 0
BBX 26 27 0 -1
BITMAP
00000000
02000000
03800000
03000000
06200c00
063ffe00
0c300c00
0c300c00
18300c00
1c300c00
3c300c00
2c300c00
4c300c00
8c300c00
0c300c00
0c300c00
0c300c00
0c300c00
0c300c00
0c300c00
0c300c00
0c3ffc00
0c300800
0c200000
08000000
00000000
00000000
ENDCHAR
STARTCHAR 215a
ENCODING 8538
SWIDTH 962 0
DWIDTH 26 0
BBX 26 27 0 -1
BITMAP
00000000
04100000
071c0000
06180000
06180000
0c100600
0c3fff00
0c300600
18600600
18400600
3c800600
6c080600
4c040600
8c060600
0c020600
0c030600
0c030600
0c000600
0c000600
0c000600
0c000e00
0c000c00
0c001c00
0c07f800
08007000
00000000
00000000
ENDCHAR
STARTCHAR 215b
ENCODING 8539
SWIDTH 962 0
DWIDTH 26 0
BBX 26 27 0 -1
BITMAP
00000000
08000000
0e003800
0c00fc00
0c07c000
18fe0000
18060000
18060000
30060000
38060000
78060000
58060600
99ffff00
18060000
18060000
18060000
18060000
18060000
18060200
18060200
18060200
18060300
1807ff00
1803fe00
10000000
00000000
00000000
ENDCHAR
STARTCHAR 215c
ENCODING 8540
SWIDTH 962 0
DWIDTH 26 0
BBX 26 27 0 -1
BITMAP
00000000
00200000
00380000
00300000
00306000
003ff000
00300000
00300000
00300000
00300000
00300600
ffffff00
00000000
01020000
01c38000
01830000
01830000
01830200
03030200
03030200
06030200
0c030300
1803ff00
6001fe00
80000000
00000000
00000000
ENDCHAR
STARTCHAR 215d
ENCODING 8541
SWIDTH 962 0
DWIDTH 26 0
BBX 26 27 0 -1
BITMAP
00000000
00000c00
7ffffe00
00000000
00000000
08003000
0ffff800
0c003000
0c003000
0c003000
0c033000
0dffb000
0c003000
0c003000
0c003000
0c003600
ffffff00
0c003000
0c003000
0c003000
0c003000
0c003000
0c003000
0c01f000
08006000
00000000
00000000
ENDCHAR
STARTCHAR 215e
ENCODING 8542
SWIDTH 962 0
DWIDTH 26 0
BBX 26 27 0 -1
BITMAP
00000000
00200000
00380000
00300000
00300600
ffffff00
00660000
00c30000
01818000
0300e000
06003800
0cc01f00
30300c00
c01c0000
000e0000
00060000
00000000
00000000
0000c000
00030000
000c0000
00700000
07c00000
03000000
00000000
00000000
00000000
ENDCHAR
STARTCHAR 215f
ENCODING 8543
SWIDTH 962 0
DWIDTH 26 0
BBX 26 27 0 -1
BITMAP
00000000
00000000
10001800
1ffffc00
18001800
18101800
181c1800
18181800
18181800
19191800
19d9d800
19999800
19999800
19999800
19999800
19999800
19999800
19999800
31999900
31999900
23ff8d00
61010d00
40000700
80000300
00000100
00000000
00000000
ENDCHAR
STARTCHAR 2160
ENCODING 8544
SWIDTH 962 0
DWIDTH 26 0
BBX 26 27 0 -1
BITMAP
00000000
00000000
00100000
201c0800
38180e00
30180c00
30180c00
30180c00
30198c00
33ffcc00
30180c00
30180c00
30180c00
30180c00
30180c00
30180c00
30180c00
3018cc00
37ffec00
30000c00
30000c00
30000c00
7ffffc00
20000c00
00000800
00000000
00000000
ENDCHAR
STARTCHAR 2161
ENCODING 8545
SWIDTH 962 0
DWIDTH 26 0
BBX 26 27 0 -1
BITMAP
00000000
00000800
00000e00
00000c00
00620c00
7ff38c00
03030c00
03030c00
03030c00
03030c00
03030c00
03030c00
03030c00
03030c00
03030c00
03030c00
03030c00
03030c00
03f30c00
fe020c00
70000c00
00000c00
00000c00
0000fc00
00001800
00000000
00000000
ENDCHAR
STARTCHAR 2162
ENCODING 8546
SWIDTH 962 0
DWIDTH 26 0
BBX 26 27 0 -1
BITMAP
00000000
00001000
00301c00
fff81800
18c21800
18c39800
18c31800
18c31800
18c31800
18c31800
18c31800
18c31800
18c31800
18c31800
18c31800
18c21800
18c01800
18c01a00
18c0fa00
30c03200
30c00200
20c00300
60ffff00
407ffe00
80000000
00000000
00000000
ENDCHAR
STARTCHAR 2163
ENCODING 8547
SWIDTH 962 0
DWIDTH 26 0
BBX 26 27 0 -1
BITMAP
00000000
10008000
1c00e000
1800c000
1830c000
3ff8c000
3000c600
6007ff00
4000c600
8060c600
3ff0c600
0060c600
00c0c600
0180c600
0300c600
0600c600
0c218600
18218600
30218600
60210600
60330600
7ff20600
3fe40e00
0008fc00
00101800
00000000
00000000
ENDCHAR
STARTCHAR 2164
ENCODING 8548
SWIDTH 962 0
DWIDTH 26 0
BBX 26 27 0 -1
BITMAP
00000000
00010000
00c1c000
07e18000
7e018000
06018000
06018600
061fff00
06018600
06018600
06618600
fff18600
06018600
06018600
06018600
06018600
06030600
06030600
06030600
06060600
06060600
060c0600
06180e00
0630fc00
04c01800
00000000
00000000
ENDCHAR
STARTCHAR 2165
ENCODING 8549
SWIDTH 962 0
DWIDTH 26 0
BBX 26 27 0 -1
BITMAP
00000000
40000c00
7ffffe00
60200000
60380000
60318000
603fc000
60618000
60618000
60c18000
60c30000
61830000
63060000
64070000
600d8000
6018c000
60306000
60603800
60c01e00
63000800
6c000000
60000600
ffffff00
40000000
00000000
00000000
00000000
ENDCHAR
STARTCHAR 2166
ENCODING 8550
SWIDTH 962 0
DWIDTH 26 0
BBX 26 27 0 -1
BITMAP
00000000
20000600
3fffff00
30000000
30000000
30003000
31fff800
30060000
30060000
30060000
30060000
30060000
30060c00
37fffe00
30060000
30060000
20060000
20060000
60060000
60060000
40060000
40060000
80060000
80060000
00040000
00000000
00000000
ENDCHAR
STARTCHAR 2167
ENCODING 8551
SWIDTH 962 0
DWIDTH 26 0
BBX 26 27 0 -1
BITMAP
00000000
20000600
3fffff00
30000000
3000c000
3003e000
301e0000
31f80000
30180000
30180000
30180000
30180000
30180c00
37fffe00
30180000
30180000
30180000
30180000
60180400
60180400
40180400
c0180600
801ffe00
800ffc00
00000000
00000000
00000000
ENDCHAR
STARTCHAR 2168
ENCODING 8552
SWIDTH 962 0
DWIDTH 26 0
BBX 26 27 0 -1
BITMAP
00000000
00100000
101c1000
1c181c00
18181800
18181800
18181800
18181800
3ffff800
10181000
00180000
00186000
0ffff000
03006000
0180c000
00c18000
00630000
00360000
001c0000
003e0000
00670000
01c1c000
0700f000
1c003f00
e0000c00
00000000
00000000
ENDCHAR
STARTCHAR 2169
ENCODING 8553
SWIDTH 962 0
DWIDTH 26 0
BBX 26 27 0 -1
BITMAP
00000000
00100000
001c0000
00180000
00186000
0ffff000
00186000
00186000
00186000
00186600
ffffff00
00180000
00180000
0018c000
0fffe000
0100c000
00818000
00c30000
00660000
003c0000
00670000
00c1c000
03007800
1c001f00
e0000c00
00000000
00000000
ENDCHAR
STARTCHAR 216a
ENCODING 8554
SWIDTH 962 0
DWIDTH 26 0
BBX 26 27 0 -1
BITMAP
00000000
00104000
001c7000
43186000
7f986000
63186000
63186000
63186000
63186000
63186000
63186000
63186000
63186000
63186000
63186000
63186000
63186200
63186200
7f306200
62306200
40206200
00606300
00407f00
00803e00
01000000
00000000
00000000
ENDCHAR
STARTCHAR 216b
ENCODING 8555
SWIDTH 962 0
DWIDTH 26 0
BBX 26 27 0 -1
BITMAP
00000000
00180000
01060000
01c30000
03818000
0300c000
06006000
0c003000
18001c00
30000f00
c0000400
00000000
04006000
07fff000
06006000
06006000
06006000
06006000
06006000
06006000
06006000
06006000
07ffe000
06004000
04000000
00000000
00000000
ENDCHAR
STARTCHAR 216c
ENCODING 8556
SWIDTH 962 0
DWIDTH 26 0
BBX 26 27 0 -1
BITMAP
00000000
08003000
0ffff800
0c003000
0c003000
0c003000
0c003000
0c003000
0ffff000
0c002000
08000000
00000000
00001800
7ffffc00
00601800
00601800
00601800
00c01800
00c01800
01801800
03001800
06001800
0c003800
301ff000
c000e000
00000000
00000000
ENDCHAR
STARTCHAR 216d
ENCODING 8557
SWIDTH 962 0
DWIDTH 26 0
BBX 26 27 0 -1
BITMAP
00000000
00000000
20000c00
3ffffe00
30000c00
30100c00
301c0c00
30180c00
30180c00
30300c00
30300c00
30300c00
30620c00
30610c00
30c18c00
30c0cc00
318fcc00
33f8cc00
31c08c00
30000c00
30000c00
30000c00
3ffffc00
30000800
20000000
00000000
00000000
ENDCHAR
STARTCHAR 216e
ENCODING 8558
SWIDTH 962 0
DWIDTH 26 0
BBX 26 27 0 -1
BITMAP
00000000
00000000
20000c00
3ffffe00
30000c00
30600c00
30300c00
30180c00
30180c00
30180c00
301c0c00
30340c00
30360c00
30320c00
30630c00
30610c00
30c18c00
3180cc00
3300ec00
34004c00
30000c00
30000c00
3ffffc00
30000800
20000000
00000000
00000000
ENDCHAR
STARTCHAR 216f
ENCODING 8559
SWIDTH 962 0
DWIDTH 26 0
BBX 26 27 0 -1
BITMAP
00000000
00000000
20000c00
3ffffe00
30000c00
30000c00
30000c00
30000c00
30060c00
3fff0c00
30060c00
30060c00
30060c00
30060c00
30060c00
30060c00
3ffe0c00
30040c00
30000c00
30000c00
30000c00
30000c00
3ffffc00
30000c00
20000800
00000000
00000000
ENDCHAR
STARTCHAR 2170
ENCODING 8560
SWIDTH 962 0
DWIDTH 26 0
BBX 26 27 0 -1
BITMAP
00000000
00100000
001c0000
00180000
00180000
00181800
0ffffc00
00180000
00180000
00180000
00180000
00180600
ffffff00
00c30000
00c30000
00c30000
00c30200
01830200
01830200
03030200
06030200
0c030300
1803ff00
3001fe00
c0000000
00000000
00000000
ENDCHAR
STARTCHAR 2171
ENCODING 8561
SWIDTH 962 0
DWIDTH 26 0
BBX 26 27 0 -1
BITMAP
00000000
00000000
10000600
1fffff00
18000000
18020000
18038000
18030000
18030000
18030000
18030000
18030c00
19fffe00
18030000
18030000
18030000
18030000
18030000
18030000
30030000
30030000
20030600
63ffff00
40000000
80000000
00000000
00000000
ENDCHAR
STARTCHAR 2172
ENCODING 8562
SWIDTH 962 0
DWIDTH 26 0
BBX 26 27 0 -1
BITMAP
00000000
00100000
001c0000
00180000
00180000
00180600
ffffff00
00340000
00330000
00618000
00c0c000
01806000
03003800
0c001f00
30000c00
c000c000
07ffe000
00000000
00000000
00000000
00000000
00000000
00001800
3ffffc00
00000000
00000000
00000000
ENDCHAR
STARTCHAR 2173
ENCODING 8563
SWIDTH 962 0
DWIDTH 26 0
BBX 26 27 0 -1
BITMAP
00000000
04000000
07000000
06000000
06000000
0c000c00
0ffffe00
180c0000
100c0000
200c0000
400c0000
000c0000
000c0000
020c2000
038c1000
030c1800
060c0c00
060c0c00
0c0c0600
080c0600
100c0600
200c0000
000c0000
00fc0000
00180000
00000000
00000000
ENDCHAR
STARTCHAR 2174
ENCODING 8564
SWIDTH 962 0
DWIDTH 26 0
BBX 26 27 0 -1
BITMAP
00000000
10000c00
1ffffe00
18000c00
18000c00
18000c00
18000c00
1ffffc00
18000c00
18000800
18000000
18000000
18003000
19fff800
18000000
18000000
18000000
18000000
30000000
30000000
20000600
6fffff00
40000000
80000000
00000000
00000000
00000000
ENDCHAR
STARTCHAR 2175
ENCODING 8565
SWIDTH 962 0
DWIDTH 26 0
BBX 26 27 0 -1
BITMAP
00000000
00004000
04007000
03006000
0180c000
00c08000
08810c00
0ffffe00
0c000c00
0c000c00
0c000c00
0c000c00
0c000c00
0ffffc00
0c000800
0c000000
0c000000
0c000000
18000000
18000000
30000000
30000000
60000000
40000000
80000000
00000000
00000000
ENDCHAR
STARTCHAR 2176
ENCODING 8566
SWIDTH 962 0
DWIDTH 26 0
BBX 26 27 0 -1
BITMAP
00000000
00100000
101c1000
1c181c00
18181800
18181800
3ffff800
10001000
00000000
10000c00
1ffffe00
18000000
18000000
18000000
18000000
18000000
18000000
18000000
18000000
10000000
30000000
30000000
20000000
40000000
80000000
00000000
00000000
ENDCHAR
STARTCHAR 2177
ENCODING 8567
SWIDTH 962 0
DWIDTH 26 0
BBX 26 27 0 -1
BITMAP
00000000
08000000
0e083000
0c0ff800
0c0c3000
8c8c3000
ffcc3000
cc8c3000
cc8c3000
cc8c3000
cc8c3000
cc8c3000
cc8c3000
cc8c3000
cc8c3000
cc8c3000
cc8c3000
cc8c3200
cc8c3200
cc8c3200
cf983200
8d183300
0c303f00
0c601e00
08800000
00000000
00000000
ENDCHAR
STARTCHAR 2178
ENCODING 8568
SWIDTH 962 0
DWIDTH 26 0
BBX 26 27 0 -1
BITMAP
00000000
00004000
08007000
06006000
0300c000
01808000
01011800
3ffffc00
00180000
00180000
00180000
00180000
00180000
00180600
ffffff00
00180000
00180000
00180000
00180000
00180000
00180000
00180000
00180000
00180000
00100000
00000000
00000000
ENDCHAR
STARTCHAR 2179
ENCODING 8569
SWIDTH 962 0
DWIDTH 26 0
BBX 26 27 0 -1
BITMAP
00000000
08000000
0e100c00
0c1ffe00
18180c00
18180c00
30180c00
24180c00
47180c00
86180c00
0c180c00
0c180c00
18180c00
1e19fc00
3c183800
6c180000
8c180000
0c180000
0c180200
0c180200
0c180200
0c180300
0c1fff00
0c0ffe00
08000000
00000000
00000000
ENDCHAR
STARTCHAR 217a
ENCODING 8570
SWIDTH 962 0
DWIDTH 26 0
BBX 26 27 0 -1
BITMAP
00000000
08000000
0e100400
0c1c0700
0c180600
0c980600
ffd80600
0c180600
0c180600
0c180600
0c180600
0c180600
0c180600
0fd80600
fc180600
6c180600
0c180600
0c180600
0c180600
0c180600
0c180600
0c180600
0c3ffe00
fc100600
18000400
00000000
00000000
ENDCHAR
STARTCHAR 217b
ENCODING 8571
SWIDTH 962 0
DWIDTH 26 0
BBX 26 27 0 -1
BITMAP
00000000
08000800
0e000e00
0c080c00
0c0e0c00
0c8c0c00
ffcc0c00
0c0c0c00
0c0c0c00
0c0c0c00
0c0c0c00
0c0c0c00
0c0c0c00
0fcc0c00
fc0c0c00
6c0c0c00
0c1ffc00
0c080c00
0c000c00
0c000c00
0c000c00
0c000c00
0c000c00
fc000c00
18000800
00000000
00000000
ENDCHAR
STARTCHAR 217c
ENCODING 8572
SWIDTH 962 0
DWIDTH 26 0
BBX 26 27 0 -1
BITMAP
00000000
00000000
10001800
1ffffc00
18001800
18001800
18001800
18001800
1ffff800
18181800
18181800
18181800
18181800
1ffff800
18181000
10180000
00180000
00180000
00180000
00180000
00180000
00180000
00180000
00180000
00100000
00000000
00000000
ENDCHAR
STARTCHAR 217d
ENCODING 8573
SWIDTH 962 0
DWIDTH 26 0
BBX 26 27 0 -1
BITMAP
00000000
00100000
101c1000
1c181c00
18181800
18181800
18181800
18181800
3ffff800
10181000
00380000
003c0000
003c0000
005a0000
00db0000
00998000
0198c000
03186000
06183000
0c181c00
18180700
30180200
c0180000
00180000
00100000
00000000
00000000
ENDCHAR
STARTCHAR 217e
ENCODING 8574
SWIDTH 962 0
DWIDTH 26 0
BBX 26 27 0 -1
BITMAP
00000000
00007000
0001f800
001f0000
00180000
00180000
00180000
00180000
00180000
00180600
ffffff00
00380000
007c0000
007a0000
00d98000
0198c000
03186000
06183000
0c181c00
18180f00
30180400
c0180000
00180000
00180000
00100000
00000000
00000000
ENDCHAR
STARTCHAR 2221
ENCODING 8737
SWIDTH 962 0
DWIDTH 26 0
BBX 26 27 0 -1
BITMAP
00000000
00000000
00000000
20000c00
3ffffe00
30c30c00
30c30c00
30c30c00
30c30c00
30c30c00
30c30c00
30c30c00
30c30c00
30c30c00
30c30c00
30c30c00
30c30c00
30c30c00
30c30c00
30c30c00
3ffffc00
30000c00
20000800
00000000
00000000
00000000
00000000
ENDCHAR
STARTCHAR 2222
ENCODING 8738
SWIDTH 962 0
DWIDTH 26 0
BBX 26 27 0 -1
BITMAP
00000000
46000000
7f103000
661ff800
66183000
66183000
64183000
68183000
70183000
6c183000
66183000
66183000
63183000
63183000
63183000
63183000
63183000
67303200
7e303200
6c603200
60603200
60c03300
61803f00
63001e00
4c000000
00000000
00000000
ENDCHAR
STARTCHAR 2223
ENCODING 8739
SWIDTH 962 0
DWIDTH 26 0
BBX 26 27 0 -1
BITMAP
00000000
86080000
ff0e0000
c60c0000
c60c0000
c60c0000
cc0c3000
c8fff800
d00c3000
c80c3000
cc0c3000
c60c3000
c60c3000
c30c3000
c30c3000
c3183000
c3183000
c7183200
fe303200
cc303200
c0603200
c0c03300
c1803f00
c3001e00
8c000000
00000000
00000000
ENDCHAR
STARTCHAR 2224
ENCODING 8740
SWIDTH 962 0
DWIDTH 26 0
BBX 26 27 0 -1
BITMAP
00000000
00000000
00000600
ffffff00
00180000
00180000
00180000
20180c00
3ffffe00
30180c00
30180c00
30340c00
30330c00
30618c00
30c0cc00
3180ec00
33006c00
3c006c00
30000c00
30000c00
30000c00
30000c00
3ffffc00
30000800
20000000
00000000
00000000
ENDCHAR
STARTCHAR 2225
ENCODING 8741
SWIDTH 962 0
DWIDTH 26 0
BBX 26 27 0 -1
BITMAP
00000000
0001c000
0107e000
01fc0000
01800000
01801800
01fffc00
01801800
01801800
41fff800
71801800
61801800
61fff800
61800000
61800600
ffffff00
41800600
01800600
03000600
03000600
06000600
06000600
0c000e00
1803fc00
20001800
00000000
00000000
ENDCHAR
STARTCHAR 2226
ENCODING 8742
SWIDTH 962 0
DWIDTH 26 0
BBX 26 27 0 -1
BITMAP
00000000
0000f800
100ffc00
1ffc0000
18000000
18000000
18007800
1843fc00
187e0000
18640000
18640400
18660700
18620e00
18631800
1861b000
1860c000
1860c000
18606000
30603000
30601800
3060dc00
60630e00
606c0700
40780200
80300000
00000000
00000000
ENDCHAR
STARTCHAR 2227
ENCODING 8743
SWIDTH 962 0
DWIDTH 26 0
BBX 26 27 0 -1
BITMAP
00000000
00007000
0001f800
000f8000
00780000
03d80000
3c180000
00181000
00181c00
021a3800
039a6000
071b8000
0c190000
30198000
c2188000
03984000
07186000
0e183000
1c181c00
30180f00
c0180400
00180000
00180000
00180000
00100000
00000000
00000000
ENDCHAR
STARTCHAR 2228
ENCODING 8744
SWIDTH 962 0
DWIDTH 26 0
BBX 26 27 0 -1
BITMAP
00000000
00000000
00c00000
ffe00000
00c00c00
00dffe00
01918c00
01918c00
03118c00
03118c00
061ffc00
06118c00
0c118c00
0c118c00
18118c00
181ffc00
30100000
30000200
60000200
60000200
60000200
70000300
3fffff00
1ffffe00
00000000
00000000
00000000
ENDCHAR
STARTCHAR 2229
ENCODING 8745
SWIDTH 962 0
DWIDTH 26 0
BBX 26 27 0 -1
BITMAP
00000000
04020000
07038000
06030000
0e030000
0c430600
0c7fff00
18c30600
19830400
38830800
38030000
58060000
98078000
18078000
180d8000
180d8000
18098000
18198200
18118200
18318200
18218200
18418300
1881ff00
1900fe00
12000000
00000000
00000000
ENDCHAR
STARTCHAR 222a
ENCODING 8746
SWIDTH 962 0
DWIDTH 26 0
BBX 26 27 0 -1
BITMAP
00000000
04000000
07200600
063fff00
0e300000
0c300000
0c300000
18300c00
1837fe00
38330c00
38330c00
58330c00
98330c00
18330c00
18330c00
18330c00
18337c00
18331800
18630200
18630200
18430200
18c30300
1883ff00
1901fe00
12000000
00000000
00000000
ENDCHAR
STARTCHAR 222b
ENCODING 8747
SWIDTH 962 0
DWIDTH 26 0
BBX 26 27 0 -1
BITMAP
00000000
04018000
0700c000
06104000
0e1c6000
0c183000
0c301000
18301800
18600c00
38c00700
39bffa00
5a0c0000
980c0000
18180000
18181800
183ffc00
18101800
18001800
18001800
18001800
18001800
18001800
18003000
180fe000
1000c000
00000000
00000000
ENDCHAR
STARTCHAR 222c
ENCODING 8748
SWIDTH 962 0
DWIDTH 26 0
BBX 26 27 0 -1
BITMAP
00000000
00100000
001c0000
00180600
ffffff00
00180000
10181800
1ffffc00
18181800
18181800
18181800
1818f800
10183000
00100000
001c0000
00180000
00340000
00320000
00630000
00c18000
0180c000
03007000
0c001f00
30000c00
c0000000
00000000
00000000
ENDCHAR
STARTCHAR 222d
ENCODING 8749
SWIDTH 962 0
DWIDTH 26 0
BBX 26 27 0 -1
BITMAP
00000000
04000000
07001800
06fffc00
06180000
0c180000
0c180000
18180000
18183000
383ff800
38303000
58303000
98303000
18303000
18603000
18603000
18fff000
18406000
18006000
18006000
18006000
18006000
18006600
19ffff00
10000000
00000000
00000000
ENDCHAR
STARTCHAR 222e
ENCODING 8750
SWIDTH 962 0
DWIDTH 26 0
BBX 26 27 0 -1
BITMAP
00000000
04000000
07000c00
06fffe00
06600000
0c600000
0c600800
18600e00
18600c00
38640c00
38631800
58619800
9860f000
18606000
1860f000
1860d800
18619800
18630c00
18660c00
18680000
18600000
18600000
187ffe00
183fff00
10000000
00000000
00000000
ENDCHAR
STARTCHAR 222f
ENCODING 8751
SWIDTH 962 0
DWIDTH 26 0
BBX 26 27 0 -1
BITMAP
00000000
04000000
07200c00
063ffe00
06300c00
0c300c00
0c300c00
08300c00
1e340c00
3c320c00
2c330c00
4c318c00
8c30cc00
0c30cc00
0c306c00
0c306c00
0c300c00
0c300c00
0c300c00
0c300c00
0c300c00
0c300c00
0c3ffc00
0c300800
08200000
00000000
00000000
ENDCHAR
STARTCHAR 2230
ENCODING 8752
SWIDTH 962 0
DWIDTH 26 0
BBX 26 27 0 -1
BITMAP
00000000
04020000
07038000
06030000
06030c00
0c03fe00
0c030000
08030000
1e030000
3c031800
2c7ffc00
4c101800
8c101800
0c103000
0c083000
0c082000
0c046000
0c06c000
0c038000
0c06c000
0c0c6000
0c183000
0c301c00
0c600f00
09800400
00000000
00000000
ENDCHAR
STARTCHAR 2231
ENCODING 8753
SWIDTH 962 0
DWIDTH 26 0
BBX 26 27 0 -1
BITMAP
00000000
08208000
0e38e000
0c30c000
0c30c000
1860c000
1860c000
1040c000
3cf0c000
79e0c000
5960c000
9a60c000
1861a000
1861a000
1861a000
1861b000
18631000
18631000
18631800
18660800
18660c00
18640600
186c0700
18680200
10500000
00000000
00000000
ENDCHAR
STARTCHAR 2232
ENCODING 8754
SWIDTH 962 0
DWIDTH 26 0
BBX 26 27 0 -1
BITMAP
00000000
01020000
01c38000
01830000
01830000
41830c00
7f83fe00
61830c00
61830c00
61830c00
61830c00
61830c00
7f83fc00
61830c00
41830800
01830000
01830000
03030200
03030200
06030200
06030200
0c030300
1803ff00
3001fe00
c0000000
00000000
00000000
ENDCHAR
STARTCHAR 2233
ENCODING 8755
SWIDTH 962 0
DWIDTH 26 0
BBX 26 27 0 -1
BITMAP
00000000
04003000
07fff800
06000000
06000000
06000000
06006000
07fff000
06000000
06000000
06000000
06000600
ffffff00
00000000
01020000
01c38000
01830000
01830000
01830200
03030200
03030200
06030300
0c03ff00
3001fe00
c0000000
00000000
00000000
ENDCHAR
STARTCHAR 2234
ENCODING 8756
SWIDTH 962 0
DWIDTH 26 0
BBX 26 27 0 -1
BITMAP
00000000
000c0000
02030000
03818000
0700c000
06006000
0c003000
18001c00
3000cf00
cfffe400
00300000
00300000
00300000
00300000
00300600
ffffff00
00600000
00660000
00c18000
01806000
03003000
06001c00
0c000e00
30000700
c0000300
00000000
00000000
ENDCHAR
STARTCHAR 2235
ENCODING 8757
SWIDTH 962 0
DWIDTH 26 0
BBX 26 27 0 -1
BITMAP
00000000
000c0000
02030000
03818000
0700c000
06006000
0c103800
181c1f00
30180c00
c0180000
00180c00
3ffffe00
30180c00
30180c00
30180c00
30180c00
3ffffc00
30180800
20180000
00180000
00180000
00180000
00180000
00180000
00100000
00000000
00000000
ENDCHAR
STARTCHAR 2236
ENCODING 8758
SWIDTH 962 0
DWIDTH 26 0
BBX 26 27 0 -1
BITMAP
00000000
0200c000
03ffe000
0300c000
0300c000
0320c000
033fc000
0330c000
0330c000
0330c000
0330c000
4330c600
7fffff00
60000600
60000600
60000600
60000600
60000600
60000600
60000600
60000600
60000600
60000600
60007e00
40000c00
00000000
00000000
ENDCHAR
STARTCHAR 2237
ENCODING 8759
SWIDTH 962 0
DWIDTH 26 0
BBX 26 27 0 -1
BITMAP
00000000
20000000
20000600
3fffff00
60000600
60000600
c0000400
400c0800
01030000
01c18000
0180c000
03006000
06203800
0c381c00
18300f00
30600400
c0600000
00c08000
00c04000
01806000
03003000
060ff800
0ff81800
0f801800
06000000
00000000
00000000
ENDCHAR
STARTCHAR 2238
ENCODING 8760
SWIDTH 962 0
DWIDTH 26 0
BBX 26 27 0 -1
BITMAP
00000000
00000000
80040000
60030000
30018000
1800c000
10006000
02106000
021c0000
02180000
04180000
04180800
08580400
08580600
18d80600
30980300
f1980300
61981300
63181000
33181000
30181000
30181800
301ff800
300ff000
00000000
00000000
00000000
ENDCHAR
STARTCHAR 2239
ENCODING 8761
SWIDTH 962 0
DWIDTH 26 0
BBX 26 27 0 -1
BITMAP
00000000
02000400
03800700
03000600
03008600
0318e600
fffcc600
0300c600
0300c600
0300c600
0330c600
7ff8c600
0030c600
0030c600
3030c600
0c60c600
0660c600
03c0c600
0180c600
03c08600
06700600
0c380600
181c0600
300c7e00
c0000c00
00000000
00000000
ENDCHAR
STARTCHAR 223a
ENCODING 8762
SWIDTH 962 0
DWIDTH 26 0
BBX 26 27 0 -1
BITMAP
00000000
02000400
03800700
03000600
03180600
fffc8600
0300e600
0300c600
0300c600
4318c600
7ffcc600
6318c600
6318c600
6318c600
6318c600
6318c600
6318c600
6318c600
6318c600
63188600
63780600
43300600
03000600
03007e00
02000c00
00000000
00000000
ENDCHAR
STARTCHAR 223b
ENCODING 8763
SWIDTH 962 0
DWIDTH 26 0
BBX 26 27 0 -1
BITMAP
00000000
01000400
08c00700
0e600600
0c308600
1818e600
180cc600
300ec600
3006c600
6000c600
4018c600
bffcc600
0618c600
0618c600
0618c600
0618c600
0618c600
0c18c600
0c18c600
18188600
18180600
30180600
20380600
47f07e00
80600c00
00000000
00000000
ENDCHAR
STARTCHAR 223c
ENCODING 8764
SWIDTH 962 0
DWIDTH 26 0
BBX 26 27 0 -1
BITMAP
00000000
08400400
0e700700
0c600600
0c600600
0c608600
0c60e600
7ffcc600
0c60c600
0c60c600
0c60c600
0c60c600
0c60c600
0c64c600
fffec600
0c60c600
0c60c600
0c60c600
0c60c600
18608600
18600600
30600600
20600600
40603e00
80400c00
00000000
00000000
ENDCHAR
STARTCHAR 223d
ENCODING 8765
SWIDTH 962 0
DWIDTH 26 0
BBX 26 27 0 -1
BITMAP
00000000
00400400
60700700
18600600
0cc00600
07810600
06c1c600
0c618600
18718600
30318600
60018600
80218600
00398600
00318600
30318600
0c618600
06618600
03c18600
01c18600
03610600
06300600
0c180600
181c0600
300c7e00
c0000c00
00000000
00000000
ENDCHAR
STARTCHAR 223e
ENCODING 8766
SWIDTH 962 0
DWIDTH 26 0
BBX 26 27 0 -1
BITMAP
00000000
02000400
03800700
03000600
03300600
03f88600
3f00e600
0300c600
0300c600
0318c600
7ffcc600
0300c600
0300c600
0300c600
030cc600
fffec600
0300c600
0300c600
0600c600
06008600
0c000600
18000600
30000600
60003e00
80000c00
00000000
00000000
ENDCHAR
STARTCHAR 223f
ENCODING 8767
SWIDTH 962 0
DWIDTH 26 0
BBX 26 27 0 -1
BITMAP
00000000
08008000
0600e000
0300c000
0230c000
fff8c000
0000c600
000fff00
10c0c600
1fe0c600
18c0c600
18c0c600
18c0c600
18c0c600
18c0c600
18c0c600
18c18600
18c18600
18c98600
30d30600
30e30600
60460600
400c0e00
8018fc00
00601800
00000000
00000000
ENDCHAR
STARTCHAR 2240
ENCODING 8768
SWIDTH 962 0
DWIDTH 26 0
BBX 26 27 0 -1
BITMAP
00000000
10008000
1c00e000
1800c000
3030c000
3ff8c000
6000c600
40c7ff00
9fe0c600
0000c600
0060c600
3ff0c600
0060c600
00c0c600
0180c600
0300c600
0600c600
0c218600
18218600
30210600
60330600
7ff20600
3fe40e00
0008fc00
00101800
00000000
00000000
ENDCHAR
STARTCHAR 2241
ENCODING 8769
SWIDTH 962 0
DWIDTH 26 0
BBX 26 27 0 -1
BITMAP
00000000
00010000
01c1c000
07e18000
7e018000
06018000
06018600
061fff00
06418600
7fe18600
06018600
06018600
06018600
06018600
06618600
fff18600
06030600
06030600
06030600
06060600
06060600
060c0600
06180e00
7e31fc00
0c401800
00000000
00000000
ENDCHAR
STARTCHAR 2242
ENCODING 8770
SWIDTH 962 0
DWIDTH 26 0
BBX 26 27 0 -1
BITMAP
00000000
00008000
0060e000
23f0c000
3e00c000
3000c000
3000c600
3007ff00
3030c600
3ff8c600
30c0c600
30c0c600
30c0c600
30c0c600
30c0c600
30c0c600
30c0c600
30c18600
30c18600
30c10600
20c30600
60c20600
40c40e00
40c8fc00
80901800
00000000
00000000
ENDCHAR
STARTCHAR 2243
ENCODING 8771
SWIDTH 962 0
DWIDTH 26 0
BBX 26 27 0 -1
BITMAP
00000000
40000c00
7ffffe00
60000000
600c0000
60430000
60718000
6060c000
60c06000
61903800
631c1e00
66380800
68300000
60608000
60606000
60c03000
6187f800
63fc1800
63e01800
61800000
60000000
60000600
ffffff00
40000000
00000000
00000000
00000000
ENDCHAR
STARTCHAR 2244
ENCODING 8772
SWIDTH 962 0
DWIDTH 26 0
BBX 26 27 0 -1
BITMAP
00000000
00100000
001c0000
00180000
00180000
00180600
ffffff00
00180000
00180000
08182000
0e183800
0c183000
0c183000
0d983600
ffdbff00
0c183000
0c183000
0c183000
0c183000
0c183000
0c183000
08182000
00180000
00180000
00100000
00000000
00000000
ENDCHAR
STARTCHAR 2245
ENCODING 8773
SWIDTH 962 0
DWIDTH 26 0
BBX 26 27 0 -1
BITMAP
00000000
00c01800
03e07c00
0e01c000
760ec000
0600c000
0600c000
0600c000
0600c000
0600c000
0600c000
0640c600
ffefff00
0600c000
0600c000
0600c000
0600c000
0600c000
0c00c000
0c00c000
1800c000
1800c000
3000c000
6000c000
80008000
00000000
00000000
ENDCHAR
STARTCHAR 2246
ENCODING 8774
SWIDTH 962 0
DWIDTH 26 0
BBX 26 27 0 -1
BITMAP
00000000
00800000
40e10600
70c1ff00
60c18600
60c18600
60c18600
60c18600
60c18600
7efd8600
60c18600
60c18600
60c18600
60c18600
60c18600
60c18600
60c9be00
60c98c00
60c98000
66cd8000
78fd8000
30798000
00018000
00018000
00010000
00000000
00000000
ENDCHAR
STARTCHAR 2247
ENCODING 8775
SWIDTH 962 0
DWIDTH 26 0
BBX 26 27 0 -1
BITMAP
00000000
20000600
3fffff00
30060000
30060000
300d8000
3018c000
30306000
30603000
30c01c00
33000f00
3c408400
3070e000
3060c000
3060c000
3060c000
3060c000
3060c000
3060c000
2060c000
60c0c000
4080c000
4180c000
8300c000
04008000
00000000
00000000
ENDCHAR
STARTCHAR 2248
ENCODING 8776
SWIDTH 962 0
DWIDTH 26 0
BBX 26 27 0 -1
BITMAP
00000000
00200000
00380000
00700000
00600000
00c00000
01808000
03006000
06003000
0c0ff800
1ff81800
0f801800
00000000
04002000
07003800
06007000
0c006000
0c00c000
1900c800
10818400
30c30600
63e63f00
fc6fc300
60660300
00000000
00000000
00000000
ENDCHAR
STARTCHAR 2249
ENCODING 8777
SWIDTH 962 0
DWIDTH 26 0
BBX 26 27 0 -1
BITMAP
00000000
00004000
0700f000
00c1c000
00370000
001e0000
00738000
01c0e000
0e207000
70383000
00300000
00300600
ffffff00
00600000
00c40000
00c70000
018e0000
030c2000
06181800
0c180800
18300c00
3060fe00
60ff8600
807c0600
00000000
00000000
00000000
ENDCHAR
STARTCHAR 224a
ENCODING 8778
SWIDTH 962 0
DWIDTH 26 0
BBX 26 27 0 -1
BITMAP
00000000
02010000
0381c000
07018000
06018000
0c830800
0c430400
18620600
33e67e00
7e6fc600
38470400
00000000
02018000
03ffc000
03018000
03018000
03018000
03018000
03018200
06018200
06018200
0c018300
1801ff00
3000fe00
c0000000
00000000
00000000
ENDCHAR
STARTCHAR 224b
ENCODING 8779
SWIDTH 962 0
DWIDTH 26 0
BBX 26 27 0 -1
BITMAP
00000000
0001e000
0007f800
007c0000
1f801000
00301c00
10181800
0c0c3000
06082000
04004000
00001800
0ffffc00
02001800
01003000
00806000
00c0c000
00618000
00330000
001e0000
003f0000
00738000
01c0e000
07007800
1c001f00
e0000c00
00000000
00000000
ENDCHAR
STARTCHAR 224c
ENCODING 8780
SWIDTH 962 0
DWIDTH 26 0
BBX 26 27 0 -1
BITMAP
00000000
00300000
00180000
00100c00
7ffffe00
06000000
06000000
06000000
06000000
06000000
07fff000
03fff800
00000000
00000000
08003000
0ffff800
0c003000
0c003000
0c003000
0c003000
0c003000
0c003000
0ffff000
0c002000
08000000
00000000
00000000
ENDCHAR
STARTCHAR 224d
ENCODING 8781
SWIDTH 962 0
DWIDTH 26 0
BBX 26 27 0 -1
BITMAP
00000000
00000000
00006000
1ffff000
00006000
00006000
10006000
1fffe000
18004000
18000800
18000800
18000c00
1ffffc00
0ffff800
00000000
08003000
0ffff800
0c003000
0c003000
0c003000
0c003000
0c003000
0ffff000
0c002000
08000000
00000000
00000000
ENDCHAR
STARTCHAR 224e
ENCODING 8782
SWIDTH 962 0
DWIDTH 26 0
BBX 26 27 0 -1
BITMAP
00000000
00000000
00000c00
7ffffe00
00180000
00180000
001e0000
00198000
0018e000
00187000
00183000
00180000
00180000
00180000
08103000
0ffff800
0c003000
0c003000
0c003000
0c003000
0c003000
0c003000
0ffff000
0c002000
08000000
00000000
00000000
ENDCHAR
STARTCHAR 224f
ENCODING 8783
SWIDTH 962 0
DWIDTH 26 0
BBX 26 27 0 -1
BITMAP
00000000
00200000
00380000
00300000
00306000
003ff000
00300000
00300000
00300000
00300000
00300c00
7ffffe00
00000000
00000000
08003000
0ffff800
0c003000
0c003000
0c003000
0c003000
0c003000
0c003000
0ffff000
0c002000
08000000
00000000
00000000
ENDCHAR
STARTCHAR 2250
ENCODING 8784
SWIDTH 962 0
DWIDTH 26 0
BBX 26 27 0 -1
BITMAP
00000000
00000000
00001800
001ffc00
43000000
7f800000
63000000
63000000
63000600
637fff00
63060000
63060000
630c0000
630c0c00
631ffe00
63080c00
63000c00
63000c00
7f000c00
62000c00
40000c00
00001800
00003800
0003f000
00006000
00000000
00000000
ENDCHAR
STARTCHAR 2251
ENCODING 8785
SWIDTH 962 0
DWIDTH 26 0
BBX 26 27 0 -1
BITMAP
00000000
08001800
0e007c00
0c03c000
0c3f0000
0c030000
0c030000
0d030000
7f830000
0c030000
0c030c00
0c7ffe00
0c030000
0c030000
0c030000
0c030000
0c030200
0c030200
0c030200
0f830200
fc030200
60030300
0003ff00
0001fe00
00000000
00000000
00000000
ENDCHAR
STARTCHAR 2252
ENCODING 8786
SWIDTH 962 0
DWIDTH 26 0
BBX 26 27 0 -1
BITMAP
00000000
00006000
0ffff000
00006000
00006000
07ffe000
00006000
00006600
ffffff00
00800000
00e00000
00c06000
01fff000
01806000
03006000
06c0c000
18318000
601b0000
00160000
000c0000
00180000
00600000
01800000
06000000
38000000
00000000
00000000
ENDCHAR
STARTCHAR 2253
ENCODING 8787
SWIDTH 962 0
DWIDTH 26 0
BBX 26 27 0 -1
BITMAP
00000000
00200000
00380000
00300000
00300600
ffffff00
00630000
00c18000
0180c000
03007000
06001c00
0c100f00
301c0400
c0180000
00180000
04184000
07182000
06181000
0c181800
08180c00
10180c00
20180c00
40180000
01f80000
00300000
00000000
00000000
ENDCHAR
STARTCHAR 2254
ENCODING 8788
SWIDTH 962 0
DWIDTH 26 0
BBX 26 27 0 -1
BITMAP
00000000
00400000
00700000
00e00000
01c20000
03038000
06070000
0f0e0000
05d80000
00704000
00c06000
01803000
060ff800
1ff81800
0c201800
00380000
00300600
ffffff00
00600000
00c30000
0180e000
03003800
06001c00
18000e00
e0000600
00000000
00000000
ENDCHAR
STARTCHAR 2255
ENCODING 8789
SWIDTH 962 0
DWIDTH 26 0
BBX 26 27 0 -1
BITMAP
00000000
20018000
3800c000
32104600
331fff00
33180000
ff980000
f3180000
33180000
33180000
33180000
33180000
33180000
63180000
66180000
66180000
f6180000
5c180000
0e180000
1b180000
19900000
31b00000
60200000
40400000
80800000
00000000
00000000
ENDCHAR
STARTCHAR 2256
ENCODING 8790
SWIDTH 962 0
DWIDTH 26 0
BBX 26 27 0 -1
BITMAP
00000000
20000000
38000c00
321ffe00
3300c000
3300c000
ff80c000
f300c000
3300c000
3300c000
3300c200
333fff00
3300c000
6300c000
6600c000
6600c000
f600c000
5c00c000
0e00c000
1b00c000
1380c000
2180c000
4000c000
800fc000
00018000
00000000
00000000
ENDCHAR
STARTCHAR 2257
ENCODING 8791
SWIDTH 962 0
DWIDTH 26 0
BBX 26 27 0 -1
BITMAP
00000000
20010000
3801c000
32018000
33018000
33030000
ffc31000
f3061c00
33041800
33081800
33103000
33203000
33006000
63006000
6600c000
6600c000
f6019000
5c030800
0e030400
1b060600
138c0300
21983f00
403fc300
801f0300
000c0000
00000000
00000000
ENDCHAR
STARTCHAR 2258
ENCODING 8792
SWIDTH 962 0
DWIDTH 26 0
BBX 26 27 0 -1
BITMAP
00000000
10010000
1c01c000
18018800
18018e00
18c18c00
1fefff00
30c18c00
30c18c00
20c30c00
60c30c00
40c61800
818f1800
0184f000
01807000
0340d800
03418c00
06630600
062c0400
0c300000
18180000
100e0000
2007ff00
4001fe00
80000000
00000000
00000000
ENDCHAR
STARTCHAR 2259
ENCODING 8793
SWIDTH 962 0
DWIDTH 26 0
BBX 26 27 0 -1
BITMAP
00000000
10000000
1c000600
187fff00
18063000
19063000
19863000
ffe63000
79863000
19863000
19863000
31863000
31863000
63063000
63063000
fb063000
4e063000
070c3000
0d8c3000
0cd83000
18983000
30303000
60603000
80c03000
01002000
00000000
00000000
ENDCHAR
STARTCHAR 225a
ENCODING 8794
SWIDTH 962 0
DWIDTH 26 0
BBX 26 27 0 -1
BITMAP
00000000
00300000
00180000
20100600
3fffff00
60000600
c0000400
40003000
1ffff800
02000000
03800000
03000000
03003000
07fff800
06003000
0c003000
08003000
10003000
00003000
00003000
00003000
00003000
00007000
001fe000
0000c000
00000000
00000000
ENDCHAR
STARTCHAR 225b
ENCODING 8795
SWIDTH 962 0
DWIDTH 26 0
BBX 26 27 0 -1
BITMAP
00000000
00400000
00300000
00180000
20100600
3fffff00
60000600
e0800400
40e00800
00c00000
00c0c000
01ffe000
0180c000
0180c000
0300c000
03018000
03018000
06018000
0fff8000
04030000
00030000
00030000
00030600
ffffff00
00000000
00000000
00000000
ENDCHAR
STARTCHAR 225c
ENCODING 8796
SWIDTH 962 0
DWIDTH 26 0
BBX 26 27 0 -1
BITMAP
00000000
00100000
001c0000
00180000
00180000
00183000
001ff800
00180000
00180000
00180000
00180600
ffffff00
00180000
00180000
04190000
0718c000
06186000
0c183000
0c181800
18181c00
30180e00
60180600
80180000
01f80000
00300000
00000000
00000000
ENDCHAR
STARTCHAR 225d
ENCODING 8797
SWIDTH 962 0
DWIDTH 26 0
BBX 26 27 0 -1
BITMAP
00000000
08000000
0e001800
0c0ffc00
0c00c000
0c00c000
0c20c000
fff0c000
0d80c400
0d9ffe00
0d80c000
0d80c000
0d80c000
0d80c000
0d80c000
1980c000
1980c000
1980c000
118fc200
31818200
31800200
21800300
61ffff00
40fffe00
80000000
00000000
00000000
ENDCHAR
STARTCHAR 225e
ENCODING 8798
SWIDTH 962 0
DWIDTH 26 0
BBX 26 27 0 -1
BITMAP
00000000
10001800
1ffffc00
18001800
18001800
18001800
18001800
18001800
1ffff800
18001000
18000000
18000000
18800c00
18fffe00
18c00c00
18c00c00
18c00c00
18c00c00
18c00c00
30c00c00
30c00c00
20c00c00
60fffc00
40c00800
80800000
00000000
00000000
ENDCHAR
STARTCHAR 225f
ENCODING 8799
SWIDTH 962 0
DWIDTH 26 0
BBX 26 27 0 -1
BITMAP
00000000
04004000
03007000
01806000
00c0c000
00808600
ffffff00
00180000
00180000
10181000
1c181c00
18181800
18181800
18181800
18181800
3ffff800
10181000
00300000
00300000
00600000
00c00000
01800000
03000000
06000000
18000000
00000000
00000000
ENDCHAR
STARTCHAR 2260
ENCODING 8800
SWIDTH 962 0
DWIDTH 26 0
BBX 26 27 0 -1
BITMAP
00000000
10000000
1c000800
183ffc00
18018000
18018000
18018000
99018000
99018000
99018000
99018000
99018600
997fff00
99018000
99018000
99018000
99018000
99018000
99018000
99018000
ff018000
81018000
80018000
00018000
00010000
00000000
00000000
ENDCHAR
STARTCHAR 2261
ENCODING 8801
SWIDTH 962 0
DWIDTH 26 0
BBX 26 27 0 -1
BITMAP
00000000
00100000
201c0800
38180e00
30180c00
30180c00
30180c00
7ffffc00
20000800
00000000
02018000
03ffc000
03018000
03018000
03618000
03318000
03198000
03198000
06018200
06018200
0c018200
18018300
3001ff00
6000fe00
80000000
00000000
00000000
ENDCHAR
STARTCHAR 2262
ENCODING 8802
SWIDTH 962 0
DWIDTH 26 0
BBX 26 27 0 -1
BITMAP
00000000
08102000
0e1c3800
0c183000
18306000
3060c000
18306000
0c183000
060c1800
04081000
00000000
0ffff000
0c003000
0c003000
0c003000
0ffff000
0c003000
0c003000
0c003000
0c003000
0c003000
0c003000
0c003000
0c03f000
08006000
00000000
00000000
ENDCHAR
STARTCHAR 2263
ENCODING 8803
SWIDTH 962 0
DWIDTH 26 0
BBX 26 27 0 -1
BITMAP
00000000
00000000
00003000
007ff800
000c3000
030c3000
7f8c3000
0c0c3000
0c2c3000
0c1c3000
0c0c3000
0c0e3000
0c0f3000
0c0db000
0c0db000
0c0c3000
0c183000
0c183000
0fb03200
f8303200
60603200
00c03300
01803f00
03001e00
04000000
00000000
00000000
ENDCHAR
STARTCHAR 2264
ENCODING 8804
SWIDTH 962 0
DWIDTH 26 0
BBX 26 27 0 -1
BITMAP
00000000
08000000
0e000c00
0c07fe00
0c006000
8cc06000
ffe06000
ccc06000
ccc06000
ccc06000
ccc06000
ccc06600
cccfff00
ccc06000
ccc06000
ccc06000
ccc06000
ccc06000
ccc06000
ccc06000
cfc06000
8c806000
0c006000
0c006000
08004000
00000000
00000000
ENDCHAR
STARTCHAR 2265
ENCODING 8805
SWIDTH 962 0
DWIDTH 26 0
BBX 26 27 0 -1
BITMAP
00000000
08000000
0e000600
0c1fff00
0c018600
8cc18600
ffe18600
ccc18600
ccd18600
ccc98600
cccd8600
ccc78600
ccc58600
ccc18600
ccc18600
ccc18600
ccc18600
ccc30600
ccc30600
cfc60600
8c840600
0c080600
0c100e00
0c21fc00
08401800
00000000
00000000
ENDCHAR
STARTCHAR 2266
ENCODING 8806
SWIDTH 962 0
DWIDTH 26 0
BBX 26 27 0 -1
BITMAP
00000000
00300000
00180000
00100600
ffffff00
0c000000
0c000000
0c000000
0c000000
0ffff800
07fffc00
00100000
001c0000
00180000
10181800
1ffffc00
18181800
18181800
18181800
18181800
18181800
18181800
1819f800
10183000
00100000
00000000
00000000
ENDCHAR
STARTCHAR 2267
ENCODING 8807
SWIDTH 962 0
DWIDTH 26 0
BBX 26 27 0 -1
BITMAP
00000000
00000000
08004000
0e007000
0c006000
1800c000
1800c000
31018800
31c18e00
61830c00
c1860c00
63031800
1b00d800
0e007000
06003000
0c006000
1900c800
1880c400
30c18600
60630300
c7e63f00
fc67e300
60630300
00000000
00000000
00000000
00000000
ENDCHAR
STARTCHAR 2268
ENCODING 8808
SWIDTH 962 0
DWIDTH 26 0
BBX 26 27 0 -1
BITMAP
00000000
00180000
000c0000
20080600
3fffff00
30000000
30000000
30000c00
33fffe00
30060000
30060000
30060000
30060000
30078000
3006e000
30067000
30063800
30061800
30060000
30060000
20060000
20060000
40060000
40060000
80040000
00000000
00000000
ENDCHAR
STARTCHAR 2269
ENCODING 8809
SWIDTH 962 0
DWIDTH 26 0
BBX 26 27 0 -1
BITMAP
00000000
000c0000
00060000
20040600
3fffff00
30000000
30000000
30000000
30000000
30801800
30fffc00
30c01800
30c01800
30c01800
30c01800
30c01800
30c01800
30c01800
30c01800
30c01800
20fff800
20c01000
40800000
40000000
80000000
00000000
00000000
ENDCHAR
STARTCHAR 226a
ENCODING 8810
SWIDTH 962 0
DWIDTH 26 0
BBX 26 27 0 -1
BITMAP
00000000
00000000
03000c00
ff9ffe00
0300c000
0300c000
0300c000
4300c000
7f00c000
6200c000
6000c000
c000c200
c33fff00
ff80c000
0300c000
0300c000
0300c000
0300c000
0300c000
0300c000
0300c000
0300c000
0600c000
fc00c000
18008000
00000000
00000000
ENDCHAR
STARTCHAR 226b
ENCODING 8811
SWIDTH 962 0
DWIDTH 26 0
BBX 26 27 0 -1
BITMAP
00000000
00000000
03000c00
ff9ffe00
0300c000
0300c000
0300c000
4300c000
7f00c000
6200c000
6000c200
c03fff00
c300c000
ff80c000
0300c000
0300c000
0300c000
0300c000
0300c000
0300c000
0300c000
0300c000
0600c000
fc0fc000
18018000
00000000
00000000
ENDCHAR
STARTCHAR 226c
ENCODING 8812
SWIDTH 962 0
DWIDTH 26 0
BBX 26 27 0 -1
BITMAP
00000000
00000000
00c00600
ffe7ff00
00c00600
00c00600
00c00600
40c20600
7fc3fe00
60830400
60030000
c0060000
c0c60600
ffe7ff00
00c40600
00c00600
00c00600
00c00600
00c00600
00c00600
01c00e00
01800c00
03801c00
7f07f800
06003000
00000000
00000000
ENDCHAR
STARTCHAR 226d
ENCODING 8813
SWIDTH 962 0
DWIDTH 26 0
BBX 26 27 0 -1
BITMAP
00000000
08010000
0e01c000
0c218000
18398000
10318000
20318000
44318c00
8731fe00
063f8c00
0cf18c00
0c318c00
18318800
18319800
38319000
58318000
98318000
18318200
18310200
18300200
18300200
18300300
183fff00
181ffe00
10000000
00000000
00000000
ENDCHAR
STARTCHAR 226e
ENCODING 8814
SWIDTH 962 0
DWIDTH 26 0
BBX 26 27 0 -1
BITMAP
00000000
08010000
0e01c000
0c018000
18018000
18018000
30018000
64018000
47018000
86018c00
0c3ffe00
0c018000
18018000
3e018000
2c018000
4c018000
8c018000
0c018000
0c018000
0c018000
0c018000
0c018000
0c018600
0cffff00
08000000
00000000
00000000
ENDCHAR
STARTCHAR 226f
ENCODING 8815
SWIDTH 962 0
DWIDTH 26 0
BBX 26 27 0 -1
BITMAP
00000000
00000000
00001800
3ffffc00
00601800
00601800
00601800
00c01800
00c01800
01801800
03001800
06003800
0c07f000
30006000
c0200000
02180000
038c0000
03060800
23064400
23004600
63004300
63006300
c3ffe300
c1ffc000
00000000
00000000
00000000
ENDCHAR
STARTCHAR 2270
ENCODING 8816
SWIDTH 962 0
DWIDTH 26 0
BBX 26 27 0 -1
BITMAP
00000000
10080000
1c0e0000
180c0000
180c0000
180c0600
180fff00
5c180600
5a100600
5b200600
da400600
d8080600
98060600
18030600
18018600
18018600
18000600
18000600
18000600
18000600
18000e00
18000c00
18001c00
1807f800
10003000
00000000
00000000
ENDCHAR
STARTCHAR 2271
ENCODING 8817
SWIDTH 962 0
DWIDTH 26 0
BBX 26 27 0 -1
BITMAP
00000000
00000000
00006000
0ffff000
00000000
00000000
00000000
00000000
00000600
ffffff00
00000000
00000000
00200000
00180000
020c0000
03862000
13061800
13000c00
33004600
23004700
63004300
c3006300
c3ffe000
01ffc000
00000000
00000000
00000000
ENDCHAR
STARTCHAR 2272
ENCODING 8818
SWIDTH 962 0
DWIDTH 26 0
BBX 26 27 0 -1
BITMAP
00000000
02010000
0381d000
03318c00
7ff98600
03018600
03018000
03018600
ffffff00
00018000
00018000
00018800
00018e00
00018c00
00018c00
0000d800
0000d800
0000f000
00006200
0000e200
0001b200
00031a00
000c0e00
00300700
00000300
00000000
00000000
ENDCHAR
STARTCHAR 2273
ENCODING 8819
SWIDTH 962 0
DWIDTH 26 0
BBX 26 27 0 -1
BITMAP
00000000
10000000
1c200c00
183ffe00
18300c00
18300c00
ff300c00
18300c00
18300c00
18300c00
18300c00
183ffc00
18300c00
1f300c00
f8300c00
d8300c00
18300c00
18300c00
18300c00
18300c00
18300c00
18300c00
18300c00
f830fc00
30201800
00000000
00000000
ENDCHAR
STARTCHAR 2274
ENCODING 8820
SWIDTH 962 0
DWIDTH 26 0
BBX 26 27 0 -1
BITMAP
00000000
10010000
1c01c000
18018000
18018000
18018000
ff418600
187fff00
18618600
18618600
18618600
18618600
18618600
1f618600
f8618600
d8618600
18618600
18618600
18618600
18618600
1861be00
18418c00
18018000
f8018000
30010000
00000000
00000000
ENDCHAR
STARTCHAR 2275
ENCODING 8821
SWIDTH 962 0
DWIDTH 26 0
BBX 26 27 0 -1
BITMAP
00000000
10000600
1c3fff00
18000600
18000600
19000600
ff900600
181ffe00
18180400
18180000
18300000
18300000
18300600
1f7fff00
f8200600
d8000600
18000600
18000600
18000600
18000600
18000e00
18000c00
18001c00
f803f800
30003000
00000000
00000000
ENDCHAR
STARTCHAR 2276
ENCODING 8822
SWIDTH 962 0
DWIDTH 26 0
BBX 26 27 0 -1
BITMAP
00000000
08002000
0e003800
0c003000
0c003000
0c803000
ffc03000
0c003600
0c3fff00
0c003000
0c003000
0c003000
0c083000
0f843000
fc063000
6c033000
0c033000
0c003000
0c003000
0c003000
0c003000
0c003000
0c003000
7c07f000
18006000
00000000
00000000
ENDCHAR
STARTCHAR 2277
ENCODING 8823
SWIDTH 962 0
DWIDTH 26 0
BBX 26 27 0 -1
BITMAP
00000000
00008000
4000e000
7000c000
6000c000
6000c600
603fff00
6000c000
6180c000
7fc0c000
6000cc00
603ffe00
60080c00
60080c00
60041800
60041800
60023000
60c36000
6301c000
6c01c000
78036000
30063000
000c1c00
00300f00
00c00200
00000000
00000000
ENDCHAR
STARTCHAR 2278
ENCODING 8824
SWIDTH 962 0
DWIDTH 26 0
BBX 26 27 0 -1
BITMAP
00000000
08003000
0ffff800
0c003000
0c003000
0c003000
0ffff000
0c003000
0c003000
0c003000
0ffff000
00002000
08000000
0e000000
0c000000
0c003000
0ffff800
0c000000
0c000000
0c000400
0c000400
0c000600
0ffffe00
07fffc00
00000000
00000000
00000000
ENDCHAR
STARTCHAR 2279
ENCODING 8825
SWIDTH 962 0
DWIDTH 26 0
BBX 26 27 0 -1
BITMAP
00000000
00010000
0001c000
41818000
7fc18000
61818000
61818600
61bfff00
61818600
61818600
61818600
7f818600
61818600
61818600
61818600
61830600
61830600
61860600
61860600
7f8c0600
61180600
40300600
00600e00
00c1fc00
01001800
00000000
00000000
ENDCHAR
STARTCHAR 227a
ENCODING 8826
SWIDTH 962 0
DWIDTH 26 0
BBX 26 27 0 -1
BITMAP
00000000
02000400
03800700
03010600
0301c600
03018600
03318600
7ff98600
03018600
03018600
07018600
07818600
0fc18600
0b618600
1b718600
13318600
33018600
23018600
63018600
43010600
83000600
03000600
03000600
0300fe00
02000c00
00000000
00000000
ENDCHAR
STARTCHAR 227b
ENCODING 8827
SWIDTH 962 0
DWIDTH 26 0
BBX 26 27 0 -1
BITMAP
00000000
08006000
0ffff000
0c006000
0c006000
0c006000
0c1fe000
0c00c800
0c000800
0c000c00
0ffffc00
07fff800
00100000
001c0000
00180600
ffffff00
00380000
007c0000
00db0000
0198c000
03187800
0c181f00
30180400
c0180000
00100000
00000000
00000000
ENDCHAR
STARTCHAR 227c
ENCODING 8828
SWIDTH 962 0
DWIDTH 26 0
BBX 26 27 0 -1
BITMAP
00000000
00000000
01800600
ffdfff00
18030000
18030000
18030000
19830000
1fc60000
31860600
318fff00
31840600
21800600
71800600
59800600
8d800600
07000600
03000600
06000600
06000600
0c000e00
18000c00
30001c00
6003f800
80003000
00000000
00000000
ENDCHAR
STARTCHAR 227d
ENCODING 8829
SWIDTH 962 0
DWIDTH 26 0
BBX 26 27 0 -1
BITMAP
00000000
00010000
00c1c000
ffe18000
18018000
18018000
18018000
19818000
1fc18000
31818000
31818000
3183c000
21834000
71834000
59836000
8d862000
07062000
030c3000
060c1000
06181800
0c301800
18600c00
30c00e00
61800700
86000200
00000000
00000000
ENDCHAR
STARTCHAR 227e
ENCODING 8830
SWIDTH 962 0
DWIDTH 26 0
BBX 26 27 0 -1
BITMAP
00000000
0001e000
001ff000
0ff00000
00300000
00303000
1ffff800
00300000
00301800
3ffffc00
00300200
00300200
00300300
003fff00
001ffe00
02020000
03838000
03030000
03030000
03030200
06030200
0c030300
1803ff00
3001fe00
c0000000
00000000
00000000
ENDCHAR
STARTCHAR 2321
ENCODING 8993
SWIDTH 962 0
DWIDTH 26 0
BBX 26 27 0 -1
BITMAP
00000000
0001c000
107fe000
1ff80000
18180000
18181800
1ffffc00
18180000
18180000
180c0800
18660800
19838c00
1e11fc00
0c1c7800
00180000
00180000
00180600
ffffff00
00180000
00180000
00180000
00180000
00180000
00180000
00100000
00000000
00000000
ENDCHAR
STARTCHAR 2322
ENCODING 8994
SWIDTH 962 0
DWIDTH 26 0
BBX 26 27 0 -1
BITMAP
00000000
20000000
18000600
0c7fff00
06030600
04030600
00030600
81030600
61430600
61330600
321b0600
220f0600
06070600
04030600
0c030600
08030600
18060600
70060600
300c0600
300c0600
18180e00
18300c00
18601c00
18c3f800
01007000
00000000
00000000
ENDCHAR
STARTCHAR 2323
ENCODING 8995
SWIDTH 962 0
DWIDTH 26 0
BBX 26 27 0 -1
BITMAP
00000000
10001000
0c001c00
06003800
03007000
0200c000
00018000
80860000
60980800
30800e00
19001c00
11003800
03007000
0200c000
06018000
04060000
0c180400
18000700
78000e00
18001c00
18007000
0c01c000
0c070000
0c380000
00000000
00000000
00000000
ENDCHAR
STARTCHAR 2324
ENCODING 8996
SWIDTH 962 0
DWIDTH 26 0
BBX 26 27 0 -1
BITMAP
00000000
00030000
3fff8000
01830000
01860c00
030ffe00
03040c00
06000c00
0c000c00
18001c00
3001f800
60103000
801c0000
00180800
08180c00
06181800
03343000
02324000
00630000
00c18000
0180c000
03006000
0c003800
30001f00
c0000800
00000000
00000000
ENDCHAR
STARTCHAR 2325
ENCODING 8997
SWIDTH 962 0
DWIDTH 26 0
BBX 26 27 0 -1
BITMAP
00000000
00100000
001c0000
00180000
00340000
00630000
00c18000
0180c000
03006000
06003800
0c001f00
30100c00
c01c0000
00180800
08180c00
06181800
03343000
02334000
00618000
00c0c000
01806000
03003800
0c001c00
30000e00
c0000600
00000000
00000000
ENDCHAR
STARTCHAR 2326
ENCODING 8998
SWIDTH 962 0
DWIDTH 26 0
BBX 26 27 0 -1
BITMAP
00000000
02000800
03800e00
23040c00
3b070c00
33060c00
33660c00
3ff60c00
63060c00
43060c00
83060c00
03060c00
03060c00
03f60c00
ff060c00
63060c00
03060c00
030ffc00
03040c00
03000c00
03000c00
03000c00
03000c00
03000c00
02000800
00000000
00000000
ENDCHAR
STARTCHAR 2327
ENCODING 8999
SWIDTH 962 0
DWIDTH 26 0
BBX 26 27 0 -1
BITMAP
00000000
02080000
838e0000
630c0000
360c0000
1e180600
0c1fff00
1c300600
36200600
63400600
83000600
07080600
0f060600
0b030600
1b038600
33018600
23000600
43000600
83000600
03000600
03000e00
03000c00
07001c00
7e03f800
0c003000
00000000
00000000
ENDCHAR
STARTCHAR 2328
ENCODING 9000
SWIDTH 962 0
DWIDTH 26 0
BBX 26 27 0 -1
BITMAP
00000000
04000000
87003000
6600f800
3c078000
1c7e0000
18060000
1c060000
34060000
66060000
46060000
8e060c00
0efffe00
1e060000
16060000
36060000
26060000
46060200
86060200
06060200
06060200
06060300
0e07ff00
fc03fe00
18000000
00000000
00000000
ENDCHAR
STARTCHAR 2329
ENCODING 9001
SWIDTH 962 0
DWIDTH 26 0
BBX 26 27 0 -1
BITMAP
00000000
00000800
00000e00
01880c00
ffce0c00
0c0c0c00
0c0c0c00
0c0c0c00
0c0c0c00
0c0c0c00
0d0c0c00
7f8c0c00
0c0c0c00
0c0c0c00
0c0c0c00
0c0c0c00
0c0c0c00
0c0c0c00
0c1ffc00
0fc80c00
f8000c00
60000c00
00000c00
00000c00
00000800
00000000
00000000
ENDCHAR
STARTCHAR 232a
ENCODING 9002
SWIDTH 962 0
DWIDTH 26 0
BBX 26 27 0 -1
BITMAP
00000000
00010000
00008000
02008000
ff00c000
18084000
180e4000
180c6000
180c6000
180c6000
1a0c6000
ff0c6000
180c6000
180c6000
180c2000
18183000
18183000
18183000
18301800
1f301800
f8600c00
60c00c00
00800600
01000700
02000200
00000000
00000000
ENDCHAR
STARTCHAR 232b
ENCODING 9003
SWIDTH 962 0
DWIDTH 26 0
BBX 26 27 0 -1
BITMAP
00000000
00800000
00e00000
00c00000
01800000
13001800
1ffffc00
18181800
18181800
18181800
18181800
18181800
18181800
18181800
1ffff800
18181800
18181800
18181800
18181800
18181800
18181800
18181800
1ffff800
18001000
10000000
00000000
00000000
ENDCHAR
STARTCHAR 232c
ENCODING 9004
SWIDTH 962 0
DWIDTH 26 0
BBX 26 27 0 -1
BITMAP
00000000
00004000
04007000
03006000
0180c000
01c08000
00810c00
7ffffe00
00180000
00180000
00180000
00180000
00180000
00181800
3ffffc00
00180000
00180000
00180000
00180000
00180000
00180000
00180600
ffffff00
00000000
00000000
00000000
00000000
ENDCHAR
STARTCHAR 232d
ENCODING 9005
SWIDTH 962 0
DWIDTH 26 0
BBX 26 27 0 -1
BITMAP
00000000
000c0000
01030000
01c18000
0380c000
03006000
06003000
0c001c00
18000f00
34006400
c7fff000
06006000
06006000
06706000
061c6000
060c6000
06006000
0603e000
061e6000
06f86000
0c606000
0c006000
18006000
3007e000
4000c000
00000000
00000000
ENDCHAR
STARTCHAR 232e
ENCODING 9006
SWIDTH 962 0
DWIDTH 26 0
BBX 26 27 0 -1
BITMAP
00000000
04004000
07007000
06406200
ffe7ff00
06006000
06006000
04004000
00000000
00004000
04007000
07006000
06006000
06006000
06006000
06006000
06006000
0fffe000
04006000
00006000
00006000
00006000
00006000
00006000
00004000
00000000
00000000
ENDCHAR
STARTCHAR 232f
ENCODING 9007
SWIDTH 962 0
DWIDTH 26 0
BBX 26 27 0 -1
BITMAP
00000000
04004000
07007000
06406200
ffe7ff00
06006000
04004000
00000000
0200c000
03ffe000
0300c000
0300c000
0300c000
0300c000
0300c000
0300c000
0600c000
0600c200
0400c200
0c00c200
0800c200
1000c300
2000ff00
40007e00
80000000
00000000
00000000
ENDCHAR
STARTCHAR 2330
ENCODING 9008
SWIDTH 962 0
DWIDTH 26 0
BBX 26 27 0 -1
BITMAP
00000000
00000000
00006000
41fff000
30186000
18186000
1818c000
0018c000
18198c00
fc19fe00
18190c00
18180c00
30300c00
24300c00
7e300c00
0c600c00
0c601c00
0c401800
18c03800
1887f000
31006000
fc000000
c7800000
01ffff00
007ffc00
00000000
00000000
ENDCHAR
STARTCHAR 2331
ENCODING 9009
SWIDTH 962 0
DWIDTH 26 0
BBX 26 27 0 -1
BITMAP
00000000
04020c00
0703fe00
06030c00
06030c00
06631800
fff31800
06031000
06032000
06031800
06030c00
06030600
07e30600
fe030300
66030300
06030300
06030300
06030300
06030700
06037e00
06030c00
06030000
06030000
3e030000
0c020000
00000000
00000000
ENDCHAR
STARTCHAR 2332
ENCODING 9010
SWIDTH 962 0
DWIDTH 26 0
BBX 26 27 0 -1
BITMAP
00000000
00010c00
00c1fe00
03e18c00
7e018c00
06018c00
06019800
06019000
0601a000
06019800
06018c00
06318600
fff98600
06018300
06018300
06018300
06018300
06018300
0c018700
0c01be00
18018c00
18018000
30018000
20018000
40010000
00000000
00000000
ENDCHAR
STARTCHAR 2333
ENCODING 9011
SWIDTH 962 0
DWIDTH 26 0
BBX 26 27 0 -1
BITMAP
00000000
04010c00
0701fe00
06018c00
0c018c00
0c418c00
18719800
30e19000
0cc1a000
03819800
03218c00
06398600
0c318600
18318300
31f18300
7e618300
78618300
30c18300
00c18700
0181be00
03018c00
06018000
0c018000
18018000
60010000
00000000
00000000
ENDCHAR
STARTCHAR 2334
ENCODING 9012
SWIDTH 962 0
DWIDTH 26 0
BBX 26 27 0 -1
BITMAP
00000000
43000000
7f801800
631ffc00
63018000
63018000
66018000
64018000
68018000
64018000
66018000
63018600
637fff00
61818000
61818000
61818000
61818000
63818000
7f018000
66018000
60018000
60018000
60018000
60018000
40010000
00000000
00000000
ENDCHAR
STARTCHAR 2335
ENCODING 9013
SWIDTH 962 0
DWIDTH 26 0
BBX 26 27 0 -1
BITMAP
00000000
00000600
ffffff00
00c30000
00c30000
00c30000
00c30000
40c30600
7fc3ff00
60c30600
60c30600
60c30600
60c30600
60c30600
60c30600
7fc3fe00
40c30400
00c30000
01830000
01830000
03030000
06030000
0c030000
18030000
20020000
00000000
00000000
ENDCHAR
STARTCHAR 2336
ENCODING 9014
SWIDTH 962 0
DWIDTH 26 0
BBX 26 27 0 -1
BITMAP
00000000
04020000
07038000
06030000
06030000
06230000
fff30000
06030000
06030000
06030000
06030000
06030000
7fe30000
00030000
00030000
40630000
7ff30200
60630200
60630200
60630200
60630200
60630300
7fe3ff00
6041fe00
40000000
00000000
00000000
ENDCHAR
STARTCHAR 2337
ENCODING 9015
SWIDTH 962 0
DWIDTH 26 0
BBX 26 27 0 -1
BITMAP
00000000
00300000
00180000
00100c00
7ffffe00
00800000
00e10000
01c0c000
03006000
0607f000
1ffc3000
0e003000
00000000
08208000
0e38e000
0c30c000
0c30c000
0c30c000
0c30c000
0c30c000
1830c000
1830c000
3030fe00
60307f00
80200000
00000000
00000000
ENDCHAR
STARTCHAR 2338
ENCODING 9016
SWIDTH 962 0
DWIDTH 26 0
BBX 26 27 0 -1
BITMAP
00000000
04010000
0701c000
06018000
0e018000
0c018600
0cffff00
18018000
18018000
38018000
38018c00
587ffe00
98018000
18038000
1807c000
1805a000
180db000
18199800
18318c00
18618700
18c18200
19018000
18018000
18018000
10010000
00000000
00000000
ENDCHAR
STARTCHAR 2339
ENCODING 9017
SWIDTH 962 0
DWIDTH 26 0
BBX 26 27 0 -1
BITMAP
00000000
10800000
1ce00000
18c00000
18c80600
30ceff00
30cc4600
30fe4600
67cc4600
7acc4600
b0cc4600
30cc4600
30cc4600
318c4600
31984c00
33184c00
33d82800
30303800
302c3000
30666800
30c4cc00
31818400
33030600
360c0700
28300200
00000000
00000000
ENDCHAR
STARTCHAR 233a
ENCODING 9018
SWIDTH 962 0
DWIDTH 26 0
BBX 26 27 0 -1
BITMAP
00000000
00380000
00300000
00680000
00c60000
01838000
0300e000
0c003f00
30000c00
cffff000
0c183000
0c183000
0c183000
0ffff000
0c183000
0c183000
0c183000
0ffff000
08182000
00180000
00180000
00180000
00180000
00180000
00100000
00000000
00000000
ENDCHAR
STARTCHAR 233b
ENCODING 9019
SWIDTH 962 0
DWIDTH 26 0
BBX 26 27 0 -1
BITMAP
00000000
00007800
000ffc00
10fc0000
1f880000
180e0000
180c0000
180c1800
180ffc00
180c0000
180c0000
180c0000
180c0600
1fffff00
18000000
18408000
1870e000
1860c000
1860c200
1060c200
30c0c200
20c0c300
6180ff00
43007e00
8c000000
00000000
00000000
ENDCHAR
STARTCHAR 233c
ENCODING 9020
SWIDTH 962 0
DWIDTH 26 0
BBX 26 27 0 -1
BITMAP
00000000
00400600
407fff00
20618600
30618600
18618600
10618600
02618600
027ffe00
04618600
04618600
0c618600
08618600
18618600
187ffe00
30418400
f0018000
60018000
60018000
30018000
30018000
30018000
30018000
30018000
00010000
00000000
00000000
ENDCHAR
STARTCHAR 233d
ENCODING 9021
SWIDTH 962 0
DWIDTH 26 0
BBX 26 27 0 -1
BITMAP
00000000
00000000
40400c00
207ffe00
30600c00
18600c00
10600c00
02600c00
02600c00
047ffc00
04618800
0c618000
08618000
18618c00
187ffe00
30618000
f0618000
6060c000
6060c200
30606200
30606200
30613200
30661b00
307c0f00
00300600
00000000
00000000
ENDCHAR
STARTCHAR 233e
ENCODING 9022
SWIDTH 962 0
DWIDTH 26 0
BBX 26 27 0 -1
BITMAP
00000000
01000400
01c00700
01800600
218c8600
3ffee600
318cc600
3188c600
3190c600
3180c600
3198c600
3ffcc600
3018c600
3018c600
3430c600
3230c600
3160c600
31e0c600
30c0c600
61e08600
63300600
46180600
4c1c0600
980c3e00
20000c00
00000000
00000000
ENDCHAR
STARTCHAR 233f
ENCODING 9023
SWIDTH 962 0
DWIDTH 26 0
BBX 26 27 0 -1
BITMAP
00000000
04000400
07000700
06000600
06008600
0600e600
0630c600
07f8c600
0600c600
0600c600
0600c600
0600c600
0600c600
4630c600
7ff8c600
6030c600
6030c600
6030c600
6030c600
60308600
60300600
60300600
7ff00600
60207e00
40000c00
00000000
00000000
ENDCHAR
STARTCHAR 2340
ENCODING 9024
SWIDTH 962 0
DWIDTH 26 0
BBX 26 27 0 -1
BITMAP
00000000
03800400
03000700
06c00600
06608600
0c30e600
1818c600
301cc600
600cc600
4060c600
9ff0c600
0000c600
0000c600
0018c600
7ffcc600
0018c600
0030c600
0060c600
00c0c600
19808600
07000600
01c00600
00e00600
00607e00
00000c00
00000000
00000000
ENDCHAR
STARTCHAR 2341
ENCODING 9025
SWIDTH 962 0
DWIDTH 26 0
BBX 26 27 0 -1
BITMAP
00000000
10000400
1c000700
18000600
18188600
3ffce600
3018c600
6018c600
4018c600
a198c600
3fd8c600
3198c600
3198c600
3198c600
3198c600
3198c600
3f98c600
3118c600
2018c600
00188600
00180600
00180600
00380600
07f07e00
00600c00
00000000
00000000
ENDCHAR
STARTCHAR 2342
ENCODING 9026
SWIDTH 962 0
DWIDTH 26 0
BBX 26 27 0 -1
BITMAP
00000000
00000400
00380700
21fc0600
3f308600
3330e600
3330c600
3330c600
3330c600
3330c600
3330c600
3330c600
3330c600
3330c600
3310c600
3318c600
3218c600
3298c600
3648c600
242c8600
6ce40600
6f260600
44230600
40023e00
80000c00
00000000
00000000
ENDCHAR
STARTCHAR 2343
ENCODING 9027
SWIDTH 962 0
DWIDTH 26 0
BBX 26 27 0 -1
BITMAP
00000000
02000400
03800700
03000600
03000600
03608600
3ff0e600
0300c600
0300c600
0300c600
0300c600
0330c600
7ff8c600
0300c600
0700c600
0f80c600
0b60c600
1b30c600
1318c600
330c8600
63080600
43000600
83000600
03003e00
02000c00
00000000
00000000
ENDCHAR
STARTCHAR 2344
ENCODING 9028
SWIDTH 962 0
DWIDTH 26 0
BBX 26 27 0 -1
BITMAP
00000000
08802000
0ee03800
0cc03000
0cc03000
0ccc3000
fffe3000
0ccdff00
0ccc3300
4ccc3300
7ffc3300
6cc03300
6cc03300
cccc3300
fffe3300
8ccc6300
0ccc6300
0ccc6300
0cccc300
18fcc300
18c98300
30c10300
20c20700
40c47e00
80880c00
00000000
00000000
ENDCHAR
STARTCHAR 2345
ENCODING 9029
SWIDTH 962 0
DWIDTH 26 0
BBX 26 27 0 -1
BITMAP
00000000
10010000
1c01c000
18018000
18018000
18018600
181fff00
ffc30000
18c30000
18c30000
18c60000
18c60c00
18c7fe00
18cc6000
18c86000
18d06000
18e06000
10c06000
30c06000
30c06000
20c06000
20c06000
41c06600
4f9fff00
83000000
00000000
00000000
ENDCHAR
STARTCHAR 2346
ENCODING 9030
SWIDTH 962 0
DWIDTH 26 0
BBX 26 27 0 -1
BITMAP
00000000
00010000
00c1c000
ffe18000
0c018000
0c018000
0c018000
18018600
183fff00
19818600
3fc18600
31818600
31818600
71818600
71818600
b1818600
31830600
31830600
31860600
31860600
3f8c0600
31180600
20300e00
0061fc00
00801800
00000000
00000000
ENDCHAR
STARTCHAR 2347
ENCODING 9031
SWIDTH 962 0
DWIDTH 26 0
BBX 26 27 0 -1
BITMAP
00000000
04010000
0701c000
06018000
0c018000
48c18000
7fe18600
60cfff00
60c18600
60c18600
60c18600
60c18600
60c18600
7fc18600
60c18600
60c18600
60c30600
60c30600
60c30600
60c20600
60c60600
7fc40600
60880e00
4010fc00
00201800
00000000
00000000
ENDCHAR
STARTCHAR 2348
ENCODING 9032
SWIDTH 962 0
DWIDTH 26 0
BBX 26 27 0 -1
BITMAP
00000000
00008000
400ce000
7ffec000
6000c000
6030c000
6ff8c600
6103ff00
61c0c600
6180c600
6198c600
6ffcc600
6198c600
6198c600
6198c600
6198c600
6198c600
6198c600
6318c600
63198600
66198600
4c1b0600
49f20e00
9064fc00
20081800
00000000
00000000
ENDCHAR
STARTCHAR 2349
ENCODING 9033
SWIDTH 962 0
DWIDTH 26 0
BBX 26 27 0 -1
BITMAP
00000000
00c08000
ffe0e000
40c0c000
20c0c000
3180c000
1b00c000
0e00c600
0f0fff00
1980c600
30c0c600
6070c600
8420c600
0700c600
0600c600
0640c600
7fe18600
06018600
06018600
06030600
06030600
07f60600
fc0c0e00
6018fc00
00201800
00000000
00000000
ENDCHAR
STARTCHAR 234a
ENCODING 9034
SWIDTH 962 0
DWIDTH 26 0
BBX 26 27 0 -1
BITMAP
00000000
40000c00
7ffffe00
60000000
60000000
61003000
61fff800
61803000
61803000
61803000
61803000
61803000
61fff000
61002000
60408000
60706000
60e03000
61c01800
63000c00
64000800
60000000
60000600
ffffff00
40000000
00000000
00000000
00000000
ENDCHAR
STARTCHAR 234b
ENCODING 9035
SWIDTH 962 0
DWIDTH 26 0
BBX 26 27 0 -1
BITMAP
00000000
40000c00
7ffffe00
60000000
60430000
6070c000
60606000
60c03000
61801800
63001c00
66000c00
68806000
60fff000
60c06000
60c06000
60c06000
60c06000
60c06000
60ffe000
60804000
60000000
60000600
ffffff00
40000000
00000000
00000000
00000000
ENDCHAR
STARTCHAR 234c
ENCODING 9036
SWIDTH 962 0
DWIDTH 26 0
BBX 26 27 0 -1
BITMAP
00000000
00008000
0030e000
fff8c000
0c30c000
0c30c000
0c30c000
1830c000
1830f000
3030dc00
2070ce00
47e0c700
80c0c300
0000c000
4030c000
7ff8c000
6030c000
6030c000
6030c000
6030c000
6030c000
6030c000
7ff0c000
6020c000
40008000
00000000
00000000
ENDCHAR
STARTCHAR 234d
ENCODING 9037
SWIDTH 962 0
DWIDTH 26 0
BBX 26 27 0 -1
BITMAP
00000000
00100000
001c0000
00180000
00181800
001ffc00
00180000
00180000
20180c00
3ffffe00
30010c00
3001cc00
33038c00
30c30c00
30360c00
301c0c00
30360c00
30630c00
30c18c00
3180cc00
3600cc00
30000c00
3ffffc00
30000c00
20000800
00000000
00000000
ENDCHAR
STARTCHAR 234e
ENCODING 9038
SWIDTH 962 0
DWIDTH 26 0
BBX 26 27 0 -1
BITMAP
00000000
00000000
08210600
0439ff00
06318600
03318600
03318600
10618600
1c618600
18618600
18c18600
18c18600
58d18600
59898600
598d8600
db0d8600
db058600
de218600
1e21be00
1c218c00
18318000
1ff18000
37e18000
60018000
80010000
00000000
00000000
ENDCHAR
STARTCHAR 234f
ENCODING 9039
SWIDTH 962 0
DWIDTH 26 0
BBX 26 27 0 -1
BITMAP
00000000
00100000
001c0000
00180600
ffffff00
00180000
08183000
0ffff800
0c183000
0c183000
0c183000
0ffff000
08182000
00180000
00186000
1ffff000
02006000
0180c000
00c18000
00630000
003e0000
00e38000
0380f000
1c003f00
e0000c00
00000000
00000000
ENDCHAR
STARTCHAR 2350
ENCODING 9040
SWIDTH 962 0
DWIDTH 26 0
BBX 26 27 0 -1
BITMAP
00000000
10001800
1ffffc00
18001800
18019800
19ffd800
19819800
19819800
19ff9800
19801800
19801800
18ffd800
10001000
00000000
00006000
0ffff000
01006000
0080c000
00618000
00360000
001e0000
00738000
0380f000
1c003f00
e0001800
00000000
00000000
ENDCHAR
STARTCHAR 2351
ENCODING 9041
SWIDTH 962 0
DWIDTH 26 0
BBX 26 27 0 -1
BITMAP
00000000
00010000
0001c000
43018000
7f818000
63218600
633fff00
63618600
63618400
63618800
63018000
63018000
63018000
63036000
63036000
63036000
63066000
63066200
7f0c6200
620c6200
40186200
00306300
00607f00
00c03e00
03000000
00000000
00000000
ENDCHAR
STARTCHAR 2352
ENCODING 9042
SWIDTH 962 0
DWIDTH 26 0
BBX 26 27 0 -1
BITMAP
00000000
00000000
00000600
433fff00
7f80c000
6300c000
6300c000
6310c600
631fff00
6318c600
6318c600
6318c600
6318c600
6318c600
6318c600
6318c600
6318c600
6318c600
7f18c600
6218c600
4018de00
0010c400
0000c000
0000c000
00008000
00000000
00000000
ENDCHAR
STARTCHAR 2353
ENCODING 9043
SWIDTH 962 0
DWIDTH 26 0
BBX 26 27 0 -1
BITMAP
00000000
00003800
0001fc00
433f0000
7f830000
63030000
63030000
63031800
637ffc00
63030000
63030000
63030000
63030000
63030600
63ffff00
63030000
63030000
63030200
7f030200
62030200
40030200
00030300
0003ff00
0001fe00
00000000
00000000
00000000
ENDCHAR
STARTCHAR 2354
ENCODING 9044
SWIDTH 962 0
DWIDTH 26 0
BBX 26 27 0 -1
BITMAP
00000000
00001c00
0000fe00
433f8000
7f818000
63018000
63018000
63018000
63018000
63018600
637fff00
63018000
63034000
63034000
63034000
63066000
63062000
630c3000
7f0c3000
62181800
40301800
00600c00
00c00e00
01800700
06000200
00000000
00000000
ENDCHAR
STARTCHAR 2355
ENCODING 9045
SWIDTH 962 0
DWIDTH 26 0
BBX 26 27 0 -1
BITMAP
00000000
00100000
001c0000
43180000
7f980600
631fff00
63300600
63200600
63440600
63070600
63060600
63060600
630c0600
630c0600
63188600
63184600
63306600
6363b600
7f7c3600
62303600
40000600
00000600
00000e00
0001fc00
00001800
00000000
00000000
ENDCHAR
STARTCHAR 2356
ENCODING 9046
SWIDTH 962 0
DWIDTH 26 0
BBX 26 27 0 -1
BITMAP
00000000
00018000
00004000
43084000
7f8e2000
630c3000
63181800
63101c00
63200e00
63400700
63bffa00
63060000
63060000
630c0000
630c1800
631ffc00
63081800
63001800
7f001800
62001800
40001800
00001800
00003800
0007f000
00006000
00000000
00000000
ENDCHAR
STARTCHAR 2357
ENCODING 9047
SWIDTH 962 0
DWIDTH 26 0
BBX 26 27 0 -1
BITMAP
00000000
00001c00
0010fe00
431f8000
7f980000
63180000
63180600
631fff00
63180600
63180600
63180600
63180600
63180600
631ffe00
63180400
63180000
63180000
7f300000
62300000
40600000
00600000
00c00000
01800000
03000000
04000000
00000000
00000000
ENDCHAR
STARTCHAR 2358
ENCODING 9048
SWIDTH 962 0
DWIDTH 26 0
BBX 26 27 0 -1
BITMAP
00000000
00000000
00200600
433fff00
7fb00000
63300000
63300000
63300c00
633ffe00
63320c00
63320c00
63320c00
63320c00
63330c00
63311800
63311800
6331b000
6330f000
7f606000
6260e000
4041b000
00c31800
00860c00
010c0700
02300200
00000000
00000000
ENDCHAR
STARTCHAR 2359
ENCODING 9049
SWIDTH 962 0
DWIDTH 26 0
BBX 26 27 0 -1
BITMAP
00000000
00004000
00083000
860e1800
ff1c0c00
c6180600
c6300700
c6600300
c6401000
c6901c00
c6101800
c6181800
c6083000
c60c3000
c6046000
c606c000
c6038000
c6038000
fe06c000
c40c6000
80183000
00301800
00600e00
01800700
06000200
00000000
00000000
ENDCHAR
STARTCHAR 235a
ENCODING 9050
SWIDTH 962 0
DWIDTH 26 0
BBX 26 27 0 -1
BITMAP
00000000
0001e000
103ff000
1ffc0000
180c0000
180c0000
180c1800
1ffffc00
18060000
18030800
18018800
18e0c800
1b806c00
1e003c00
0c001800
00000000
0ffff000
0c003000
0c003000
0c003000
0c003000
0c003000
0ffff000
0c002000
08000000
00000000
00000000
ENDCHAR
STARTCHAR 235b
ENCODING 9051
SWIDTH 962 0
DWIDTH 26 0
BBX 26 27 0 -1
BITMAP
00000000
00000000
08003000
0ffff800
0c003000
0c003000
0c003000
0c003000
0ffff000
08002000
00000000
00003000
1ffff800
00180000
00180000
00180000
00186000
0ffff000
00180000
00180000
00180000
00180000
00180600
ffffff00
00000000
00000000
00000000
ENDCHAR
STARTCHAR 235c
ENCODING 9052
SWIDTH 962 0
DWIDTH 26 0
BBX 26 27 0 -1
BITMAP
00000000
00000000
00000c00
007ffe00
860c3000
ff0c3000
c60c3000
c60c3000
c60c3000
c60c3000
c60c3000
c60c3600
c6ffff00
c60c3000
c60c3000
c60c3000
c60c3000
fe0c3000
c40c3000
80183000
00183000
00303000
00603000
00c03000
01002000
00000000
00000000
ENDCHAR
STARTCHAR 235d
ENCODING 9053
SWIDTH 962 0
DWIDTH 26 0
BBX 26 27 0 -1
BITMAP
00000000
02040000
03870000
07060000
06060000
0c060c00
1e07fe00
36060000
46060000
86060200
06060200
06060300
0607ff00
0603fe00
04000000
08003000
0ffff800
0c003000
0c003000
0c003000
0c003000
0c003000
0c003000
0ffff000
08002000
00000000
00000000
ENDCHAR
STARTCHAR 235e
ENCODING 9054
SWIDTH 962 0
DWIDTH 26 0
BBX 26 27 0 -1
BITMAP
00000000
10102000
1c1c3800
18183000
18183000
18183000
18183000
1afffe00
ff183000
18183000
18183000
18183000
18183000
18183200
19ffff00
18183000
18183000
18183000
18183000
1f303000
f0303000
60603000
00403000
00803000
01002000
00000000
00000000
ENDCHAR
STARTCHAR 235f
ENCODING 9055
SWIDTH 962 0
DWIDTH 26 0
BBX 26 27 0 -1
BITMAP
00000000
00040000
10030000
1c010000
18018000
18418600
187fff00
18618600
18618600
ff618600
18634600
18634600
18626600
18662600
18643600
186c3600
18681e00
18701600
1f600600
f8600600
60600600
00600600
00600600
00607e00
00400c00
00000000
00000000
ENDCHAR
STARTCHAR 2360
ENCODING 9056
SWIDTH 962 0
DWIDTH 26 0
BBX 26 27 0 -1
BITMAP
00000000
00001800
3ffffc00
0c180000
0c180000
0c180c00
1ffffe00
08360000
00660200
00c60200
01860300
0607ff00
1803fe00
e0100000
001c0000
00180000
00183000
1ffff800
00180000
00180000
00180000
00180000
00180600
ffffff00
00000000
00000000
00000000
ENDCHAR
STARTCHAR 2361
ENCODING 9057
SWIDTH 962 0
DWIDTH 26 0
BBX 26 27 0 -1
BITMAP
00000000
00000c00
7ffffe00
04081000
070e1c00
060c1800
0c183000
18306000
30418000
1830c000
0c183000
060c1800
03060c00
02040800
00100000
001c0000
00180000
00181800
3ffffc00
00180000
00180000
00180000
00180600
ffffff00
00000000
00000000
00000000
ENDCHAR
STARTCHAR 2362
ENCODING 9058
SWIDTH 962 0
DWIDTH 26 0
BBX 26 27 0 -1
BITMAP
00000000
00400000
00700000
00600600
ffffff00
00c20000
01818000
03006000
06003800
0c001f00
30000c00
cffff000
0c183000
0c183000
0c183000
0c183000
0ffff000
0c000000
0c000400
0c000400
0c000400
0c000600
0ffffe00
07fffc00
00000000
00000000
00000000
ENDCHAR
STARTCHAR 2363
ENCODING 9059
SWIDTH 962 0
DWIDTH 26 0
BBX 26 27 0 -1
BITMAP
00000000
00400000
00700000
00600600
ffffff00
00c10000
0180c000
03007000
0c101f00
301c0c00
c0180000
00181800
3ffffc00
00180000
08182000
0e183800
0c183000
0c183000
1ffff000
08182400
00180400
00180600
001ffe00
000ffc00
00000000
00000000
00000000
ENDCHAR
STARTCHAR 2364
ENCODING 9060
SWIDTH 962 0
DWIDTH 26 0
BBX 26 27 0 -1
BITMAP
00000000
00200000
00380000
00300600
ffffff00
00620000
00c18000
01906000
031c3800
0c380e00
30760600
c0c18000
01806000
03003800
0d010f00
31c1c600
c1818200
01818000
01818000
01818000
03018000
03018000
06018000
04018000
08010000
00000000
00000000
ENDCHAR
STARTCHAR 2365
ENCODING 9061
SWIDTH 962 0
DWIDTH 26 0
BBX 26 27 0 -1
BITMAP
00000000
00100000
001c0000
00180000
00180600
ffffff00
00180000
00180000
10188000
08184000
04182000
0e187000
0b185800
11988c00
21b50c00
40340000
00620000
00630000
00c18000
0180c000
03006000
06003000
0c001c00
30000f00
c0000400
00000000
00000000
ENDCHAR
STARTCHAR 2366
ENCODING 9062
SWIDTH 962 0
DWIDTH 26 0
BBX 26 27 0 -1
BITMAP
00000000
00100000
001c0000
00380000
00300600
ffffff00
00c10000
0180c000
03006000
0c003800
30000f00
cffff400
00c00000
00c18000
00ffc000
01818000
01818000
03018000
03018000
07ff8000
02030000
00030000
00031800
3ffffc00
00000000
00000000
00000000
ENDCHAR
STARTCHAR 2367
ENCODING 9063
SWIDTH 962 0
DWIDTH 26 0
BBX 26 27 0 -1
BITMAP
00000000
20008000
3800e000
3200c000
3300c000
3300c400
ff9ffe00
f300c000
3300c000
3300c000
3300c000
3300c200
333fff00
6300c000
6600c000
6601a000
f601a000
5c033000
0e031000
1b061800
13840800
21880c00
40100600
80200700
00400200
00000000
00000000
ENDCHAR
STARTCHAR 2368
ENCODING 9064
SWIDTH 962 0
DWIDTH 26 0
BBX 26 27 0 -1
BITMAP
00000000
00000000
01820000
ffc38800
31830e00
31830c00
31830c00
319fff00
31830c00
31830c00
31830c00
ffe60c00
31860c00
31861800
318c1800
319f3000
3189f000
31806000
3180f000
3180d800
31818c00
31830600
ffe60700
000c0300
00300000
00000000
00000000
ENDCHAR
STARTCHAR 2369
ENCODING 9065
SWIDTH 962 0
DWIDTH 26 0
BBX 26 27 0 -1
BITMAP
00000000
20000000
38100600
301fff00
3318c600
3318c600
ff98c600
f318c600
3318c600
3318c600
3318c600
3318c600
331ffe00
63180400
66180000
66180000
f6180000
5c180200
0e180200
1b180200
13980200
21980300
401fff00
800ffe00
00000000
00000000
00000000
ENDCHAR
STARTCHAR 236a
ENCODING 9066
SWIDTH 962 0
DWIDTH 26 0
BBX 26 27 0 -1
BITMAP
00000000
20008000
3800e000
3000c000
3200c000
3310c600
331fff00
ff98c600
f318c600
3318c600
3318c600
3318c600
6318c600
6318c600
631ffe00
e618c400
5610c000
0c00c000
0e00c000
1b00c000
1980c000
3100c000
6000c000
8000c000
00008000
00000000
00000000
ENDCHAR
STARTCHAR 236b
ENCODING 9067
SWIDTH 962 0
DWIDTH 26 0
BBX 26 27 0 -1
BITMAP
00000000
20083000
380ff800
300c3000
320c3000
330c3000
330c3000
ff8c3000
f3183e00
33181f00
33300000
33401800
631ffc00
63041800
63041800
e6061800
56023000
0c033000
0e01e000
1b00c000
1981e000
31033000
60061c00
80180f00
00600400
00000000
00000000
ENDCHAR
STARTCHAR 236c
ENCODING 9068
SWIDTH 962 0
DWIDTH 26 0
BBX 26 27 0 -1
BITMAP
00000000
00004000
0700f000
00e1c000
003f0000
000e0000
007bc000
03c0f000
1e203000
00380000
00600600
ffffff00
00c00000
01806000
037ff000
0600c000
0c018000
30070000
c0060c00
0ffffe00
00060000
00060000
00060000
007e0000
000c0000
00000000
00000000
ENDCHAR
STARTCHAR 236d
ENCODING 9069
SWIDTH 962 0
DWIDTH 26 0
BBX 26 27 0 -1
BITMAP
00000000
01800000
ffc00c00
019ffe00
03000c00
06041800
04033000
0c01c000
0c00c000
0c008600
0c3fff00
0f00c600
3c00c600
ec00c400
4c00c800
0c00c000
0c00c000
0c00c000
0c00c000
0c00c000
0c00c000
0c00c000
0c00c000
7c0fc000
18018000
00000000
00000000
ENDCHAR
STARTCHAR 236e
ENCODING 9070
SWIDTH 962 0
DWIDTH 26 0
BBX 26 27 0 -1
BITMAP
00000000
00300000
00180000
20100600
3fffff00
60000600
c0000400
40000800
3ffffc00
00180000
00180000
08181800
0e1ffc00
0c181800
0c181800
0c181800
1ffff800
08001800
00001800
00001800
00003800
00003000
00007000
001fe000
0000c000
00000000
00000000
ENDCHAR
STARTCHAR 236f
ENCODING 9071
SWIDTH 962 0
DWIDTH 26 0
BBX 26 27 0 -1
BITMAP
00000000
00300000
00180000
20100600
3fffff00
60000600
e0100400
c01c8000
00186000
00183000
00182000
00180400
7ffffe00
00180000
00340000
00360000
00620000
00630000
00c18000
0180c000
03006000
06003000
0c001c00
30000f00
c0000400
00000000
00000000
ENDCHAR
STARTCHAR 2370
ENCODING 9072
SWIDTH 962 0
DWIDTH 26 0
BBX 26 27 0 -1
BITMAP
00000000
00300000
00180000
20080600
3fffff00
60080600
e00e0400
401c0800
00320000
00618000
00c0c000
03007000
0d011f00
31c1cc00
c1818000
01818000
01818000
01818000
01818000
03018000
03018000
06018000
0c018000
18018000
20010000
00000000
00000000
ENDCHAR
STARTCHAR 2371
ENCODING 9073
SWIDTH 962 0
DWIDTH 26 0
BBX 26 27 0 -1
BITMAP
00000000
00002000
01803800
3fc03000
00003000
00003000
00003600
001fff00
00003000
00603000
fff03000
19843000
19823000
19833000
19823000
19803000
19803000
19803200
3183f200
31806200
31800200
21800300
61ffff00
40fffe00
80000000
00000000
00000000
ENDCHAR
STARTCHAR 2372
ENCODING 9074
SWIDTH 962 0
DWIDTH 26 0
BBX 26 27 0 -1
BITMAP
00000000
00100000
001c0000
04180000
07186000
0e183000
0c181800
18180c00
30180e00
60180600
80100000
00000000
00100000
001c0000
20181000
18181800
0c343000
06342000
04624000
00c18000
0180c000
03006000
06003800
18001f00
e0000800
00000000
00000000
ENDCHAR
STARTCHAR 2373
ENCODING 9075
SWIDTH 962 0
DWIDTH 26 0
BBX 26 27 0 -1
BITMAP
00000000
04004000
07007000
06006000
06006000
06006200
062fff00
fff06000
0d80e000
0d80f000
0d81e800
0d836800
0d836400
09866600
19846300
19886200
19906000
11806000
31806200
31806200
21804200
61800300
41ffff00
40fffe00
80000000
00000000
00000000
ENDCHAR
STARTCHAR 2374
ENCODING 9076
SWIDTH 962 0
DWIDTH 26 0
BBX 26 27 0 -1
BITMAP
00000000
08000000
0e000000
0c010000
0c01c000
0c018000
0c018800
ffe18c00
1b019800
1b7db000
1b0dc000
1b0da000
1b0db000
1b199800
1b198c00
1b318e00
1b218400
1b418000
130f8200
33030200
23000200
23000300
43ffff00
41fffe00
80000000
00000000
00000000
ENDCHAR
STARTCHAR 2375
ENCODING 9077
SWIDTH 962 0
DWIDTH 26 0
BBX 26 27 0 -1
BITMAP
00000000
00100000
001c0000
10181000
1c181c00
18181800
18301800
3ffff800
10601000
00c00000
01800000
03000000
0c0c0000
70060000
00040c00
7ffffe00
00000000
01018000
01c06000
03803000
07001800
0c000c00
18000e00
30000600
40000000
00000000
00000000
ENDCHAR
STARTCHAR 2376
ENCODING 9078
SWIDTH 962 0
DWIDTH 26 0
BBX 26 27 0 -1
BITMAP
00000000
00100000
001c0000
10181000
1c181c00
18181800
18301800
3ffff800
10c01000
01800000
06001800
3ffffc00
00180000
00180000
00180000
00180000
00183000
1ffff800
00180000
00180000
00180000
00180000
00180600
ffffff00
00000000
00000000
00000000
ENDCHAR
STARTCHAR 2377
ENCODING 9079
SWIDTH 962 0
DWIDTH 26 0
BBX 26 27 0 -1
BITMAP
00000000
00100000
101c1000
1c181c00
18181800
18181800
3ffff800
10301000
00600000
01860000
04018000
0700c000
0c006000
18003000
30001c00
6fffef00
80c06600
00c06000
00c06000
01806000
03006000
06006000
0c00e000
301fc000
c0018000
00000000
00000000
ENDCHAR
STARTCHAR 2378
ENCODING 9080
SWIDTH 962 0
DWIDTH 26 0
BBX 26 27 0 -1
BITMAP
00000000
08080000
0e0e0000
0c0c0000
0c0c0c00
0c0ffe00
4c8cc000
4cd8c000
4c90c000
4ca0c000
4c80c000
4c80c000
4c80c600
4cbfff00
4c80c000
4c80c000
4c80c000
4c80c000
4c80c000
4c80c000
7f80c000
4080c000
0000c000
0000c000
00008000
00000000
00000000
ENDCHAR
STARTCHAR 2379
ENCODING 9081
SWIDTH 962 0
DWIDTH 26 0
BBX 26 27 0 -1
BITMAP
00000000
00100000
001c0000
10181000
1c181c00
18181800
18181800
3ffff800
10001000
00000000
00000000
08003000
0ffff800
0c003000
0c003000
0c003000
0c003000
0ffff000
0c003000
0c003000
0c003000
0c003000
0ffff000
0c002000
08000000
00000000
00000000
ENDCHAR
STARTCHAR 237a
ENCODING 9082
SWIDTH 962 0
DWIDTH 26 0
BBX 26 27 0 -1
BITMAP
00000000
00100000
001c0000
10181000
1c181c00
18181800
18181800
3ffff800
10001000
00000000
00c40c00
23e7fe00
3c060c00
30060c00
30060c00
30060c00
30060c00
30060c00
30660c00
31c60c00
3f060c00
3c06fc00
18061800
00060000
00040000
00000000
00000000
ENDCHAR
STARTCHAR 237b
ENCODING 9083
SWIDTH 962 0
DWIDTH 26 0
BBX 26 27 0 -1
BITMAP
00000000
00100000
101c1000
1c181c00
18181800
18181800
3ffff800
10001000
00400000
00300000
00180000
00103000
3ffff800
00007000
0000e000
00038000
00070000
001c0000
00700000
01c00000
07000000
3e000000
33c00000
00ffff00
003ffc00
00000000
00000000
ENDCHAR
STARTCHAR 237c
ENCODING 9084
SWIDTH 962 0
DWIDTH 26 0
BBX 26 27 0 -1
BITMAP
00000000
04010000
0701c000
06018000
06018000
06018800
06118e00
46498c00
76699800
664d9000
6645a000
66458000
66418000
6641c000
66434000
66436000
66432000
66463000
66461000
664c1000
ffcc1800
40580c00
00300e00
00600700
01800200
00000000
00000000
ENDCHAR
STARTCHAR 237d
ENCODING 9085
SWIDTH 962 0
DWIDTH 26 0
BBX 26 27 0 -1
BITMAP
00000000
00100000
101c1000
1c181c00
18181800
18181800
3ffff800
10001000
00000000
0001e000
101ff000
1ff00000
18000000
18000000
18000c00
1ffffe00
18030000
18030000
18030000
10030000
30030000
20030000
60030000
40030000
80020000
00000000
00000000
ENDCHAR
STARTCHAR 237e
ENCODING 9086
SWIDTH 962 0
DWIDTH 26 0
BBX 26 27 0 -1
BITMAP
00000000
10001800
1ffffc00
18001800
18001800
18001800
1ffff800
18001800
18001800
18001800
1ffff800
10001000
00000000
08102000
0e1c3800
0c183000
18306000
3060c000
60c18000
3060c000
18306000
0c183000
0c183000
060c1800
04081000
00000000
00000000
ENDCHAR
STARTCHAR 2421
ENCODING 9249
SWIDTH 962 0
DWIDTH 26 0
BBX 26 27 0 -1
BITMAP
00000000
10008000
1c00e000
1800c000
1800c000
9908d000
ff8ec800
990cc400
9918c600
9918c300
9930c300
9920c000
9940c400
9900c700
9900ce00
99008c00
99001800
99003000
99006000
9f00c000
98018000
18030000
180c0000
18300000
10c00000
00000000
00000000
ENDCHAR
STARTCHAR 2422
ENCODING 9250
SWIDTH 962 0
DWIDTH 26 0
BBX 26 27 0 -1
BITMAP
00000000
08000000
0e001800
0c3ffc00
0c0c1800
4c8c1800
7fcc1800
4c8c3000
4c8c3000
4c8c3600
4c8fff00
4c8d0600
4c8d0600
4c8d0600
4c8d8c00
4c8c8c00
4c8c9800
4c98d800
4c987000
4f906000
4d30f000
0c219800
0c630c00
0c460700
08980200
00000000
00000000
ENDCHAR
STARTCHAR 2423
ENCODING 9251
SWIDTH 962 0
DWIDTH 26 0
BBX 26 27 0 -1
BITMAP
00000000
0000f800
100ffc00
1ff80000
18000000
18000c00
1ffffe00
18000c00
18000c00
18000c00
1ffffc00
18060000
18060000
1a060c00
1bfffe00
1b060c00
1b060c00
1b060c00
33060c00
33060c00
23060c00
6306fc00
42061800
80060000
00040000
00000000
00000000
ENDCHAR
STARTCHAR 2424
ENCODING 9252
SWIDTH 962 0
DWIDTH 26 0
BBX 26 27 0 -1
BITMAP
00000000
10020000
1c038000
18030000
18030000
99033000
ffbff800
99030000
99030000
99030000
99030000
99030c00
997ffe00
99068000
99068000
9906c000
990cc000
9f0c6000
9a186000
18183000
18303800
18601c00
18c00e00
18800700
11000200
00000000
00000000
ENDCHAR
STARTCHAR 2425
ENCODING 9253
SWIDTH 962 0
DWIDTH 26 0
BBX 26 27 0 -1
BITMAP
00000000
00100000
001c1000
20181c00
18181800
0c183000
06186000
03184000
02188000
20180c00
3ffffe00
30180c00
30980c00
30fa0c00
30d90c00
31998c00
3198cc00
3318ec00
36186c00
34186c00
38180c00
30180c00
30180c00
3018fc00
20101800
00000000
00000000
ENDCHAR
STARTCHAR 2426
ENCODING 9254
SWIDTH 962 0
DWIDTH 26 0
BBX 26 27 0 -1
BITMAP
00000000
00001800
3ffffc00
00180000
00180000
00180600
ffffff00
00180000
00180000
10181800
1ffffc00
18181800
18181800
18181800
1ffff800
18181800
18181800
18181800
1ffff800
10181000
00180000
00180000
00180000
00180000
00100000
00000000
00000000
ENDCHAR
STARTCHAR 2427
ENCODING 9255
SWIDTH 962 0
DWIDTH 26 0
BBX 26 27 0 -1
BITMAP
00000000
00008000
0800e000
0e00c000
0c00c000
1800c000
1808c800
310ec400
31ccc600
618cc300
c198c300
e318c300
3330c000
1e20c400
0640c700
0c00ce00
19008c00
18801800
30c03000
60606000
c7e0c000
fc618000
60430000
000c0000
00300000
00000000
00000000
ENDCHAR
STARTCHAR 2428
ENCODING 9256
SWIDTH 962 0
DWIDTH 26 0
BBX 26 27 0 -1
BITMAP
00000000
00180000
000c0000
20040600
3fffff00
30040000
30070000
30060000
300d0000
3018c000
30306000
30603000
30c01c00
31a04f00
33386200
3c306000
30306000
30306000
30306000
30206000
20606000
20406000
40806000
41006000
82004000
00000000
00000000
ENDCHAR
STARTCHAR 2429
ENCODING 9257
SWIDTH 962 0
DWIDTH 26 0
BBX 26 27 0 -1
BITMAP
00000000
00008000
0000e000
0600c000
ff00c000
0600c000
0610c000
0c1cc000
1818c400
3018fe00
7e18c000
2618c000
0618c000
0618c000
0618c000
0618c000
8618c000
6c18c600
3cffff00
18000000
1e000000
37800000
21ffff00
407ffe00
80000000
00000000
00000000
ENDCHAR
STARTCHAR 242a
ENCODING 9258
SWIDTH 962 0
DWIDTH 26 0
BBX 26 27 0 -1
BITMAP
00000000
00700000
00603000
00fff800
01c03000
03306000
0c18c000
330d8000
01860000
00580000
00e00000
07000000
78008000
0200e000
0380c000
0300c000
0300c600
ffffff00
0300c000
0600c000
0600c000
0c00c000
1800c000
3000c000
c0008000
00000000
00000000
ENDCHAR
STARTCHAR 242b
ENCODING 9259
SWIDTH 962 0
DWIDTH 26 0
BBX 26 27 0 -1
BITMAP
00000000
00810000
20e1c000
38c19000
30c18800
30c18c00
30c18400
30c18000
30dfff00
30c18000
7fc18000
20c18000
00c18000
00c18000
3fc18000
30c0c000
30c0c000
30c0c200
30c06200
30c06200
30c03200
20c01a00
60c00f00
40c00700
80800200
00000000
00000000
ENDCHAR
STARTCHAR 242c
ENCODING 9260
SWIDTH 962 0
DWIDTH 26 0
BBX 26 27 0 -1
BITMAP
00000000
08000000
0e000600
0cffff00
18018000
10018000
20018000
44018000
87018000
06018000
0c018000
0c018400
187ffe00
18018000
38018000
58018000
98018000
18018000
18018000
18018000
18018000
18018600
18ffff00
18000000
10000000
00000000
00000000
ENDCHAR
STARTCHAR 242d
ENCODING 9261
SWIDTH 962 0
DWIDTH 26 0
BBX 26 27 0 -1
BITMAP
00000000
10010000
1c01c000
18018000
18018000
18018c00
1c7ffe00
5a018000
5b018000
5b018000
d8018000
d8018000
d8018200
18ffff00
18018000
18034000
18034000
18062000
18062000
180c1000
18181800
18300c00
18600e00
18c00700
13000200
00000000
00000000
ENDCHAR
STARTCHAR 242e
ENCODING 9262
SWIDTH 962 0
DWIDTH 26 0
BBX 26 27 0 -1
BITMAP
00000000
10010000
1c01c000
18018000
18018600
18ffff00
1c018000
5a018000
5b418600
5b7fff00
d8618600
d8618600
d8618600
18618600
18618600
18618600
18618600
18618600
18618600
1861be00
18418c00
18018000
18018000
18018000
10010000
00000000
00000000
ENDCHAR
STARTCHAR 242f
ENCODING 9263
SWIDTH 962 0
DWIDTH 26 0
BBX 26 27 0 -1
BITMAP
00000000
10000000
1c100c00
181ffe00
18186000
18186000
1c186000
5a186000
5b306000
5b306000
d8306600
d87fff00
d820e000
1801e000
18016000
18036000
18066000
180c6000
18186000
18306000
18606000
18c06000
19006000
1807e000
1000c000
00000000
00000000
ENDCHAR
STARTCHAR 2430
ENCODING 9264
SWIDTH 962 0
DWIDTH 26 0
BBX 26 27 0 -1
BITMAP
00000000
10000000
1c400600
187fff00
18600000
18600000
1c600000
5a600000
5b600c00
5a7ffe00
d8640c00
d8640c00
98640c00
18641800
18621800
18623000
18613000
1861e000
1840c000
18c1e000
18833000
19061800
1a0c0c00
18300700
10c00200
00000000
00000000
ENDCHAR
STARTCHAR 2431
ENCODING 9265
SWIDTH 962 0
DWIDTH 26 0
BBX 26 27 0 -1
BITMAP
00000000
00800000
00e08000
00c0e000
00c0c600
7fffff00
0180c000
03018000
06018000
0ff30000
040e0000
0019c000
00607000
03803800
3c001800
00300000
020c0000
03862000
13061800
33004c00
33004e00
63006600
e3ffe600
c1ffc000
00000000
00000000
00000000
ENDCHAR
STARTCHAR 2432
ENCODING 9266
SWIDTH 962 0
DWIDTH 26 0
BBX 26 27 0 -1
BITMAP
00000000
10001000
1c601c00
18183000
18066000
1803c000
1c066000
5a0c3000
5b301800
5ac01800
d8000000
d8001000
98201c00
98101800
18183000
180c6000
1806c000
18038000
18038000
1806c000
180c6000
18183000
18301c00
18c00f00
13000600
00000000
00000000
ENDCHAR
STARTCHAR 2433
ENCODING 9267
SWIDTH 962 0
DWIDTH 26 0
BBX 26 27 0 -1
BITMAP
00000000
10003800
1c01fc00
180f0000
18f30000
18030000
1c030000
5a030000
5b030000
da030000
d8030600
99ffff00
18068000
18068000
1806c000
180c4000
180c6000
18182000
18183000
18301000
18601800
18c00c00
19800e00
1b000700
14000200
00000000
00000000
ENDCHAR
STARTCHAR 2434
ENCODING 9268
SWIDTH 962 0
DWIDTH 26 0
BBX 26 27 0 -1
BITMAP
00000000
0001c000
207ff000
3fc00000
30000c00
3ffffe00
30000c00
30000c00
30000c00
3ffffc00
30000000
32001800
33fffc00
33001800
33001800
33001800
33fff800
33001000
33000400
23000400
63000400
43000600
43fffe00
81fffc00
00000000
00000000
00000000
ENDCHAR
STARTCHAR 2435
ENCODING 9269
SWIDTH 962 0
DWIDTH 26 0
BBX 26 27 0 -1
BITMAP
00000000
10010000
1c01c000
18018000
18018c00
187ffe00
ff018000
18018000
18018000
18018000
18018800
183ffc00
18018000
1f018000
f8018000
d8018000
18018200
18ffff00
18018000
18018000
18018000
18018000
18018000
f8018000
30010000
00000000
00000000
ENDCHAR
STARTCHAR 2436
ENCODING 9270
SWIDTH 962 0
DWIDTH 26 0
BBX 26 27 0 -1
BITMAP
00000000
10010000
1c01c000
18018000
18018200
187fff00
ff018000
18018000
18018000
18218c00
183ffe00
18318c00
18318c00
1f318c00
f8318c00
d8318c00
18318c00
18318c00
18318c00
18318c00
1831fc00
18218800
18018000
f8018000
30010000
00000000
00000000
ENDCHAR
STARTCHAR 2437
ENCODING 9271
SWIDTH 962 0
DWIDTH 26 0
BBX 26 27 0 -1
BITMAP
00000000
10200000
1c380600
1831ff00
18306600
18306600
ff306600
18306600
19fe6600
18306600
18306600
18306600
18306600
1f306600
f8306600
d8306600
18306600
18306600
18324600
183cc600
18388600
18110600
18020e00
f804fc00
30081800
00000000
00000000
ENDCHAR
STARTCHAR 2438
ENCODING 9272
SWIDTH 962 0
DWIDTH 26 0
BBX 26 27 0 -1
BITMAP
00000000
10020000
1c038000
18030000
18030c00
1803fe00
18030000
ff030000
18030000
18031800
18fffc00
18101800
18101800
1f101800
f8083000
d8083000
18046000
1806c000
18038000
18038000
1806c000
180c7000
18183c00
f8600f00
31800200
00000000
00000000
ENDCHAR
STARTCHAR 2439
ENCODING 9273
SWIDTH 962 0
DWIDTH 26 0
BBX 26 27 0 -1
BITMAP
00000000
10060000
1c030000
18010000
18018000
18418600
ff7fff00
18618600
1861c600
18634600
18636600
18622600
18663600
1f643600
f86c1e00
d8681e00
18700600
18600600
18600600
18600600
18600600
18600600
18600600
f8607e00
30400c00
00000000
00000000
ENDCHAR
STARTCHAR 243a
ENCODING 9274
SWIDTH 962 0
DWIDTH 26 0
BBX 26 27 0 -1
BITMAP
00000000
10200000
1c380000
18300600
183fff00
18600000
ff600000
18401800
18bffc00
19000000
18000000
18003000
18fff800
1f003000
f8003000
d8003000
18003000
18003000
18003100
18003100
18001900
18001900
18000d00
f8000700
30000300
00000000
00000000
ENDCHAR
STARTCHAR 243b
ENCODING 9275
SWIDTH 962 0
DWIDTH 26 0
BBX 26 27 0 -1
BITMAP
00000000
10108000
1c1ce000
1818c000
1818c000
1830c000
ff30c000
1820c000
1870c400
1870fe00
18b0c000
18b0c000
1830c000
1e30c000
f830c000
d830c000
1830c000
1830c200
1830c200
1830c200
1830c200
1830c300
1830ff00
f8307e00
30200000
00000000
00000000
ENDCHAR
STARTCHAR 243c
ENCODING 9276
SWIDTH 962 0
DWIDTH 26 0
BBX 26 27 0 -1
BITMAP
00000000
10000000
1c000c00
187ffe00
18018000
19018000
ff818000
18018000
18018000
18018600
18ffff00
18018000
18018000
1f037000
f8036000
d8036000
18066000
18066200
180c6200
180c6200
18186200
18306300
18607f00
f8c03e00
33000000
00000000
00000000
ENDCHAR
STARTCHAR 243d
ENCODING 9277
SWIDTH 962 0
DWIDTH 26 0
BBX 26 27 0 -1
BITMAP
00000000
00180000
00180c00
7ffffe00
00180000
00183000
0ffff800
03006000
0180c000
00e30000
003e0000
007f0000
01c1e000
07107f00
1c1c0c00
e0180000
1ffff800
18181800
18181800
18181800
18181800
18181800
1819f800
10183000
00100000
00000000
00000000
ENDCHAR
STARTCHAR 243e
ENCODING 9278
SWIDTH 962 0
DWIDTH 26 0
BBX 26 27 0 -1
BITMAP
00000000
00010000
0041c000
7fe18000
06018000
06030000
06030600
0603ff00
06060c00
06050c00
06290c00
fff10c00
06010c00
06011800
06011800
06009800
0600b000
0600b000
06006000
0600e000
0601b000
06031800
06060c00
060c0700
04300200
00000000
00000000
ENDCHAR
STARTCHAR 243f
ENCODING 9279
SWIDTH 962 0
DWIDTH 26 0
BBX 26 27 0 -1
BITMAP
00000000
00020000
00038000
40c30000
7fe30000
60c60000
60c60600
60c7ff00
60c41800
60ca1800
60ca1800
7fd21800
60821800
60021800
60033000
60013000
60016000
6000e000
6040c000
6181e000
66033000
7c061800
300c0c00
00300700
00c00200
00000000
00000000
ENDCHAR
STARTCHAR 2440
ENCODING 9280
SWIDTH 962 0
DWIDTH 26 0
BBX 26 27 0 -1
BITMAP
00000000
20010000
3801c000
30418000
3fe18000
60030000
40030600
8003ff00
00c20c00
7fe70c00
00c50c00
01890c00
03010c00
06011800
0c011800
18009800
3040b000
6040b000
60406000
c040e000
c061b000
ffe31800
7fc60c00
000c0700
00300200
00000000
00000000
ENDCHAR
STARTCHAR 2441
ENCODING 9281
SWIDTH 962 0
DWIDTH 26 0
BBX 26 27 0 -1
BITMAP
00000000
10001000
1c001c00
18001800
18041800
18c31800
1fe19800
18c19800
30c01800
30c01800
38c81800
6cc61800
47831800
83831800
01801800
03001800
03001a00
063fff00
06001800
0c001800
08001800
10001800
20001800
40001800
80001000
00000000
00000000
ENDCHAR
STARTCHAR 2442
ENCODING 9282
SWIDTH 962 0
DWIDTH 26 0
BBX 26 27 0 -1
BITMAP
00000000
10008000
0800e000
0c00c000
0441e000
ffe1b000
30031800
30060c00
300c0700
30188200
3fa0e000
3180c000
3180c000
3180c000
3180c000
3180c000
3180c000
3180c000
3180c000
3180c000
2180c000
2180c000
4380c000
5f00c000
86008000
00000000
00000000
ENDCHAR
STARTCHAR 2443
ENCODING 9283
SWIDTH 962 0
DWIDTH 26 0
BBX 26 27 0 -1
BITMAP
00000000
00000000
08003000
0ffff800
0c003000
0c003000
0c003000
0ffff000
0c003000
0c003000
0c003000
0ffff000
08000000
02008000
0380e000
0300c000
0300c600
ffffff00
0300c000
0300c000
0600c000
0c00c000
1800c000
3000c000
c0008000
00000000
00000000
ENDCHAR
STARTCHAR 2444
ENCODING 9284
SWIDTH 962 0
DWIDTH 26 0
BBX 26 27 0 -1
BITMAP
00000000
00000000
10001800
1ffffc00
18001800
18001800
1ffff800
18001800
18001800
1ffff800
18001000
10300000
00180000
00080600
ffffff00
0c000000
0c000000
0c000000
0c000000
0c000000
0c000000
0c000000
0ffffc00
07fffe00
00000000
00000000
00000000
ENDCHAR
STARTCHAR 2445
ENCODING 9285
SWIDTH 962 0
DWIDTH 26 0
BBX 26 27 0 -1
BITMAP
00000000
10040000
1c070000
18060000
18060000
18060000
ff061800
187ffc00
18061800
18061800
3c061800
3a061800
7b161800
5b0e1800
d8071800
98079800
980cd800
180cd800
18181900
18181900
18301900
18601900
18c01f00
19800f00
12000000
00000000
00000000
ENDCHAR
STARTCHAR 2446
ENCODING 9286
SWIDTH 962 0
DWIDTH 26 0
BBX 26 27 0 -1
BITMAP
00000000
00100000
001c0000
00180000
00180000
00181800
3ffffc00
00180000
10182000
0c183000
06186000
06184000
00188600
ffffff00
00380000
007c0000
005b0000
00d98000
0198c000
03187000
06183c00
0c181f00
30180800
c0180000
00100000
00000000
00000000
ENDCHAR
STARTCHAR 2447
ENCODING 9287
SWIDTH 962 0
DWIDTH 26 0
BBX 26 27 0 -1
BITMAP
00000000
08000000
0e000c00
0c1ffe00
0c000c00
0c000c00
0c900c00
ffdc0c00
0c180c00
0c180c00
1c180c00
1f1ffc00
3d980800
2cd80000
6cd80000
4c180000
cc180000
8c180000
0c180200
0c180200
0c180200
0c180300
0c1fff00
0c0ffe00
08000000
00000000
00000000
ENDCHAR
STARTCHAR 2448
ENCODING 9288
SWIDTH 962 0
DWIDTH 26 0
BBX 26 27 0 -1
BITMAP
00000000
08000000
0e010000
0c01c000
0c018000
0c018000
0d830800
ffc30e00
0c030c00
0c061c00
1c0c1800
1e1c3000
3d876000
2cc1c000
2c80c000
4c018000
4c018800
8c030400
0c060600
0c0c0200
0c181f00
0c7ff300
0c7f0300
0c300000
08000000
00000000
00000000
ENDCHAR
STARTCHAR 2449
ENCODING 9289
SWIDTH 962 0
DWIDTH 26 0
BBX 26 27 0 -1
BITMAP
00000000
00008000
0601e000
01838000
00670000
003e0000
00e3c000
03807000
1c103000
001d8000
0018c000
00188000
00180600
ffffff00
00380000
007c0000
00db0000
01998000
0318e000
06183800
0c181f00
30180c00
c0180000
00180000
00100000
00000000
00000000
ENDCHAR
STARTCHAR 244a
ENCODING 9290
SWIDTH 962 0
DWIDTH 26 0
BBX 26 27 0 -1
BITMAP
00000000
00040000
00070000
01860000
ffc60000
01860600
018fff00
018cc600
0188c400
0198c800
4190c000
7fa0c000
6100c000
6000c000
6001a000
6001a000
6001a000
60033000
60833000
63061000
6e061800
780c0c00
30180e00
00300700
00c00200
00000000
00000000
ENDCHAR
STARTCHAR 244b
ENCODING 9291
SWIDTH 962 0
DWIDTH 26 0
BBX 26 27 0 -1
BITMAP
00000000
00020000
00038000
40c30000
7fe30000
60c60600
60c7ff00
60c4c600
60ccc400
60c8c800
7fd8c000
60d0c000
60a0c000
6000c000
6001a000
6001a000
6001a000
60033000
60033000
40061000
40061800
800c0c00
80180e00
00300700
00c00200
00000000
00000000
ENDCHAR
STARTCHAR 244c
ENCODING 9292
SWIDTH 962 0
DWIDTH 26 0
BBX 26 27 0 -1
BITMAP
00000000
00010000
0001c000
01818000
ffc18000
30018000
30018000
33018600
3fbfff00
33018000
33018000
63018000
7301c000
5f03c000
8e034000
06036000
0c062000
0c063000
180c1000
180c1800
30180c00
20300e00
40600700
80c00200
03000000
00000000
00000000
ENDCHAR
STARTCHAR 244d
ENCODING 9293
SWIDTH 962 0
DWIDTH 26 0
BBX 26 27 0 -1
BITMAP
00000000
04000000
07000000
06000000
07e00c00
060ffe00
26040c00
36040c00
36c40c00
3fe41800
30c61800
30c21800
20c23000
58c33000
4cc16000
86c16000
0580e000
0181a000
03033000
03061000
060c1800
0c180c00
18300e00
30600700
c1800200
00000000
00000000
ENDCHAR
STARTCHAR 244e
ENCODING 9294
SWIDTH 962 0
DWIDTH 26 0
BBX 26 27 0 -1
BITMAP
00000000
01800000
07c00000
7c081800
0c0ffc00
0c0c1800
0c0c1800
0d8c1800
ffcc1800
0c0c1800
0c0c1800
0c0c1800
0c0c1800
0d8c1800
ffcc1800
0c0c1800
0c0c1800
0c0ff800
0c0c1200
0c080200
0c000200
0c000300
0fffff00
07fffe00
00000000
00000000
00000000
ENDCHAR
STARTCHAR 244f
ENCODING 9295
SWIDTH 962 0
DWIDTH 26 0
BBX 26 27 0 -1
BITMAP
00000000
00800600
20ffff00
18c00000
0cc10000
08c1c000
00c18000
00c18000
82c18000
42c18000
64c18000
44c1c000
0cc14000
08c14000
18c36000
18c36000
30c32000
f0863000
61861000
61861000
618c1800
310c0c00
33180e00
32300700
30400200
00000000
00000000
ENDCHAR
STARTCHAR 2450
ENCODING 9296
SWIDTH 962 0
DWIDTH 26 0
BBX 26 27 0 -1
BITMAP
00000000
00010000
2001c000
18018000
0c018000
08018000
00018000
00018000
82018000
42218000
64398000
44318c00
0c31fe00
08318000
18318000
18318000
30618000
f0618000
60598000
60cd8000
60c78000
30838000
3181ff00
31007c00
32000000
00000000
00000000
ENDCHAR
STARTCHAR 2451
ENCODING 9297
SWIDTH 962 0
DWIDTH 26 0
BBX 26 27 0 -1
BITMAP
00000000
00000000
10000600
0c7fff00
0600c000
0400c000
00018000
00018000
41030000
2103c000
32078000
2205a000
060d9800
04198c00
0c318600
0c218600
18418300
f8818300
70018000
30018000
30018000
18018000
18018000
18018000
18010000
00000000
00000000
ENDCHAR
STARTCHAR 2452
ENCODING 9298
SWIDTH 962 0
DWIDTH 26 0
BBX 26 27 0 -1
BITMAP
00000000
00004000
07ffe000
00180000
00180000
00180000
00180600
7fffff00
00180000
00180000
00180000
00100000
001c0000
10181000
0c181c00
06183000
03342000
02364000
00620000
00c30000
01818000
0300c000
06007000
18001f00
e0000c00
00000000
00000000
ENDCHAR
STARTCHAR 2453
ENCODING 9299
SWIDTH 962 0
DWIDTH 26 0
BBX 26 27 0 -1
BITMAP
00000000
00100000
001c0000
00180000
00180600
ffffff00
00340000
00620000
00c18000
0180e000
06103800
181c1f00
e0180400
00182000
08183800
06186000
0330c000
02360000
00618000
00c0c000
01807000
03003800
0c001c00
30000e00
c0000600
00000000
00000000
ENDCHAR
STARTCHAR 2454
ENCODING 9300
SWIDTH 962 0
DWIDTH 26 0
BBX 26 27 0 -1
BITMAP
00000000
08020000
0e038000
0c030000
0c030000
0c830000
ffc30800
0c030e00
0c430c00
0c331800
0c133000
0c1b2000
0c134000
0f830000
fc068000
6c06c000
0c064000
0c0c6000
0c0c6000
0c183000
0c181800
0c301800
0c600c00
7cc00f00
19000400
00000000
00000000
ENDCHAR
STARTCHAR 2455
ENCODING 9301
SWIDTH 962 0
DWIDTH 26 0
BBX 26 27 0 -1
BITMAP
00000000
08200800
0e390e00
0c31cc00
6c318c00
6c318c00
6c318c00
7fb18c00
4c318c00
4c318c00
8c318c00
0c318c00
0c318c00
0fb18c00
fc318c00
cc318c00
0c318c00
0c318c00
0c318c00
0c618c00
0c618c00
0cc10c00
0c800c00
0d000c00
08000800
00000000
00000000
ENDCHAR
STARTCHAR 2456
ENCODING 9302
SWIDTH 962 0
DWIDTH 26 0
BBX 26 27 0 -1
BITMAP
00000000
04020000
87038000
66030000
3c030000
1c030c00
183ffe00
1c030c00
34030c00
66030c00
46030c00
8e030c00
0e030c00
1effff00
16060000
36068000
26066000
460c3000
860c1800
06180c00
06180600
06300600
0e600300
fcc00300
19000000
00000000
00000000
ENDCHAR
STARTCHAR 2457
ENCODING 9303
SWIDTH 962 0
DWIDTH 26 0
BBX 26 27 0 -1
BITMAP
00000000
04204000
87387000
66306000
3c306000
1c306000
18306000
1c306000
34326c00
663f7e00
46306000
8e306000
0e306000
1e306000
16306000
36306000
26306000
46306200
86306200
06306200
06306200
06336300
0e3c7f00
fc183e00
18000000
00000000
00000000
ENDCHAR
STARTCHAR 2458
ENCODING 9304
SWIDTH 962 0
DWIDTH 26 0
BBX 26 27 0 -1
BITMAP
00000000
04000000
87100c00
661ffe00
3c180c00
1c180c00
18180c00
1c180c00
34180c00
66180c00
46180c00
8e180c00
0e1ffc00
1e180c00
16180c00
36180c00
26180c00
46180c00
86180c00
06180c00
06180c00
06180c00
0e1ffc00
fc180800
18100000
00000000
00000000
ENDCHAR
STARTCHAR 2459
ENCODING 9305
SWIDTH 962 0
DWIDTH 26 0
BBX 26 27 0 -1
BITMAP
00000000
04001800
87207c00
663fc000
3c30c000
1c30c000
1830c000
1c30c000
3430c000
6630cc00
463ffe00
8e30c000
0e30c000
1e30c000
1630c000
36306000
26306000
46306000
86303200
06303200
06301a00
06319a00
0e3e0f00
fc180700
18000200
00000000
00000000
ENDCHAR
STARTCHAR 245a
ENCODING 9306
SWIDTH 962 0
DWIDTH 26 0
BBX 26 27 0 -1
BITMAP
00000000
04010000
8701c000
66018000
3c018000
1c218600
183fff00
1c618600
34c18400
66418800
46018000
8e018000
0e038000
1e03e000
1602c000
3606c000
2606c000
460cc200
860cc200
0618c200
0618c200
0630c300
0e60ff00
fcc07e00
19000000
00000000
00000000
ENDCHAR
STARTCHAR 245b
ENCODING 9307
SWIDTH 962 0
DWIDTH 26 0
BBX 26 27 0 -1
BITMAP
00000000
02000000
43a00c00
333ffe00
1e318c00
0e318c00
0c318c00
0e318c00
1a318c00
33318c00
63318c00
87318c00
073ffc00
0f300800
0b300000
1b300000
13300000
23300200
43300200
03300200
03300200
03300300
073fff00
7e1ffe00
0c000000
00000000
00000000
ENDCHAR
STARTCHAR 245c
ENCODING 9308
SWIDTH 962 0
DWIDTH 26 0
BBX 26 27 0 -1
BITMAP
00000000
00000000
00003000
013ff800
ff8c3000
180c3000
180c3000
180c3000
180c3000
180c3000
190c3000
ff8d3000
183fb000
180c3000
180c3000
180c3000
180c3000
180c3200
180c3200
180c3200
1f8c3200
f80c3300
600c3f00
000c1e00
00080000
00000000
00000000
ENDCHAR
STARTCHAR 245d
ENCODING 9309
SWIDTH 962 0
DWIDTH 26 0
BBX 26 27 0 -1
BITMAP
00000000
00010000
0001c000
02018000
ff018000
18018000
18018000
18018000
18018000
18018c00
1a7ffe00
ff018000
18018000
18018000
18018000
18018000
18018000
18018000
18018000
1f018000
f8018000
c0018000
00018600
00ffff00
00000000
00000000
00000000
ENDCHAR
STARTCHAR 245e
ENCODING 9310
SWIDTH 962 0
DWIDTH 26 0
BBX 26 27 0 -1
BITMAP
00000000
00000000
00000c00
017ffe00
ff8c0000
0c0c0000
0c0c0000
0c0c3000
0c0ff800
0c0c3000
0c0c3000
0c0e3000
0c0d3000
0c0db000
0c0cb000
0c0cf000
0c18b000
0c183000
0c183000
0c183200
0c1b9a00
0c1e1a00
7c780e00
18300700
00000300
00000000
00000000
ENDCHAR
STARTCHAR 245f
ENCODING 9311
SWIDTH 962 0
DWIDTH 26 0
BBX 26 27 0 -1
BITMAP
00000000
00000000
00000000
40c10400
7fe1c700
64c18600
64c30c00
64c30c00
64c61800
64c61800
64cc3000
64cc3000
7fd86000
64c82000
64cc3000
64c61800
64c61800
64c30c00
64c30c00
64c18600
7fc1c700
60808200
40000000
00000000
00000000
00000000
00000000
ENDCHAR
STARTCHAR 2460
ENCODING 9312
SWIDTH 962 0
DWIDTH 26 0
BBX 26 27 0 -1
BITMAP
00000000
000c0000
00060000
08040600
0fffff00
8c000000
4c000000
6c003000
3cfff800
2c203000
0c203000
0c306000
0c106000
0c18c000
3c08c000
ec0d8000
4c070000
0c070000
0c0d8000
1818c000
18306000
10603000
30c01c00
21800f00
46000400
00000000
00000000
ENDCHAR
STARTCHAR 2461
ENCODING 9313
SWIDTH 962 0
DWIDTH 26 0
BBX 26 27 0 -1
BITMAP
00000000
000c0000
00060000
08040600
0fffff00
0c000000
8c002000
4c003800
6c403000
3c703000
2c603000
0c603000
0c603000
0c603000
1c603000
2c603000
ecfff000
4c403000
0c003000
18003000
18003000
10003000
30003000
20003000
40002000
00000000
00000000
ENDCHAR
STARTCHAR 2462
ENCODING 9314
SWIDTH 962 0
DWIDTH 26 0
BBX 26 27 0 -1
BITMAP
00000000
000c0000
00060000
08040600
0fffff00
0c000000
8c000000
4c000c00
6dfffe00
3c0c0000
2c0c0000
0c180000
0c180000
0c301800
1c7ffc00
3c201800
ec001800
4c001800
0c001800
18001800
18003800
30003000
20007000
400fe000
8000c000
00000000
00000000
ENDCHAR
STARTCHAR 2463
ENCODING 9315
SWIDTH 962 0
DWIDTH 26 0
BBX 26 27 0 -1
BITMAP
00000000
00002000
00c87000
7fe4c400
00c70e00
30c31800
1981a000
0b00c000
06006000
0c003800
18001f00
37ffcc00
c600c000
0600c000
0600c000
0600c000
0600c000
063fc800
06018800
06000800
06000800
06000c00
07fffc00
03fff800
00000000
00000000
00000000
ENDCHAR
STARTCHAR 2464
ENCODING 9316
SWIDTH 962 0
DWIDTH 26 0
BBX 26 27 0 -1
BITMAP
00000000
00000800
41800e00
7fc80c00
618e0c00
618c0c00
618c0c00
618c0c00
618c0c00
7f8c0c00
618c0c00
618c0c00
618c0c00
618c0c00
618c0c00
7f8c0c00
618c0c00
618c0c00
619ffc00
61880c00
61800c00
7f800c00
61000c00
40000c00
00000800
00000000
00000000
ENDCHAR
STARTCHAR 2465
ENCODING 9317
SWIDTH 962 0
DWIDTH 26 0
BBX 26 27 0 -1
BITMAP
00000000
04000000
07000000
06000000
06000600
07ffff00
0c000600
0c000600
18030600
1fff8600
36030600
66030600
87ff0600
06030600
06030600
07ff0600
06030600
06030600
06030600
07ff0600
06020e00
04000c00
00001c00
0003f800
00007000
00000000
00000000
ENDCHAR
STARTCHAR 2466
ENCODING 9318
SWIDTH 962 0
DWIDTH 26 0
BBX 26 27 0 -1
BITMAP
00000000
04003000
07fff800
06003000
06003000
07fff000
06003000
06003000
07fff000
06003000
06003000
07fff000
00002000
07000000
06000000
06003000
07fff800
06000000
06000000
06000400
06000400
06000600
07fffe00
03fffc00
00000000
00000000
00000000
ENDCHAR
STARTCHAR 2467
ENCODING 9319
SWIDTH 962 0
DWIDTH 26 0
BBX 26 27 0 -1
BITMAP
00000000
00000000
00101800
019ffc00
ffd81800
18181800
18181800
18181800
18181800
30181800
31981800
3fd81800
71981800
71981800
b199f800
31987000
31980000
31980400
31980400
3f980400
31180400
20180600
001ffe00
000ffc00
00000000
00000000
00000000
ENDCHAR
STARTCHAR 2468
ENCODING 9320
SWIDTH 962 0
DWIDTH 26 0
BBX 26 27 0 -1
BITMAP
00000000
0001e000
003ff000
0ff80000
00180000
00180000
00180c00
7ffffe00
00380000
007e0000
00d9c000
03187000
0c181c00
30100e00
c0000600
00100000
001c0000
00180000
00340000
00630000
00c18000
0180e000
06003800
18001f00
e0000800
00000000
00000000
ENDCHAR
STARTCHAR 2469
ENCODING 9321
SWIDTH 962 0
DWIDTH 26 0
BBX 26 27 0 -1
BITMAP
00000000
00300000
00180000
20100600
3fffff00
60c30600
c0c30400
41830000
0303fe00
0c01ff00
70000000
00000000
00000600
ffffff00
00180000
00180000
00180000
00180000
00180000
00180000
00180000
00180000
00180000
01f80000
00300000
00000000
00000000
ENDCHAR
STARTCHAR 246a
ENCODING 9322
SWIDTH 962 0
DWIDTH 26 0
BBX 26 27 0 -1
BITMAP
00000000
00000000
20000c00
3ffffe00
30c30c00
30c30c00
30c30c00
30c30c00
3ffffc00
20000800
00000000
00000600
ffffff00
00180000
00180000
00180000
00180000
00180000
00180000
00180000
00180000
00180000
00180000
01f80000
00300000
00000000
00000000
ENDCHAR
STARTCHAR 246b
ENCODING 9323
SWIDTH 962 0
DWIDTH 26 0
BBX 26 27 0 -1
BITMAP
00000000
10001800
1ffffc00
18101800
181c1800
18181800
18361800
18631800
18c19800
1b011800
18003800
10301000
00180000
000c0000
00080c00
7ffffe00
0c000000
0c000000
0c000000
0c000000
0c000000
0c000000
0ffffc00
07fffe00
00000000
00000000
00000000
ENDCHAR
STARTCHAR 246c
ENCODING 9324
SWIDTH 962 0
DWIDTH 26 0
BBX 26 27 0 -1
BITMAP
00000000
02008000
0380e000
0300c000
0300cc00
7f00fe00
0300c000
0310c000
021c8000
00180000
00183000
1ffff800
00180000
00180000
00180000
00180000
00180600
ffffff00
00180000
00180000
00180000
00180000
00180000
00180000
00100000
00000000
00000000
ENDCHAR
STARTCHAR 246d
ENCODING 9325
SWIDTH 962 0
DWIDTH 26 0
BBX 26 27 0 -1
BITMAP
00000000
00000000
00c00000
ffe00c00
318ffe00
31800c00
31801800
31801800
3f803000
31803000
31806000
3180c000
3180c000
3f818000
31830000
31830000
31860000
318c0200
318c0200
37980200
f9980200
61980300
019fff00
018ffe00
01000000
00000000
00000000
ENDCHAR
STARTCHAR 246e
ENCODING 9326
SWIDTH 962 0
DWIDTH 26 0
BBX 26 27 0 -1
BITMAP
00000000
43000c00
7fbffe00
63018000
63018000
63018000
63018000
7b018000
6f018000
63018000
63018600
637fff00
63018000
63018000
6f018000
7b018000
63018000
63018000
63018000
63018000
63018000
43018000
43018000
9f1f8000
86030000
00000000
00000000
ENDCHAR
STARTCHAR 246f
ENCODING 9327
SWIDTH 962 0
DWIDTH 26 0
BBX 26 27 0 -1
BITMAP
00000000
43000000
7f903000
631ff800
63183000
63183000
63183000
7b183000
6f1c3000
631a3000
631b3000
6319b000
6319b000
6318b000
6f183000
7b183000
63183000
63183200
63183200
63303200
43303200
43303300
83203f00
9f401e00
06800000
00000000
00000000
ENDCHAR
STARTCHAR 2470
ENCODING 9328
SWIDTH 962 0
DWIDTH 26 0
BBX 26 27 0 -1
BITMAP
00000000
00000000
43000800
7f820e00
63018c00
6308cc00
63088c00
63080c00
7b0c0c00
6f040c00
63040c00
63061800
63021800
63031800
6f013000
7b01b000
6300e000
6300e000
6301f000
6301b800
43031c00
43060e00
830c0700
9f300200
06c00000
00000000
00000000
ENDCHAR
STARTCHAR 2471
ENCODING 9329
SWIDTH 962 0
DWIDTH 26 0
BBX 26 27 0 -1
BITMAP
00000000
00000000
20001800
3ffffc00
300c0000
300c0000
300c0000
300c0000
320c3000
33fff800
33003000
33003000
33003000
33003000
33003000
33fff000
320c2000
300c0000
300c0000
300c0000
300c0000
300c0c00
7ffffe00
20000000
00000000
00000000
00000000
ENDCHAR
STARTCHAR 2472
ENCODING 9330
SWIDTH 962 0
DWIDTH 26 0
BBX 26 27 0 -1
BITMAP
00000000
00000000
00000c00
7ffffe00
00c00000
00c00000
01800000
0b003000
0ffff800
0c003000
0c003000
0c003000
0ffff000
0c003000
0c003000
0c003000
0c003000
0ffff000
0c003000
0c003000
0c003000
0c003000
0ffff000
0c002000
08000000
00000000
00000000
ENDCHAR
STARTCHAR 2473
ENCODING 9331
SWIDTH 962 0
DWIDTH 26 0
BBX 26 27 0 -1
BITMAP
00000000
04020000
07038000
0c030000
18630000
7ff30000
60630000
60630000
60630000
60630000
7fe30000
60630000
60630000
60630000
60630000
60630000
7fe30000
60630200
60630200
60630200
60630200
60630300
7fe3ff00
6041fe00
40000000
00000000
00000000
ENDCHAR
STARTCHAR 2474
ENCODING 9332
SWIDTH 962 0
DWIDTH 26 0
BBX 26 27 0 -1
BITMAP
00000000
00600000
00f00000
11800000
1e001800
180ffc00
18001800
18001800
18001800
18001800
18001800
18001800
18001800
1fe7f800
18001800
18001800
18001800
18001800
18001800
18001800
18001800
18001800
1fe7f800
18001000
10000000
00000000
00000000
ENDCHAR
STARTCHAR 2475
ENCODING 9333
SWIDTH 962 0
DWIDTH 26 0
BBX 26 27 0 -1
BITMAP
00000000
04004000
07007000
06006200
ffe7ff00
06006000
06006000
04004000
00000000
1ffff800
00180000
00180000
00180000
00180000
00180600
ffffff00
00180000
00180000
00180000
00180000
00180000
00180000
00180000
00180000
00100000
00000000
00000000
ENDCHAR
STARTCHAR 2476
ENCODING 9334
SWIDTH 962 0
DWIDTH 26 0
BBX 26 27 0 -1
BITMAP
00000000
04004000
07007000
06406200
ffe7ff00
06006000
06006000
04004000
00000000
7fffc000
0180c000
0180c000
0180c000
0180c000
0184c000
7ffec000
0180c000
0180c200
0180c200
0180c200
0180c200
0180c300
0180ff00
01807e00
01000000
00000000
00000000
ENDCHAR
STARTCHAR 2477
ENCODING 9335
SWIDTH 962 0
DWIDTH 26 0
BBX 26 27 0 -1
BITMAP
00000000
04004000
07007000
06406200
ffe7ff00
06006000
06086000
040e4000
000c0000
000c0000
000c0c00
7ffffe00
000c0000
001c0000
003c0000
006c0000
00cc0000
018c0000
030c0000
060c0000
0c0c0000
300c0000
c00c0000
000c0000
00080000
00000000
00000000
ENDCHAR
STARTCHAR 2478
ENCODING 9336
SWIDTH 962 0
DWIDTH 26 0
BBX 26 27 0 -1
BITMAP
00000000
04004000
07007000
06406200
ffe7ff00
06006000
06006000
04004000
00000c00
7ffffe00
00c30000
00c30000
00c30000
00c30000
00c30000
00c30000
01830000
01830000
03030200
03030200
06030200
0c030300
1803ff00
3001fe00
c0000000
00000000
00000000
ENDCHAR
STARTCHAR 2479
ENCODING 9337
SWIDTH 962 0
DWIDTH 26 0
BBX 26 27 0 -1
BITMAP
00000000
04004000
07007000
06406200
ffe7ff00
06006000
06006000
04104000
001c0000
00180000
00180000
00180600
ffffff00
00180000
00180000
00340000
00360000
00630000
00c18000
0180c000
03006000
06003000
0c001c00
30000f00
c0000400
00000000
00000000
ENDCHAR
STARTCHAR 247a
ENCODING 9338
SWIDTH 962 0
DWIDTH 26 0
BBX 26 27 0 -1
BITMAP
00000000
04004000
07007000
06406200
ffe7ff00
06006000
06006000
04004000
00000000
00000000
08003000
0ffff800
0c003000
0c003000
0c003000
0c003000
0c003000
0c003000
0c003000
0c003000
0c003000
0ffff000
0c003000
0c002000
08000000
00000000
00000000
ENDCHAR
STARTCHAR 247b
ENCODING 9339
SWIDTH 962 0
DWIDTH 26 0
BBX 26 27 0 -1
BITMAP
00000000
04004000
07007000
06006000
ffe7ff00
06006000
06106000
041c4000
00180000
10181800
1ffffc00
18181800
18181800
18181800
18181800
18181800
18181800
18181800
18181800
18181800
1819f800
10183000
00180000
00180000
00100000
00000000
00000000
ENDCHAR
STARTCHAR 247c
ENCODING 9340
SWIDTH 962 0
DWIDTH 26 0
BBX 26 27 0 -1
BITMAP
00000000
04004000
07007000
06406200
ffe7ff00
06006000
06006000
04000000
0001f000
001ff800
1ff00000
00300000
00300000
00300000
00300600
ffffff00
00300000
00300000
00300400
00300400
00300400
00300600
003ffe00
001ffc00
00000000
00000000
00000000
ENDCHAR
STARTCHAR 247d
ENCODING 9341
SWIDTH 962 0
DWIDTH 26 0
BBX 26 27 0 -1
BITMAP
00000000
06006000
06406200
ffe7ff00
06006000
04006000
07004000
06000c00
07fffe00
0c000000
18000000
10003000
27fff800
40007000
0001c000
00070000
001c0000
00700000
01c00400
03000400
06000400
0c000600
0ffffe00
07fffc00
00000000
00000000
00000000
ENDCHAR
STARTCHAR 247e
ENCODING 9342
SWIDTH 962 0
DWIDTH 26 0
BBX 26 27 0 -1
BITMAP
00000000
00040000
00030000
40018000
3000c000
18008c00
18fffe00
00300000
18300000
fc300000
18300000
18300000
30300000
24300000
7e300000
0c300000
0c300000
0c300000
183ffc00
181ffe00
30000000
fc000000
c7800000
01ffff00
007ffc00
00000000
00000000
ENDCHAR
STARTCHAR 2521
ENCODING 9505
SWIDTH 962 0
DWIDTH 26 0
BBX 26 27 0 -1
BITMAP
00000000
00000000
00000c00
403ffe00
30018000
18018000
18018000
00018000
18018000
fc018600
187fff00
18018000
30018000
24018000
7e018000
0c018000
0c018000
0c018000
18018000
18018000
30018000
fc010000
c7800000
01ffff00
007ffc00
00000000
00000000
ENDCHAR
STARTCHAR 2522
ENCODING 9506
SWIDTH 962 0
DWIDTH 26 0
BBX 26 27 0 -1
BITMAP
00000000
00000000
00000000
40000c00
307ffe00
180c3000
180c3000
000c3000
180c3000
fc0c3000
180c3000
180c3000
300c3000
240c3000
7e0c3000
0c0c3000
0c183000
0c183000
18103000
18303000
30203000
fc402000
c7800000
01ffff00
007ffc00
00000000
00000000
ENDCHAR
STARTCHAR 2523
ENCODING 9507
SWIDTH 962 0
DWIDTH 26 0
BBX 26 27 0 -1
BITMAP
00000000
00000000
40001800
303ffc00
18000000
18000000
00000600
00ffff00
0c0c0000
fe0c0000
0c180c00
0c3ffe00
18100c00
30000c00
7e000c00
06001800
06001800
06003000
0c07e000
0c00c000
18000000
fe000000
c3c00000
00ffff00
003ffc00
00000000
00000000
ENDCHAR
STARTCHAR 2524
ENCODING 9508
SWIDTH 962 0
DWIDTH 26 0
BBX 26 27 0 -1
BITMAP
00000000
00000000
40000000
30201800
183ffc00
18301800
00301800
00301800
0c301800
fe301800
0c301800
0c3ff800
18301000
30300000
7e300400
06300400
06300400
06300600
0c3ffe00
0c1ffc00
18000000
fe000000
c3c00000
00ffff00
003ffc00
00000000
00000000
ENDCHAR
STARTCHAR 2525
ENCODING 9509
SWIDTH 962 0
DWIDTH 26 0
BBX 26 27 0 -1
BITMAP
00000000
00010c00
0061fe00
7ff18c00
0c618c00
0c618c00
0c619800
0c619000
0c61a000
0c619800
0c618c00
fffd8600
18618600
18618300
18618300
18618300
18618300
18618300
18618700
1861be00
18618c00
18698000
fffd8000
00018000
00010000
00000000
00000000
ENDCHAR
STARTCHAR 2526
ENCODING 9510
SWIDTH 962 0
DWIDTH 26 0
BBX 26 27 0 -1
BITMAP
00000000
02010600
0381ff00
03018600
03018c00
03318c00
7ff99800
03019000
0301a000
03019800
03318c00
7ff98600
00318600
20318300
10618300
18618300
0cc18300
07818300
07818700
06c1be00
0c618c00
18718000
30318000
60218000
80010000
00000000
00000000
ENDCHAR
STARTCHAR 2527
ENCODING 9511
SWIDTH 962 0
DWIDTH 26 0
BBX 26 27 0 -1
BITMAP
00000000
02010600
0381ff00
03018600
03198c00
fffd8c00
03019800
03019000
4319a000
7ffd9800
63198c00
63198600
63198600
63198300
63198300
63198300
63198300
63198300
63798700
6331be00
43018c00
03018000
03018000
03018000
02010000
00000000
00000000
ENDCHAR
STARTCHAR 2528
ENCODING 9512
SWIDTH 962 0
DWIDTH 26 0
BBX 26 27 0 -1
BITMAP
00000000
01010c00
01c1fe00
01818c00
01818c00
01818c00
11b19800
1d999000
198da000
198d9800
31878c00
31858600
61a18600
81b98300
01318300
00718300
00618300
00c18300
01818700
0301be00
06018c00
0c018000
30018000
c0018000
00010000
00000000
00000000
ENDCHAR
STARTCHAR 2529
ENCODING 9513
SWIDTH 962 0
DWIDTH 26 0
BBX 26 27 0 -1
BITMAP
00000000
00010600
0001ff00
00198600
fffd8c00
06018c00
06019800
0c419000
0c71a000
18619000
30c18800
70c18c00
19818600
0f018600
07018300
06018300
0c418300
18218300
30318700
61f9be00
ff198c00
fc198000
60018000
00018000
00010000
00000000
00000000
ENDCHAR
STARTCHAR 252a
ENCODING 9514
SWIDTH 962 0
DWIDTH 26 0
BBX 26 27 0 -1
BITMAP
00000000
00010600
00c1ff00
03e18600
7e018c00
06018c00
06019800
06019000
0601a000
06019000
06318800
fff98c00
06018600
06018600
06018300
06018300
06018300
06018300
06018700
07f1be00
ff018c00
78018000
20018000
00018000
00010000
00000000
00000000
ENDCHAR
STARTCHAR 252b
ENCODING 9515
SWIDTH 962 0
DWIDTH 26 0
BBX 26 27 0 -1
BITMAP
00000000
02006000
03fff000
03000000
03000000
0300c000
03ffe000
03000000
03000000
0300c000
03ffe000
03000000
03000000
03000c00
7ffffe00
00800000
01e00000
01808000
03006000
06003000
0c001800
180ffc00
7ffc0c00
3f000c00
18000000
00000000
00000000
ENDCHAR
STARTCHAR 252c
ENCODING 9516
SWIDTH 962 0
DWIDTH 26 0
BBX 26 27 0 -1
BITMAP
00000000
86100000
ff1c0000
c6180600
c61fff00
c6300000
cc300000
c8201800
d07ffc00
c8800000
cc000000
c6001800
c67ffc00
c3003000
c3006000
c3018000
c3030000
c7060400
fe0c0400
cc180400
c0300400
c0600600
c07ffe00
c03ffc00
80000000
00000000
00000000
ENDCHAR
STARTCHAR 252d
ENCODING 9517
SWIDTH 962 0
DWIDTH 26 0
BBX 26 27 0 -1
BITMAP
00000000
86000000
ff083000
c60ff800
c60c3000
c60c3000
cc0c3000
c80c3000
d0183000
c8103e00
cc201f00
c6400000
c6001800
c33ffc00
c3081800
c3081800
c3043000
c7063000
fe036000
cc01c000
c003c000
c0066000
c00c3800
c0301f00
80c00c00
00000000
00000000
ENDCHAR
STARTCHAR 252e
ENCODING 9518
SWIDTH 962 0
DWIDTH 26 0
BBX 26 27 0 -1
BITMAP
00000000
43010000
7f81c000
63018000
63018000
63018000
66018400
64098700
687d8600
640d8c00
660d8800
630dd000
630da000
618da000
6199b000
61999000
61999800
63b19800
7f318c00
66618e00
60c18700
61818400
62018000
601f8000
40030000
00000000
00000000
ENDCHAR
STARTCHAR 252f
ENCODING 9519
SWIDTH 962 0
DWIDTH 26 0
BBX 26 27 0 -1
BITMAP
00000000
10001000
1c821c00
18e39800
18c31800
18c31800
18c31800
18c31800
18c31800
1fc7f800
18821800
18001800
1bffd800
18001800
18c21800
1fe3f800
18c31800
18c31800
18c31800
30c31800
30c31800
20c31800
60c31800
40821800
80001000
00000000
00000000
ENDCHAR
STARTCHAR 2530
ENCODING 9520
SWIDTH 962 0
DWIDTH 26 0
BBX 26 27 0 -1
BITMAP
00000000
0c020000
06038000
02230000
fff30000
00830000
40e30000
20c30000
11830000
19030000
0a230000
fff30000
06030000
06030000
06030000
06030000
7fe30000
06030200
06030200
06030200
06030200
06030300
0603ff00
0601fe00
04000000
00000000
00000000
ENDCHAR
STARTCHAR 2531
ENCODING 9521
SWIDTH 962 0
DWIDTH 26 0
BBX 26 27 0 -1
BITMAP
00000000
04000c00
07087e00
064fc000
ffec0000
060c0600
060fff00
07cc1800
fe0c1800
660c1800
06181800
06101800
3e201800
0c401000
0000c000
1fffe000
00018000
000e0000
00300400
00c00400
03000400
0c000400
38000600
3ffffe00
1ffffc00
00000000
00000000
ENDCHAR
STARTCHAR 2532
ENCODING 9522
SWIDTH 962 0
DWIDTH 26 0
BBX 26 27 0 -1
BITMAP
00000000
00000c00
7ffffe00
00000000
08008000
0e00e000
0c00c000
18018000
31019000
61c31c00
31861800
1b033000
0f01e000
0600e000
0d00c800
18818400
30c30600
63e63f00
fe6fe300
e06e0300
60060000
00000000
00000600
ffffff00
00000000
00000000
00000000
ENDCHAR
STARTCHAR 2533
ENCODING 9523
SWIDTH 962 0
DWIDTH 26 0
BBX 26 27 0 -1
BITMAP
00000000
00100000
001c0000
00180000
00181800
3ffffc00
00180000
10180800
1ffffc00
18181c00
18181800
18381800
187cf800
10db3000
0399c000
0c187000
30181f00
c0180c00
00100000
1ffff800
00000000
00000000
00000600
ffffff00
00000000
00000000
00000000
ENDCHAR
STARTCHAR 2534
ENCODING 9524
SWIDTH 962 0
DWIDTH 26 0
BBX 26 27 0 -1
BITMAP
00000000
00400000
00300000
00180000
001c0000
00080600
ffffff00
00000000
00000000
20000c00
3ffffe00
30000c00
31018c00
31ffcc00
31818c00
31818c00
31818c00
31818c00
31ff8c00
31010c00
30000c00
30000c00
3ffffc00
30000c00
20000800
00000000
00000000
ENDCHAR
STARTCHAR 2535
ENCODING 9525
SWIDTH 962 0
DWIDTH 26 0
BBX 26 27 0 -1
BITMAP
00000000
04004000
07007000
06006000
06006000
06006000
0e00e000
0d80d800
18c18c00
10610600
20420300
40040200
84084000
07007000
06006000
06006000
06006000
0e006000
0d00d000
0c80d000
18c19800
10610c00
20620e00
40440700
80080200
00000000
00000000
ENDCHAR
STARTCHAR 2536
ENCODING 9526
SWIDTH 962 0
DWIDTH 26 0
BBX 26 27 0 -1
BITMAP
00000000
04004000
07007000
06006c00
0e006600
0c006200
0dffff00
18006000
18006000
38006000
38006000
58ff6000
98186000
18186000
18186000
18183000
18183000
18183000
181f3100
19f01900
18c01900
18000d00
18000700
18000300
10000100
00000000
00000000
ENDCHAR
STARTCHAR 2537
ENCODING 9527
SWIDTH 962 0
DWIDTH 26 0
BBX 26 27 0 -1
BITMAP
00000000
04010000
0701cc00
06018600
0e018200
0c018000
0dffff00
18018000
18218000
38398800
38318e00
58318c00
98318c00
19fd8c00
18319800
1830d800
1830d800
1860f000
18607200
18406200
1880f200
19019a00
18030f00
180c0700
10300200
00000000
00000000
ENDCHAR
STARTCHAR 2538
ENCODING 9528
SWIDTH 962 0
DWIDTH 26 0
BBX 26 27 0 -1
BITMAP
00000000
04010000
0701c000
06018000
0e018c00
0c01fe00
0c018000
18018000
18018000
38018600
38ffff00
58018000
98018000
18218000
18399000
18318800
18318400
18618600
18418300
18818300
19018100
18018000
18018000
181f8000
10030000
00000000
00000000
ENDCHAR
STARTCHAR 2539
ENCODING 9529
SWIDTH 962 0
DWIDTH 26 0
BBX 26 27 0 -1
BITMAP
00000000
04084000
070e7000
060c6000
0e0c6000
0c0c6000
0c8c6600
18ffff00
18cc6600
38cc6600
38cc6600
58cc6600
98cc6600
18cc6600
18fffe00
18cc6600
18cc6600
18cc6600
18cc6600
18cc6600
18cc6600
18cc6600
18fffe00
18c00600
10800400
00000000
00000000
ENDCHAR
STARTCHAR 253a
ENCODING 9530
SWIDTH 962 0
DWIDTH 26 0
BBX 26 27 0 -1
BITMAP
00000000
10208000
1c38e000
1830c000
1a30c000
1bb0c000
33318200
3331ff00
33310c00
73338c00
73328c00
b3348c00
33388c00
33308c00
33308800
33305800
33f05800
32307000
30307000
3030d800
30308800
30310c00
30320600
30340700
20280200
00000000
00000000
ENDCHAR
STARTCHAR 253b
ENCODING 9531
SWIDTH 962 0
DWIDTH 26 0
BBX 26 27 0 -1
BITMAP
00000000
04040000
07030000
06418000
0c410600
0cffff00
18c00600
19800400
31804800
38007000
78006000
58006600
99ffff00
18006000
18006000
18206000
18106000
18086000
180c6000
180c6000
18006000
18006000
18006000
180fe000
1000c000
00000000
00000000
ENDCHAR
STARTCHAR 253c
ENCODING 9532
SWIDTH 962 0
DWIDTH 26 0
BBX 26 27 0 -1
BITMAP
00000000
08400600
0e7fff00
0c600000
0c600000
18600c00
186ffe00
1860c000
3060c000
3860c000
7860c000
5860c800
9867fc00
1860c000
1860c000
1860c000
1860c000
1860c000
1860cc00
186ffe00
18600000
18600000
18600600
18ffff00
10400000
00000000
00000000
ENDCHAR
STARTCHAR 253d
ENCODING 9533
SWIDTH 962 0
DWIDTH 26 0
BBX 26 27 0 -1
BITMAP
00000000
08400000
0e700000
0c600000
0c600c00
0cfffe00
18c00000
19800000
31401800
3a7ffc00
78631800
58631800
98631800
18631a00
1bffff00
18c31800
18c31800
18c61800
18c61800
18c61a00
19ffff00
18801800
18003000
1803f000
10006000
00000000
00000000
ENDCHAR
STARTCHAR 253e
ENCODING 9534
SWIDTH 962 0
DWIDTH 26 0
BBX 26 27 0 -1
BITMAP
00000000
001c0000
00380000
00640000
00c30000
01818000
0300c000
06037000
0dffbc00
30000f00
c0000400
00003000
1ffff800
00180000
00180000
04180000
0718c000
061fe000
06180000
06180000
06180000
06180000
06180600
ffffff00
00000000
00000000
00000000
ENDCHAR
STARTCHAR 253f
ENCODING 9535
SWIDTH 962 0
DWIDTH 26 0
BBX 26 27 0 -1
BITMAP
00000000
04004000
07007000
06006000
06006000
86886400
ffcffe00
c60c6000
c60c6000
c60c6000
c60c6000
c64c6200
ffefff00
86086000
06006000
0600d800
0780d800
0d80d800
0d819900
09819900
19931900
11e61900
21cc1f00
40980f00
80600000
00000000
00000000
ENDCHAR
STARTCHAR 2540
ENCODING 9536
SWIDTH 962 0
DWIDTH 26 0
BBX 26 27 0 -1
BITMAP
00000000
00020000
40038000
20031800
30fffc00
18031800
10031800
00031a00
05ffff00
04031800
04031800
0c031800
087ff800
18031000
18030000
30031000
f07ff800
60030000
60030000
30030c00
31fffe00
30030000
30030000
30030000
00020000
00000000
00000000
ENDCHAR
STARTCHAR 2541
ENCODING 9537
SWIDTH 962 0
DWIDTH 26 0
BBX 26 27 0 -1
BITMAP
00000000
00100000
401c0000
30181800
183ffc00
1a301800
02683000
06483000
04846000
0406c000
0c038000
0807c000
180c6000
18183800
30300f00
30c00600
f33ff800
60301800
60301800
70301800
30301800
30301800
303ff800
30301000
00200000
00000000
00000000
ENDCHAR
STARTCHAR 2542
ENCODING 9538
SWIDTH 962 0
DWIDTH 26 0
BBX 26 27 0 -1
BITMAP
00000000
00000000
40800c00
20fffe00
30c00c00
18c20c00
10c38c00
02c30c00
02c30c00
04c34c00
04dfec00
0cc30c00
08c30c00
18c30c00
18c68c00
30c64c00
f0c46c00
60cc2c00
60c83c00
30d82c00
30d00c00
30e00c00
30c00c00
30fffc00
00800800
00000000
00000000
ENDCHAR
STARTCHAR 2543
ENCODING 9539
SWIDTH 962 0
DWIDTH 26 0
BBX 26 27 0 -1
BITMAP
00000000
00100000
401c0000
20186000
303ff000
18306000
1060c000
02808000
02011800
04fffc00
04061800
0c061800
08061a00
1bffff00
18061800
30061800
f0061800
60fff800
60061000
30060000
30060000
30060000
30060000
307e0000
000c0000
00000000
00000000
ENDCHAR
STARTCHAR 2544
ENCODING 9540
SWIDTH 962 0
DWIDTH 26 0
BBX 26 27 0 -1
BITMAP
00000000
00000000
10001800
1ffffc00
18001800
18e01800
18c01800
18c19800
18ffd800
19981800
19181800
1a181800
18185800
1ffff800
18181800
19191800
19d9d800
19999800
31999900
31998d00
31998d00
23ff8d00
61010700
40000300
80000100
00000000
00000000
ENDCHAR
STARTCHAR 2545
ENCODING 9541
SWIDTH 962 0
DWIDTH 26 0
BBX 26 27 0 -1
BITMAP
00000000
10003000
1ffff800
18003000
18003000
18033000
1bffb000
18303000
18603000
19433000
19ffb000
19833000
19833000
19833000
19833000
19ff3000
19833000
19833200
19833200
31833200
31ff1a00
21831a00
61020e00
40000700
80000300
00000000
00000000
ENDCHAR
STARTCHAR 2546
ENCODING 9542
SWIDTH 962 0
DWIDTH 26 0
BBX 26 27 0 -1
BITMAP
00000000
00400000
60643000
18c7f800
0d863000
07063000
0cc63000
18663000
64463000
07063000
06363000
fffe3000
06063000
0c063000
0d063000
0dc63000
19863200
1b063200
33463200
26263200
4cec3200
9f2c3300
0c183f00
00301e00
00400000
00000000
00000000
ENDCHAR
STARTCHAR 2547
ENCODING 9543
SWIDTH 962 0
DWIDTH 26 0
BBX 26 27 0 -1
BITMAP
00000000
02000400
03800700
03000600
03008600
0318e600
fffcc600
0300c600
0300c600
0300c600
0300c600
0310c600
7ff8c600
0000c600
0000c600
4030c600
7ff8c600
6030c600
6030c600
60308600
60300600
60300600
7ff00600
60207e00
40000c00
00000000
00000000
ENDCHAR
STARTCHAR 2548
ENCODING 9544
SWIDTH 962 0
DWIDTH 26 0
BBX 26 27 0 -1
BITMAP
00000000
02000400
03800700
03000600
06c08600
0630e600
0c18c600
081cc600
100cc600
2000c600
4030c600
bff8c600
0000c600
0000c600
0000c600
2030c600
3ff8c600
3030c600
3030c600
30308600
30300600
30300600
3ff00600
30207e00
20000c00
00000000
00000000
ENDCHAR
STARTCHAR 2549
ENCODING 9545
SWIDTH 962 0
DWIDTH 26 0
BBX 26 27 0 -1
BITMAP
00000000
04400400
07700700
06600600
06604600
46627600
26676600
36666600
1e686600
16706600
06606600
06606600
06606600
06786600
0e6c6600
36666600
e6626600
46606600
06606600
0c624600
0c620600
18630600
307f0600
603e3e00
80000c00
00000000
00000000
ENDCHAR
STARTCHAR 254a
ENCODING 9546
SWIDTH 962 0
DWIDTH 26 0
BBX 26 27 0 -1
BITMAP
00000000
20000400
38000700
30000600
30108600
3ff8e600
2300c600
6300c600
4300c600
8300c600
0300c600
0318c600
fffcc600
0300c600
0300c600
4310c600
731cc600
6318c600
6318c600
63188600
63180600
63180600
fff80600
40107e00
00000c00
00000000
00000000
ENDCHAR
STARTCHAR 254b
ENCODING 9547
SWIDTH 962 0
DWIDTH 26 0
BBX 26 27 0 -1
BITMAP
00000000
04000400
07000700
06180600
0ffc8600
1818e600
1030c600
2c60c600
46c0c600
0380c600
0300c600
0680c600
18e0c600
e18cc600
03fec600
060cc600
0c0cc600
1818c600
6630c600
03608600
01c00600
01800600
06000600
18007e00
e0000c00
00000000
00000000
ENDCHAR
STARTCHAR 254c
ENCODING 9548
SWIDTH 962 0
DWIDTH 26 0
BBX 26 27 0 -1
BITMAP
00000000
04000400
07000700
06180600
0ffc8600
0c18e600
1818c600
1c30c600
2660c600
43c0c600
81c0c600
0370c600
0638c600
0c1cc600
180cc600
3000c600
dff8c600
1818c600
1818c600
18188600
18180600
18180600
1ff80600
18107e00
10000c00
00000000
00000000
ENDCHAR
STARTCHAR 254d
ENCODING 9549
SWIDTH 962 0
DWIDTH 26 0
BBX 26 27 0 -1
BITMAP
00000000
06000400
03000700
07000600
07808600
0cc0e600
0c60c600
1830c600
3018c600
200ec600
7ff4c600
8300c600
0300c600
0300c600
0300c600
0300c600
3ff0c600
0300c600
0300c600
03008600
03000600
03000600
03f80600
fe007e00
70000c00
00000000
00000000
ENDCHAR
STARTCHAR 254e
ENCODING 9550
SWIDTH 962 0
DWIDTH 26 0
BBX 26 27 0 -1
BITMAP
00000000
02000400
03800700
03000600
06c00600
06608600
0c30e600
1818c600
30ccc600
6fecc600
8000c600
0000c600
0000c600
0018c600
7ffcc600
0600c600
0600c600
0c40c600
0c20c600
18308600
18180600
30fc0600
7f8c0600
38083e00
00000c00
00000000
00000000
ENDCHAR
STARTCHAR 254f
ENCODING 9551
SWIDTH 962 0
DWIDTH 26 0
BBX 26 27 0 -1
BITMAP
00000000
00408000
6070e000
30c0c000
1880c000
0910c000
fff8c600
18c7ff00
18c0c600
18c0c600
18c0c600
18c0c600
18d0c600
fff8c600
18c0c600
18c0c600
18c18600
18c18600
18c18600
18c30600
30c30600
30c60600
20c40e00
40c8fc00
80901800
00000000
00000000
ENDCHAR
STARTCHAR 2550
ENCODING 9552
SWIDTH 962 0
DWIDTH 26 0
BBX 26 27 0 -1
BITMAP
00000000
00000800
00180e00
7ffd0c00
0601cc00
06318c00
0ff98c00
18318c00
30618c00
ccc18c00
07810c00
03000c00
0c00fc00
30401800
c0700000
00601800
7ffffc00
00c01800
00c01800
01801800
03001800
06001800
0c003800
300ff000
c0006000
00000000
00000000
ENDCHAR
STARTCHAR 2551
ENCODING 9553
SWIDTH 962 0
DWIDTH 26 0
BBX 26 27 0 -1
BITMAP
00000000
08000000
0e000000
0c000000
0c000c00
1ffffe00
18400c00
30700c00
20e00c00
41980c00
83060c00
06038c00
0c01ec00
33fc8c00
c0000c00
00000c00
07fe0c00
06060c00
06060c00
06060c00
07fe1c00
04001800
00003800
003ff000
0000e000
00000000
00000000
ENDCHAR
STARTCHAR 2552
ENCODING 9554
SWIDTH 962 0
DWIDTH 26 0
BBX 26 27 0 -1
BITMAP
00000000
10000000
1c000000
18000000
18000c00
1ffffe00
30000c00
20c00c00
41830c00
87ff8c00
06030c00
06630c00
06330c00
06030c00
7fffec00
06030c00
06630c00
06330c00
0c030c00
08030c00
101e1c00
20001800
00003800
000ff000
0000e000
00000000
00000000
ENDCHAR
STARTCHAR 2553
ENCODING 9555
SWIDTH 962 0
DWIDTH 26 0
BBX 26 27 0 -1
BITMAP
00000000
00000000
10001800
1ffffc00
18181800
18181800
18181800
1ffff800
18181800
18181800
18181800
1ffff800
11841000
01c70000
03060000
06060000
18060600
ffffff00
00060000
00060000
00060000
00060000
00060000
00060000
00040000
00000000
00000000
ENDCHAR
STARTCHAR 2554
ENCODING 9556
SWIDTH 962 0
DWIDTH 26 0
BBX 26 27 0 -1
BITMAP
00000000
00080000
000e0000
000c1800
200ffc00
380c0000
320c1800
33fffc00
33001800
33009800
3340f800
3330d800
33199800
330f1800
33061800
330f1800
33199800
3331d800
33c0d800
33001800
33fff800
32001000
30000600
7fffff00
20000000
00000000
00000000
ENDCHAR
STARTCHAR 2555
ENCODING 9557
SWIDTH 962 0
DWIDTH 26 0
BBX 26 27 0 -1
BITMAP
00000000
04402000
07703800
06603000
06623000
8663b000
46633000
66663000
36643800
26683400
06603600
06603300
0e603300
36703200
e66c3000
46663000
06633000
0c633000
0c603000
18613000
18613000
3061b000
207fb000
403f3000
80002000
00000000
00000000
ENDCHAR
STARTCHAR 2556
ENCODING 9558
SWIDTH 962 0
DWIDTH 26 0
BBX 26 27 0 -1
BITMAP
00000000
00400600
3067ff00
0cc18600
03818600
06c18600
0c618600
30318600
c2318600
03818600
03018600
03198600
fffd8600
06018600
06018600
0c018600
1b818600
1b21be00
33118c00
66198000
46098000
8c7d8000
1fcd8000
0e098000
00010000
00000000
00000000
ENDCHAR
STARTCHAR 2557
ENCODING 9559
SWIDTH 962 0
DWIDTH 26 0
BBX 26 27 0 -1
BITMAP
00000000
10000000
1c000000
18010600
3031ff00
3ff98600
63018600
43018600
83018600
03018600
03198600
fffd8600
03018600
03018600
43118600
731d8600
63198600
63198600
63198600
6319be00
63198c00
63198000
fff98000
40118000
00010000
00000000
00000000
ENDCHAR
STARTCHAR 2558
ENCODING 9560
SWIDTH 962 0
DWIDTH 26 0
BBX 26 27 0 -1
BITMAP
00000000
00000000
20000600
3fffff00
30080000
300e0000
300c0000
300c1800
300ffc00
300c0000
300c0000
300c0600
3fffff00
30060000
30060000
30860000
30e64000
30c63000
31861800
21060c00
62060e00
44060600
48060000
807e0000
000c0000
00000000
00000000
ENDCHAR
STARTCHAR 2559
ENCODING 9561
SWIDTH 962 0
DWIDTH 26 0
BBX 26 27 0 -1
BITMAP
00000000
00100000
001c0000
00180600
ffffff00
00180000
10181800
1ffffc00
18181800
18181800
1ffff800
18181800
18181800
1ffff800
10201000
00380000
00700000
00608000
00c04000
01802000
03003000
0607f800
0ffc1c00
07001c00
00000c00
00000000
00000000
ENDCHAR
STARTCHAR 255a
ENCODING 9562
SWIDTH 962 0
DWIDTH 26 0
BBX 26 27 0 -1
BITMAP
00000000
00000000
40180000
7ffc0600
601bff00
60190600
60190600
7ff90600
61910600
61818600
61808c00
69988c00
6ffccc00
6998d800
69985800
69987800
69983000
69987000
69987800
4998d800
49f98c00
49930c00
81860600
818c0700
01300200
00000000
00000000
ENDCHAR
STARTCHAR 255b
ENCODING 9563
SWIDTH 962 0
DWIDTH 26 0
BBX 26 27 0 -1
BITMAP
00000000
00040000
00030000
86018000
ff010c00
c67ffe00
c6018000
c6018000
c6018000
c6018000
c6018000
c6018000
c6019800
c63ffc00
c6018000
c6018000
c6018000
c6018000
fe018000
c4018000
80018000
00018600
01ffff00
00000000
00000000
00000000
00000000
ENDCHAR
STARTCHAR 255c
ENCODING 9564
SWIDTH 962 0
DWIDTH 26 0
BBX 26 27 0 -1
BITMAP
00000000
00000000
000c1000
8cfe1c00
fe0c1800
cc0c1800
cc0c1800
cc8c1800
ccfc1800
ccc81800
ccc01800
ccc01800
cccc3000
cdfe3000
cc8c3000
cc0c3000
cc0c6000
cc0c6400
fc0c6200
c80cc200
800cc300
001d9f00
003be300
03f18300
00600000
00000000
00000000
ENDCHAR
STARTCHAR 255d
ENCODING 9565
SWIDTH 962 0
DWIDTH 26 0
BBX 26 27 0 -1
BITMAP
00000000
00042000
00071800
43060c00
7f860800
63060200
637fff00
63060000
63060000
63060800
63060e00
630d0c00
630d0c00
630d1800
63191800
63199800
6318b000
6330f000
7f206000
6260e000
4041b000
00831800
01060c00
00180700
00600200
00000000
00000000
ENDCHAR
STARTCHAR 255e
ENCODING 9566
SWIDTH 962 0
DWIDTH 26 0
BBX 26 27 0 -1
BITMAP
00000000
00000000
00000c00
437ffe00
7f830c00
63030c00
63030c00
63060c00
63060c00
630c0c00
63181c00
6331f800
63c03000
63000000
63200c00
633ffe00
63300c00
63300c00
7f300c00
62300c00
40300c00
00300c00
003ffc00
00300800
00200000
00000000
00000000
ENDCHAR
STARTCHAR 255f
ENCODING 9567
SWIDTH 962 0
DWIDTH 26 0
BBX 26 27 0 -1
BITMAP
00000000
00000000
00100c00
431ffe00
7f980c00
63180c00
63180c00
63180c00
63180c00
63180c00
63180c00
63180c00
63180c00
631ffc00
63180800
63100000
63000000
63081000
7f0e0800
62180c00
40300600
00600700
00c00300
03000300
00000000
00000000
00000000
ENDCHAR
STARTCHAR 2560
ENCODING 9568
SWIDTH 962 0
DWIDTH 26 0
BBX 26 27 0 -1
BITMAP
00000000
00204000
00387000
86346000
ff376000
c6366000
c6666000
c6666600
c6e67f00
c6e7e600
c77e6600
c6666600
c6666400
c6666c00
c6666800
c6666000
c6666000
c6666200
fe664200
c4660200
80660200
00660300
0067ff00
0063fe00
00400000
00000000
00000000
ENDCHAR
STARTCHAR 2561
ENCODING 9569
SWIDTH 962 0
DWIDTH 26 0
BBX 26 27 0 -1
BITMAP
00000000
00010000
0001c000
86038000
ff034000
c6066000
c60c3000
c6181800
c6310c00
c661c700
c7818200
c6018000
c6118000
c61d9000
c6198800
c6198400
c6318600
c6218600
fe418300
c4818300
81018300
00018000
00018000
001f8000
00030000
00000000
00000000
ENDCHAR
STARTCHAR 2562
ENCODING 9570
SWIDTH 962 0
DWIDTH 26 0
BBX 26 27 0 -1
BITMAP
00000000
00010000
0001c000
86018000
ff018400
c67ffe00
c6018000
c6018000
c6018000
c6119000
c61d1c00
c6181800
c6181800
c6181800
c6ffff00
c6181800
c6181800
c6181800
fe301800
c4301800
80601800
00c01800
01801800
03001800
0c001000
00000000
00000000
ENDCHAR
STARTCHAR 2563
ENCODING 9571
SWIDTH 962 0
DWIDTH 26 0
BBX 26 27 0 -1
BITMAP
00000000
00000000
00000600
007fff00
43000600
7f800600
63002600
633ff600
63000600
63000600
6310c600
631fe600
6318c600
6318c600
6318c600
6318c600
6318c600
631fc600
7f188600
62100600
40000600
00000600
00000600
00007e00
00000c00
00000000
00000000
ENDCHAR
STARTCHAR 2564
ENCODING 9572
SWIDTH 962 0
DWIDTH 26 0
BBX 26 27 0 -1
BITMAP
00000000
00001800
00007c00
0043c000
867c0000
ff600600
c67fff00
c6600600
c6600600
c6600600
c67ffe00
c6600400
c6603000
c66ff800
c6603000
c6606000
c660c000
fe618000
c6630200
84c60200
00cc0200
018c0300
030fff00
0607fe00
08000000
00000000
00000000
ENDCHAR
STARTCHAR 2565
ENCODING 9573
SWIDTH 962 0
DWIDTH 26 0
BBX 26 27 0 -1
BITMAP
00000000
10030000
1c018000
18210600
183fff00
18600600
18c00400
ff400800
18000000
18000600
187fff00
1800c000
1800c000
1800c000
1800c000
1800c000
1800c000
1800c000
1800c000
1f80c000
f000c000
6000c000
0000c000
000fc000
00018000
00000000
00000000
ENDCHAR
STARTCHAR 2566
ENCODING 9574
SWIDTH 962 0
DWIDTH 26 0
BBX 26 27 0 -1
BITMAP
00000000
10030000
1c018000
18408300
187fff00
18c00300
18c00200
ff010400
18008000
1808c000
180e4000
180c6000
180c6000
180c2000
180c3000
18183000
18183000
18181800
1f301800
f8301800
c0600c00
00400c00
00800600
01000700
02000200
00000000
00000000
ENDCHAR
STARTCHAR 2567
ENCODING 9575
SWIDTH 962 0
DWIDTH 26 0
BBX 26 27 0 -1
BITMAP
00000000
10010000
1c01c000
18018000
18018000
18018200
18ffff00
ff018000
18018000
18018000
18018000
18018400
187ffe00
18018000
18038000
1807c000
180da000
1819b000
1f319800
f0619c00
c0c18e00
01818700
06018200
00018000
00010000
00000000
00000000
ENDCHAR
STARTCHAR 2568
ENCODING 9576
SWIDTH 962 0
DWIDTH 26 0
BBX 26 27 0 -1
BITMAP
00000000
10080000
1c0e6000
180c3000
180c1000
180c0200
18ffff00
ff0c0000
180c0000
180c0800
180d0e00
180d0c00
180d0c00
18190c00
18191800
18199800
1830b000
1830f000
1f60e000
f041a000
c0833000
01061800
020c0c00
00300700
00c00200
00000000
00000000
ENDCHAR
STARTCHAR 2569
ENCODING 9577
SWIDTH 962 0
DWIDTH 26 0
BBX 26 27 0 -1
BITMAP
00000000
10000c00
1c41fe00
187f1000
18631000
18631000
18631000
ff631000
18631000
18631000
18631000
18631800
18631800
18631800
18660800
18660800
18664c00
18644c00
1f6c6c00
f8cc2400
c0c83600
009ff600
019e3700
01082300
02000200
00000000
00000000
ENDCHAR
STARTCHAR 256a
ENCODING 9578
SWIDTH 962 0
DWIDTH 26 0
BBX 26 27 0 -1
BITMAP
00000000
01c00000
01808000
03006000
06003000
0c0ff800
3ff81c00
18200c00
00380000
00300000
00600600
ffffff00
01806000
03103000
061c1c00
0c180700
30180200
c0183000
1ffff800
00180000
00180000
00180000
00180600
ffffff00
00000000
00000000
00000000
ENDCHAR
STARTCHAR 256b
ENCODING 9579
SWIDTH 962 0
DWIDTH 26 0
BBX 26 27 0 -1
BITMAP
00000000
00006000
0ffff000
00180000
04184000
02186000
0318c000
01988000
01190000
00181800
3ffffc00
00180000
00180000
00180000
00100000
001c0000
00180000
00183000
1ffff800
00180000
00180000
00180000
00180600
ffffff00
00000000
00000000
00000000
ENDCHAR
STARTCHAR 256c
ENCODING 9580
SWIDTH 962 0
DWIDTH 26 0
BBX 26 27 0 -1
BITMAP
00000000
04000000
07000000
06001800
069ffc00
7fc81800
06081800
06081800
06081800
06441800
ffe43000
00043000
04063000
07026000
06036000
0641c000
7fe18000
0601c000
06036000
06032000
06063000
07ec1800
fc180e00
60300700
00c00200
00000000
00000000
ENDCHAR
STARTCHAR 256d
ENCODING 9581
SWIDTH 962 0
DWIDTH 26 0
BBX 26 27 0 -1
BITMAP
00000000
10400c00
1c7ffe00
18600c00
18600c00
18600c00
18600c00
1a7ffc00
ff600800
18620000
18638000
18630000
18633000
186ff800
18633000
18633000
18633000
18633000
1f633200
f0c63200
40c63200
018c3300
01183f00
02101e00
04200000
00000000
00000000
ENDCHAR
STARTCHAR 256e
ENCODING 9582
SWIDTH 962 0
DWIDTH 26 0
BBX 26 27 0 -1
BITMAP
00000000
10000000
1c464600
187f7f00
18666600
18666600
18666600
1a666600
ff666600
18666600
18666600
18666600
18666600
18666600
1867e600
18644600
18600600
18600600
18600600
1f600600
f8600600
60600600
007ffe00
00600600
00400400
00000000
00000000
ENDCHAR
STARTCHAR 256f
ENCODING 9583
SWIDTH 962 0
DWIDTH 26 0
BBX 26 27 0 -1
BITMAP
00000000
00000c00
7ffffe00
00100000
001c2000
08183800
06183000
03306000
02668000
00c18000
03007000
0c001c00
30800e00
c0e00600
00c00000
18c03000
05fff800
03006000
0780c000
18638000
601e0000
00338000
00c0e000
07003f00
78000c00
00000000
00000000
ENDCHAR
STARTCHAR 2570
ENCODING 9584
SWIDTH 962 0
DWIDTH 26 0
BBX 26 27 0 -1
BITMAP
00000000
20008000
3800e000
3010c000
301cc000
3018c000
3318c400
3f9ffe00
6318c000
6330c000
6320c000
6340c000
5300c000
5b00c000
8e00c400
861ffe00
0600c000
0c00c000
0c00c000
1800c000
1800c000
3000c000
2000c600
407fff00
80000000
00000000
00000000
ENDCHAR
STARTCHAR 2571
ENCODING 9585
SWIDTH 962 0
DWIDTH 26 0
BBX 26 27 0 -1
BITMAP
00000000
00200000
00380000
00300600
ffffff00
00618000
00c0c000
01806000
03003000
06009c00
0d80cf00
30c18200
c0430000
1ffff000
00180000
00180000
00180000
00181800
3ffffc00
00180000
00180000
00180000
00180000
00180000
00100000
00000000
00000000
ENDCHAR
STARTCHAR 2572
ENCODING 9586
SWIDTH 962 0
DWIDTH 26 0
BBX 26 27 0 -1
BITMAP
00000000
00200000
00380000
00300600
ffffff00
00c18000
0180c000
03006000
06003000
0c001c00
18000f00
3ffffa00
c6000000
06000000
06006000
07fff000
06006000
06006000
06006000
07ffe000
06004000
06000000
06000c00
7ffffe00
00000000
00000000
00000000
ENDCHAR
STARTCHAR 2573
ENCODING 9587
SWIDTH 962 0
DWIDTH 26 0
BBX 26 27 0 -1
BITMAP
00000000
00200000
00380000
00300600
ffffff00
00618000
00c0c000
01806000
03003000
06001c00
0c00c700
33ffe200
c300c000
0300c000
0300c000
03ffc000
0300c000
0300c000
0300c000
03ffc000
0300c000
0300c000
0300c600
ffffff00
00000000
00000000
00000000
ENDCHAR
STARTCHAR 2574
ENCODING 9588
SWIDTH 962 0
DWIDTH 26 0
BBX 26 27 0 -1
BITMAP
00000000
00200000
00380000
00300600
ffffff00
00618000
00c0c000
01906000
03383000
06611c00
0cc08f00
31804200
c30fe000
0ff83000
06003000
01818000
01818000
01818400
7ffffe00
01818000
03018000
06018000
0c018000
18018000
60010000
00000000
00000000
ENDCHAR
STARTCHAR 2575
ENCODING 9589
SWIDTH 962 0
DWIDTH 26 0
BBX 26 27 0 -1
BITMAP
00000000
00400000
00700000
00600600
ffffff00
00c0c000
01806000
03003000
0600dc00
0c07ef00
37fe0200
c6060000
06060000
06061800
07fffc00
06060000
06030000
06030000
06018400
0600c400
06206400
06c03400
07809e00
033fce00
00000400
00000000
00000000
ENDCHAR
STARTCHAR 2576
ENCODING 9590
SWIDTH 962 0
DWIDTH 26 0
BBX 26 27 0 -1
BITMAP
00000000
00200000
00380000
00300600
ffffff00
00618000
00c0c000
01806000
03003000
0700dc00
0c1fef00
37f84200
c6184000
06184000
06184000
06184000
06184000
0c186000
0c302000
08323000
18611800
10c09c00
218fce00
47f8c700
8300c200
00000000
00000000
ENDCHAR
STARTCHAR 2577
ENCODING 9591
SWIDTH 962 0
DWIDTH 26 0
BBX 26 27 0 -1
BITMAP
00000000
00200000
00380000
00700000
08c03000
0ffff800
0c003000
0c003000
0c003000
0ffff000
0c003000
0c003000
0c003000
0ffff000
08202000
00380000
00300600
ffffff00
00620000
00c18000
0180c000
03007000
06003c00
18001f00
e0000800
00000000
00000000
ENDCHAR
STARTCHAR 2578
ENCODING 9592
SWIDTH 962 0
DWIDTH 26 0
BBX 26 27 0 -1
BITMAP
00000000
04004000
07007000
06006000
06006000
06406400
7fe7fe00
06006000
06006000
06006000
06406200
ffefff00
06006000
06006000
06006000
0d00d000
0d00d000
0c80d000
0cc19800
18c18800
18c30c00
30060c00
200c0600
40180700
80600200
00000000
00000000
ENDCHAR
STARTCHAR 2579
ENCODING 9593
SWIDTH 962 0
DWIDTH 26 0
BBX 26 27 0 -1
BITMAP
00000000
00200000
00380000
00300000
00300600
ffffff00
10620400
0c618700
06c0cc00
05836800
03ffb000
06001c00
0c000f00
30006600
cffff000
00c00000
00c00000
01803000
03fff800
01003000
00003000
00006000
0000e000
001fc000
00018000
00000000
00000000
ENDCHAR
STARTCHAR 257a
ENCODING 9594
SWIDTH 962 0
DWIDTH 26 0
BBX 26 27 0 -1
BITMAP
00000000
04020000
07038800
06030e00
06430c00
07e30c00
26030c00
361fff00
36830c00
3fc30c00
31830c00
21860c00
21860c00
598c1800
4d8c1800
87183000
033f3000
0619e000
0600f000
0c019800
0c030c00
18060600
300c0700
20300300
40c00000
00000000
00000000
ENDCHAR
STARTCHAR 257b
ENCODING 9595
SWIDTH 962 0
DWIDTH 26 0
BBX 26 27 0 -1
BITMAP
00000000
20008000
3800e000
3000c000
3300c000
3300c000
ffc0c200
f300ff00
3300c000
3300c000
3300c000
3300c000
3310c600
631fff00
66180600
66180600
f6180600
5c180600
0e180600
1b180600
13980600
21980600
401ffe00
80180400
00100000
00000000
00000000
ENDCHAR
STARTCHAR 257c
ENCODING 9596
SWIDTH 962 0
DWIDTH 26 0
BBX 26 27 0 -1
BITMAP
00000000
20004000
38107000
301c6000
30186000
33186000
33306600
ffb1ff00
f3266600
33666600
33c46600
336c6600
63386600
63186600
63186600
e6106600
56306600
0c246600
0e626600
1b4ec600
19f2c600
31418600
60030e00
8006fc00
00081800
00000000
00000000
ENDCHAR
STARTCHAR 257d
ENCODING 9597
SWIDTH 962 0
DWIDTH 26 0
BBX 26 27 0 -1
BITMAP
00000000
20008000
3800ec00
3000c600
3300c200
3320c000
ffbfff00
f330c000
3330c000
3330c400
3330c700
3330c600
3330c600
63306600
66306c00
66306c00
f6307800
5c303800
0e313000
1b367900
13bc7900
21b8cd00
40118700
80030300
000c0100
00000000
00000000
ENDCHAR
STARTCHAR 257e
ENCODING 9598
SWIDTH 962 0
DWIDTH 26 0
BBX 26 27 0 -1
BITMAP
00000000
20008000
3810e400
301cc700
3218c600
3318c600
331ffe00
ff900400
f3000000
33200600
333fff00
33300000
63300000
63300000
63300000
e6300000
56300000
0c300000
0e300000
1b300000
19b00000
31200000
60600000
80400000
00800000
00000000
00000000
ENDCHAR
STARTCHAR 2621
ENCODING 9761
SWIDTH 962 0
DWIDTH 26 0
BBX 26 27 0 -1
BITMAP
00000000
20080000
385c0000
30708600
3060ff00
3264c600
3366c600
ffe6c600
f366c600
3366c600
3366c600
3366c600
3366c600
6366c600
6366c600
6666c600
f666c600
5c6ec600
0e76fe00
1b26cc00
198cc000
310cc000
6018c000
8030c000
00c08000
00000000
00000000
ENDCHAR
STARTCHAR 2622
ENCODING 9762
SWIDTH 962 0
DWIDTH 26 0
BBX 26 27 0 -1
BITMAP
00000000
00010000
00c1c000
7fe18000
00c18000
01830800
03030400
06060600
060c0200
06183f00
063fe300
061e0300
07c80000
fe000000
66080600
060fff00
060c0600
060c0600
060c0600
060c0600
060c0600
060c0600
060ffe00
7e0c0400
0c080000
00000000
00000000
ENDCHAR
STARTCHAR 2623
ENCODING 9763
SWIDTH 962 0
DWIDTH 26 0
BBX 26 27 0 -1
BITMAP
00000000
00100000
081c2000
06183800
03186000
23188000
20180600
7fffff00
60000600
c0000400
c000c800
0fffe000
0001c000
00030000
001e0000
00180600
ffffff00
00180000
00180000
00180000
00180000
00180000
00180000
03f80000
00700000
00000000
00000000
ENDCHAR
STARTCHAR 2624
ENCODING 9764
SWIDTH 962 0
DWIDTH 26 0
BBX 26 27 0 -1
BITMAP
00000000
04010000
0701c000
06318000
fff98000
06018000
06018000
46318000
7ff98000
c0318000
c0218000
00c18000
3fe18000
00c18000
01818000
03018000
03318000
03c18200
ff018200
73018200
03018200
03018300
0301ff00
3f00fe00
06000000
00000000
00000000
ENDCHAR
STARTCHAR 2625
ENCODING 9765
SWIDTH 962 0
DWIDTH 26 0
BBX 26 27 0 -1
BITMAP
00000000
00400000
00300000
00180000
20100600
3fffff00
60000600
e000c400
4fffe800
00c00000
00c00000
00c0c000
00ffe000
0180c000
0180c000
0320c000
03118000
06198000
06198000
00030000
00030000
00060000
00060600
ffffff00
00000000
00000000
00000000
ENDCHAR
STARTCHAR 2626
ENCODING 9766
SWIDTH 962 0
DWIDTH 26 0
BBX 26 27 0 -1
BITMAP
00000000
00000000
08003000
0ffff800
0c003000
0c003000
0ffff000
0c003000
0c003000
0ffff000
00000000
00003000
1ffff800
0000c000
0000c000
0000c600
ffffff00
0000c000
0c00c000
0700c000
0380c000
0180c000
0000c000
003fc000
00018000
00000000
00000000
ENDCHAR
STARTCHAR 2627
ENCODING 9767
SWIDTH 962 0
DWIDTH 26 0
BBX 26 27 0 -1
BITMAP
00000000
08004000
0e007000
0c006000
0c086600
0c0fff00
0c4c6600
ffec6400
0d8c6800
0d8c6000
0d8ffc00
0d8d0c00
0d8d0c00
098d0c00
198c9800
198cb000
19886000
1198d000
31919800
31a30c00
218c0900
61800100
41ffff00
c0ffff00
80000000
00000000
00000000
ENDCHAR
STARTCHAR 2628
ENCODING 9768
SWIDTH 962 0
DWIDTH 26 0
BBX 26 27 0 -1
BITMAP
00000000
08000000
0e040000
0c070000
0c060000
0c060000
0c860c00
ffdffe00
1b060000
1b060000
1b0c0800
1b0ffc00
1b08c000
1b18c000
1b10c000
1b20c000
1b40c000
331ffe00
33000000
33000200
23000200
63000300
43ffff00
41fffe00
80000000
00000000
00000000
ENDCHAR
STARTCHAR 2629
ENCODING 9769
SWIDTH 962 0
DWIDTH 26 0
BBX 26 27 0 -1
BITMAP
00000000
01000000
10800000
1cc01800
186ffc00
3060c000
2030c000
4030c000
9100c000
19c0d000
1987f800
1980c000
1980c000
1980c000
1980c000
1980c000
1980cc00
199ffe00
31800000
31800200
21800200
61800300
41ffff00
40fffe00
80000000
00000000
00000000
ENDCHAR
STARTCHAR 262a
ENCODING 9770
SWIDTH 962 0
DWIDTH 26 0
BBX 26 27 0 -1
BITMAP
00000000
10000c00
1ffffe00
18000c00
18000c00
18000c00
1ffffc00
18000000
18007000
1807f800
1bfc0000
18000000
18180000
180c3000
1bfff800
18006000
1801c000
18070000
180c0000
30380000
30e00000
23c00000
4f7fff00
8c1ffe00
00000000
00000000
00000000
ENDCHAR
STARTCHAR 262b
ENCODING 9771
SWIDTH 962 0
DWIDTH 26 0
BBX 26 27 0 -1
BITMAP
00000000
20000c00
3ffffe00
30000c00
30000c00
30000c00
3ffffc00
30400000
30e0c000
31803000
33201c00
36380e00
38300600
36306000
337ff000
30c06000
31e0c000
33318000
341b0000
300e0000
201b0000
6060c000
40c07000
43001f00
9c000600
00000000
00000000
ENDCHAR
STARTCHAR 262c
ENCODING 9772
SWIDTH 962 0
DWIDTH 26 0
BBX 26 27 0 -1
BITMAP
00000000
20000c00
3ffffe00
30000c00
30000c00
30000c00
30000c00
3ffffc00
30040000
30070000
30063000
3107f800
31fe0000
31860000
31860000
31860c00
33fffe00
310e0c00
301e0c00
20360c00
60660c00
40c61c00
4306f800
8c063000
00040000
00000000
00000000
ENDCHAR
STARTCHAR 262d
ENCODING 9773
SWIDTH 962 0
DWIDTH 26 0
BBX 26 27 0 -1
BITMAP
00000000
00100000
101c1000
1c181c00
18301800
18601800
3ffff800
11801000
06000000
18003000
6ffff800
0c003000
0c303000
0c183000
0c103600
ffffff00
18003000
18603000
18303000
18203400
3ffffe00
10006000
0000e000
000fc000
00018000
00000000
00000000
ENDCHAR
STARTCHAR 262e
ENCODING 9774
SWIDTH 962 0
DWIDTH 26 0
BBX 26 27 0 -1
BITMAP
00000000
10008000
1c00e000
1800cc00
1800c600
1800c200
9990c000
999fff00
9998c000
9998c000
9998c300
9998c300
9998c300
99986600
99986600
99986400
99986c00
99983800
9998b000
999b3100
ff9e7900
811cd900
80098d00
00030700
000c0300
00000000
00000000
ENDCHAR
STARTCHAR 262f
ENCODING 9775
SWIDTH 962 0
DWIDTH 26 0
BBX 26 27 0 -1
BITMAP
00000000
10000000
1c200c00
183ffe00
18300c00
18300c00
99300c00
99300c00
99300c00
99300c00
99300c00
993ffc00
99266800
99066000
99066000
99066000
99066000
990c6200
990c6200
99186200
ff186200
81306300
80607f00
00c03e00
03000000
00000000
00000000
ENDCHAR
STARTCHAR 2630
ENCODING 9776
SWIDTH 962 0
DWIDTH 26 0
BBX 26 27 0 -1
BITMAP
00000000
10000c00
1c10fe00
181f8000
18180600
181fff00
99980600
99980600
99980600
999ffe00
99980000
99980c00
999bfe00
99980c00
99981800
99983000
99986000
9998c000
99998100
999b0100
ff960100
81360100
8027ff00
0043ff00
00800000
00000000
00000000
ENDCHAR
STARTCHAR 2631
ENCODING 9777
SWIDTH 962 0
DWIDTH 26 0
BBX 26 27 0 -1
BITMAP
00000000
00100000
101c1000
1c181c00
18181800
3ffff800
10000000
04006000
07fff000
06006000
06006000
06006000
07ffe000
00000000
00000600
ffffff00
03000000
06006000
0ffff000
04006000
00006000
00006000
0000c000
007f8000
00030000
00000000
00000000
ENDCHAR
STARTCHAR 2632
ENCODING 9778
SWIDTH 962 0
DWIDTH 26 0
BBX 26 27 0 -1
BITMAP
00000000
00000000
00006000
1ffff000
0000c000
00018000
00060400
018c0e00
7fce1800
018da000
018cc000
030c6000
060c3000
0c0c1c00
18fc0f00
30180200
c0000000
00100000
201c0800
38180e00
30180c00
30180c00
30180c00
7ffffc00
20000800
00000000
00000000
ENDCHAR
STARTCHAR 2633
ENCODING 9779
SWIDTH 962 0
DWIDTH 26 0
BBX 26 27 0 -1
BITMAP
00000000
00100000
101c1000
1c181c00
18181800
18181800
3ffff800
10001000
00000000
20001800
3ffffc00
30000000
30000000
31006000
31fff000
31806000
31806000
31806000
31ffe000
31804000
31000000
30000000
30000c00
7ffffe00
20000000
00000000
00000000
ENDCHAR
STARTCHAR 2634
ENCODING 9780
SWIDTH 962 0
DWIDTH 26 0
BBX 26 27 0 -1
BITMAP
00000000
00100000
001c0000
10181000
1c181c00
18181800
18181800
18181800
3ffff800
10001000
00000000
00000000
10001800
1ffffc00
18181800
18181800
18181800
18181800
1ffff800
18181800
18181800
18181800
18181800
1ffff800
10001000
00000000
00000000
ENDCHAR
STARTCHAR 2635
ENCODING 9781
SWIDTH 962 0
DWIDTH 26 0
BBX 26 27 0 -1
BITMAP
00000000
1000c000
1c006000
18082000
180fff00
99980300
ffd80200
99800400
99800000
99800600
999fff00
99806000
99806000
99806000
99806000
99806000
99806000
99806000
99806000
9f806000
99006000
18006000
18006000
1807e000
1000c000
00000000
00000000
ENDCHAR
STARTCHAR 2636
ENCODING 9782
SWIDTH 962 0
DWIDTH 26 0
BBX 26 27 0 -1
BITMAP
00000000
10040000
1c070000
18060000
18060c00
9987fe00
ffcc0c00
998a1800
99921800
99a13000
9981e000
9980c000
9981e000
99833000
99861c00
998d8f00
9998e200
99e07000
99803000
9f800000
99030000
1800c000
18007000
18003800
10001800
00000000
00000000
ENDCHAR
STARTCHAR 2637
ENCODING 9783
SWIDTH 962 0
DWIDTH 26 0
BBX 26 27 0 -1
BITMAP
00000000
1c000000
18c41800
1fe7fc00
30c61800
20c61800
58c61800
8d86f800
05863200
03060200
06060300
0c07ff00
3013fe00
c01c0000
00180000
10181800
1ffffc00
18181800
18181800
18181800
18181800
18181800
1819f800
10183000
00100000
00000000
00000000
ENDCHAR
STARTCHAR 2638
ENCODING 9784
SWIDTH 962 0
DWIDTH 26 0
BBX 26 27 0 -1
BITMAP
00000000
00180000
000c0000
20040600
3fffff00
30000000
30080000
30040000
30060000
30020c00
33fffe00
30000000
30002000
30803800
30403000
30607000
30306000
30306000
3038c000
30188000
20198000
20010600
47ffff00
40000000
80000000
00000000
00000000
ENDCHAR
STARTCHAR 2639
ENCODING 9785
SWIDTH 962 0
DWIDTH 26 0
BBX 26 27 0 -1
BITMAP
00000000
00180000
000c0000
20040600
3fffff00
30000000
30206000
30383000
30302000
30300600
37ffff00
30301000
30301c00
30301800
30683000
30683000
30646000
30c6c000
30c38000
3183c000
21066000
220c3000
44301c00
48c00f00
83000400
00000000
00000000
ENDCHAR
STARTCHAR 263a
ENCODING 9786
SWIDTH 962 0
DWIDTH 26 0
BBX 26 27 0 -1
BITMAP
00000000
00180000
000c0000
20040600
3fffff00
30000000
30000000
31001800
31fffc00
31801800
31801800
31801800
31801800
31fff800
31801800
31801800
31801800
31801800
31fff800
31001000
20000000
20000000
40000600
4fffff00
80000000
00000000
00000000
ENDCHAR
STARTCHAR 263b
ENCODING 9787
SWIDTH 962 0
DWIDTH 26 0
BBX 26 27 0 -1
BITMAP
00000000
00180000
000c0000
20040600
3fffff00
30000000
30000000
30000000
30801800
30fffc00
30c01800
30c01800
30c01800
30c01800
30c01800
30c01800
30fff800
30801000
30000000
30202000
20701800
20c00c00
41800600
43000700
8c000300
00000000
00000000
ENDCHAR
STARTCHAR 263c
ENCODING 9788
SWIDTH 962 0
DWIDTH 26 0
BBX 26 27 0 -1
BITMAP
00000000
00180000
000c0000
20040600
3fffff00
30000000
30800000
30e00000
30c00000
30c00c00
30fffe00
30860000
31860000
31060800
3207fc00
34060000
30060000
30060800
3007fc00
30060000
20060000
20060000
40060000
40060000
80040000
00000000
00000000
ENDCHAR
STARTCHAR 263d
ENCODING 9789
SWIDTH 962 0
DWIDTH 26 0
BBX 26 27 0 -1
BITMAP
00000000
00180000
000c0000
20040600
3fffff00
30000000
30040000
30070000
30060000
300d8000
30186000
30303000
306fdc00
30c00f00
31800400
36003000
30fff800
30003000
30006000
3030c000
200d8000
20070000
40038000
4001c000
8000c000
00000000
00000000
ENDCHAR
STARTCHAR 263e
ENCODING 9790
SWIDTH 962 0
DWIDTH 26 0
BBX 26 27 0 -1
BITMAP
00000000
00180000
000c0000
20080600
3fffff00
30000000
30400000
30700000
30603000
307ff800
30c60000
30c60000
31860000
32060000
30060000
30060c00
37fffe00
300c8000
30186000
20303000
60601800
40c00c00
41800e00
86000600
18000000
00000000
00000000
ENDCHAR
STARTCHAR 263f
ENCODING 9791
SWIDTH 962 0
DWIDTH 26 0
BBX 26 27 0 -1
BITMAP
00000000
00100000
001c0000
00183000
1ffff800
00180000
00180000
00180400
7ffffe00
00c18000
01818000
0601fe00
1800ff00
62000000
0380c000
0300c000
0300c600
ffffff00
0300c000
0300c000
0600c000
0c00c000
1800c000
3000c000
c0008000
00000000
00000000
ENDCHAR
STARTCHAR 2640
ENCODING 9792
SWIDTH 962 0
DWIDTH 26 0
BBX 26 27 0 -1
BITMAP
00000000
00000000
03100600
ff9fff00
03180600
03180600
03180600
43180600
7f1ffe00
6218c400
6018c000
c018c000
c318c600
ff9fff00
0318c000
0318c000
0318c000
03186000
03186000
03183200
03183200
0318da00
061b0e00
fc1e0700
180c0300
00000000
00000000
ENDCHAR
STARTCHAR 2641
ENCODING 9793
SWIDTH 962 0
DWIDTH 26 0
BBX 26 27 0 -1
BITMAP
00000000
00008000
0300e000
ff80c000
0310c600
031fff00
0318c600
4318c400
7f18c800
6218c000
6018c000
c01ffc00
c3190c00
ff990c00
03190c00
03190c00
03189800
03189800
03187000
03106000
0330f000
03219800
06430c00
fc860700
18180200
00000000
00000000
ENDCHAR
STARTCHAR 2642
ENCODING 9794
SWIDTH 962 0
DWIDTH 26 0
BBX 26 27 0 -1
BITMAP
00000000
01c00000
0180c000
03ffe000
0300c000
06018000
0fff8000
04030000
00030600
ffffff00
0c600000
18c80000
318e0000
630c1800
87fffc00
0e0c1800
1e0c1800
360c1800
c60c1800
060c1800
060c1800
060df800
040c3000
000c0000
00080000
00000000
00000000
ENDCHAR
STARTCHAR 2643
ENCODING 9795
SWIDTH 962 0
DWIDTH 26 0
BBX 26 27 0 -1
BITMAP
00000000
04000000
07000800
06000c00
06001800
06003000
06206000
07f0c000
06018400
06060600
06000c00
06001800
06003000
46606000
7ff0c200
60630300
606c0600
60600c00
60601800
60603000
60606000
6060c000
7fe30000
604c0000
40000000
00000000
00000000
ENDCHAR
STARTCHAR 2644
ENCODING 9796
SWIDTH 962 0
DWIDTH 26 0
BBX 26 27 0 -1
BITMAP
00000000
00003800
0807fc00
0ffc0000
0c000000
0c000000
0c000600
0fffff00
0c018000
0c018000
0c018000
18018000
18018000
10018000
20018000
40190000
820c0000
23860800
23024400
23004600
63004300
e3006300
c3ffe300
01ffc000
00000000
00000000
00000000
ENDCHAR
STARTCHAR 2645
ENCODING 9797
SWIDTH 962 0
DWIDTH 26 0
BBX 26 27 0 -1
BITMAP
00000000
001c0000
00380000
00760000
00c30000
0181c000
06007000
0d011f00
31c1c400
c1818000
01818000
01818000
03018000
02018000
04018000
08310000
02180000
038c0000
13080000
13004800
23004400
63006600
c3ffe300
41ffc200
00000000
00000000
00000000
ENDCHAR
STARTCHAR 2646
ENCODING 9798
SWIDTH 962 0
DWIDTH 26 0
BBX 26 27 0 -1
BITMAP
00000000
10020000
1c010000
18018000
18408600
187fff00
18c00600
5cc00400
5a000000
5b000c00
da7ffe00
d8018000
d8018000
18018000
18018000
18018000
18018000
18018000
18018000
18018000
18018000
18018000
18018000
181f8000
10030000
00000000
00000000
ENDCHAR
STARTCHAR 2647
ENCODING 9799
SWIDTH 962 0
DWIDTH 26 0
BBX 26 27 0 -1
BITMAP
00000000
10010000
1c01c000
18018000
18018000
18018600
18ffff00
5c018000
5a018000
5b018000
da018000
d8018c00
d87ffe00
18038000
1803c000
1807a000
180d9000
180d9800
18198c00
18318e00
18618700
18818200
19018000
18018000
10010000
00000000
00000000
ENDCHAR
STARTCHAR 2648
ENCODING 9800
SWIDTH 962 0
DWIDTH 26 0
BBX 26 27 0 -1
BITMAP
00000000
10010000
1c01c000
18018000
18018000
18018000
1c018600
5a7fff00
5b034000
5b064000
d8062000
d80c3000
d8191800
1831cc00
18c18700
1b018200
18018000
183ffc00
18018000
18018000
18018000
18018000
18018000
18018000
10010000
00000000
00000000
ENDCHAR
STARTCHAR 2649
ENCODING 9801
SWIDTH 962 0
DWIDTH 26 0
BBX 26 27 0 -1
BITMAP
00000000
10020000
1c038000
18030000
18030600
18ffff00
1c060000
5a0c0000
5b0c1000
5b180800
d8300400
d860fe00
d8ffc600
186cc600
180cc000
180cc000
180cc000
180cc200
1818c200
1818c200
1830c200
1860c300
18c0ff00
19807e00
12000000
00000000
00000000
ENDCHAR
STARTCHAR 264a
ENCODING 9802
SWIDTH 962 0
DWIDTH 26 0
BBX 26 27 0 -1
BITMAP
00000000
10000000
1c400600
187fff00
18618600
18618600
1c618600
5a618600
5b7ffe00
5b618600
d8618600
d8618600
d8618600
187ffe00
18618400
18418000
18018000
18018000
18018000
18018000
18018000
18018000
18018000
18018000
10010000
00000000
00000000
ENDCHAR
STARTCHAR 264b
ENCODING 9803
SWIDTH 962 0
DWIDTH 26 0
BBX 26 27 0 -1
BITMAP
00000000
10000000
1c100c00
181ffe00
18180c00
181a0c00
1c198c00
5a18cc00
5b18cc00
5b180c00
d8180c00
d8ffff00
d8300c00
18320c00
18318c00
1830cc00
1830cc00
18300c00
18300c00
187fff00
18201800
18001800
18003000
180fe000
1000c000
00000000
00000000
ENDCHAR
STARTCHAR 264c
ENCODING 9804
SWIDTH 962 0
DWIDTH 26 0
BBX 26 27 0 -1
BITMAP
00000000
10010000
1c01c000
18218800
18398e00
18318c00
1c318c00
5a318c00
5b318c00
5b318c00
d87ffc00
d8218800
d8018000
18018000
18418400
18718700
18618600
18618600
18618600
18618600
18618600
18618600
18fffe00
18400600
10000400
00000000
00000000
ENDCHAR
STARTCHAR 264d
ENCODING 9805
SWIDTH 962 0
DWIDTH 26 0
BBX 26 27 0 -1
BITMAP
00000000
10040000
1c070000
18060000
18060c00
180ffe00
1c0c0c00
5a1a1800
5b121800
5b213000
d841e000
d800c000
d801e000
18033000
18061c00
180d8700
1830e200
18c07000
18003000
18000000
18030000
1800c000
18007000
18003800
10001800
00000000
00000000
ENDCHAR
STARTCHAR 264e
ENCODING 9806
SWIDTH 962 0
DWIDTH 26 0
BBX 26 27 0 -1
BITMAP
00000000
10080800
1c0e0e00
180c0c00
180c0c00
18180c00
1c180c00
5a33ff00
5b380c00
5b580c00
d8580c00
d8990c00
d8188c00
1818cc00
18186c00
18186c00
18180c00
18180c00
18180c00
18180c00
18180c00
18180c00
18180c00
1819fc00
10101800
00000000
00000000
ENDCHAR
STARTCHAR 264f
ENCODING 9807
SWIDTH 962 0
DWIDTH 26 0
BBX 26 27 0 -1
BITMAP
00000000
10000000
1c000c00
1820fe00
183fc000
1830c000
1c30c000
5a30c000
5b30c000
5b30c600
d83fff00
d830c000
d830c000
1830c000
1830c000
18306000
18306200
18306200
18313200
18363200
183c1a00
18180e00
18006700
183ff300
10000000
00000000
00000000
ENDCHAR
STARTCHAR 2650
ENCODING 9808
SWIDTH 962 0
DWIDTH 26 0
BBX 26 27 0 -1
BITMAP
00000000
00000c00
7ffffe00
00600000
00600000
00606000
1ffff000
00c06000
00c06000
00c06000
01806000
01806600
ffffff00
00000000
00200000
02180000
038c0000
030e1000
13060800
13004c00
33004600
33006600
63ffe600
61ffc000
00000000
00000000
00000000
ENDCHAR
STARTCHAR 2651
ENCODING 9809
SWIDTH 962 0
DWIDTH 26 0
BBX 26 27 0 -1
BITMAP
00000000
10060000
1c030000
18038000
1806c000
180c6000
1c183000
5a301c00
5b600f00
dac00400
d9000000
98001800
187ffc00
18030000
18030000
18030000
18030000
18030000
18030000
18030000
18030000
18030000
18030600
19ffff00
10000000
00000000
00000000
ENDCHAR
STARTCHAR 2652
ENCODING 9810
SWIDTH 962 0
DWIDTH 26 0
BBX 26 27 0 -1
BITMAP
00000000
20000000
38000c00
331ffe00
31818c00
30818c00
30018c00
ffe18c00
300ffc00
30018c00
31018c00
31c18c00
31818c00
198ffc00
1b018c00
1b018c00
1e018c00
0e018d00
0c430d00
0e430d00
1e420d00
13460d00
21c40f00
40c80700
80500000
00000000
00000000
ENDCHAR
STARTCHAR 2653
ENCODING 9811
SWIDTH 962 0
DWIDTH 26 0
BBX 26 27 0 -1
BITMAP
00000000
00010000
0001d800
00018c00
00018600
00018400
ffffff00
00018000
03818000
03018400
06c18700
0c318600
18198600
300d8600
cfe98c00
0000cc00
0030d800
1ff87800
00307100
00306100
0060f100
00c19900
00830d00
01040700
00180300
00000000
00000000
ENDCHAR
STARTCHAR 2654
ENCODING 9812
SWIDTH 962 0
DWIDTH 26 0
BBX 26 27 0 -1
BITMAP
00000000
10208000
1c38e000
1830cc00
1830c600
3468c300
2644c200
4486c000
8104c000
ffffff00
0000c000
0000c800
0000ce00
0000cc00
0000cc00
0000d800
0000d800
00007000
00007100
0000e100
0001b100
00031900
00060d00
00180700
00600300
00000000
00000000
ENDCHAR
STARTCHAR 2655
ENCODING 9813
SWIDTH 962 0
DWIDTH 26 0
BBX 26 27 0 -1
BITMAP
00000000
00003800
200ffc00
3ff80000
30000000
30000c00
3ffffe00
30000c00
30000c00
30000c00
3ffffc00
30080800
300e0000
300c0000
300c0c00
3ffffe00
300c0000
310c2000
318c1000
230c0800
220c0c00
440c0600
480c0600
900c0000
00080000
00000000
00000000
ENDCHAR
STARTCHAR 2656
ENCODING 9814
SWIDTH 962 0
DWIDTH 26 0
BBX 26 27 0 -1
BITMAP
00000000
00003800
200ffc00
3ff80000
30000000
30000c00
3ffffe00
30000c00
30000c00
30000c00
3ffffc00
30000800
37ffe000
31806000
3180c000
31818000
31fff800
31b01800
31983000
310c6000
23038000
2207c000
440c7000
48701f00
93800600
00000000
00000000
ENDCHAR
STARTCHAR 2657
ENCODING 9815
SWIDTH 962 0
DWIDTH 26 0
BBX 26 27 0 -1
BITMAP
00000000
01000000
21c00c00
39807e00
319fc000
3180c000
3180c000
3180c000
3180c400
7f9ffe00
2180c000
0180c000
0180c000
3f80c000
3180c200
31bfff00
3180c000
3180c000
3180c000
3180c000
3180c000
2180c000
6180c000
418fc000
81018000
00000000
00000000
ENDCHAR
STARTCHAR 2658
ENCODING 9816
SWIDTH 962 0
DWIDTH 26 0
BBX 26 27 0 -1
BITMAP
00000000
10020000
1c018000
1820c000
18208600
183fff00
ff600600
18c00400
18408800
18004000
18004000
18084000
180e6000
1f0c6000
f80c6000
d80c3000
18183000
18183000
18101800
18301800
18600c00
18400e00
18c00700
f8800200
31000000
00000000
00000000
ENDCHAR
STARTCHAR 2659
ENCODING 9817
SWIDTH 962 0
DWIDTH 26 0
BBX 26 27 0 -1
BITMAP
00000000
10000000
1c020000
18018000
1800c000
18008800
ff000e00
18040c00
18070c00
18061800
18061800
18263000
18263000
1f266400
f8266200
d866c300
1866c300
18c78200
18c70800
180e0800
181e0800
18360c00
1867fc00
f983f800
30000000
00000000
00000000
ENDCHAR
STARTCHAR 265a
ENCODING 9818
SWIDTH 962 0
DWIDTH 26 0
BBX 26 27 0 -1
BITMAP
00000000
04004000
07007000
06006000
06206000
fff06200
060fff00
06006000
7fe06000
66606000
66606600
6667ff00
66620600
66620600
66610600
66610c00
66608c00
6660d800
66607000
67e07000
4640f800
06019c00
06030e00
060c0700
04300200
00000000
00000000
ENDCHAR
STARTCHAR 265b
ENCODING 9819
SWIDTH 962 0
DWIDTH 26 0
BBX 26 27 0 -1
BITMAP
00000000
02008000
4380e000
7300c000
6300c000
6300c400
630ffe00
6300c000
6300c000
7be0c000
6300cc00
630ffe00
63020c00
63020c00
63020c00
63031800
63011800
6301b000
6320e000
6320e000
6331b000
6bf31800
71e60c00
200c0700
00300200
00000000
00000000
ENDCHAR
STARTCHAR 265c
ENCODING 9820
SWIDTH 962 0
DWIDTH 26 0
BBX 26 27 0 -1
BITMAP
00000000
04010000
0701c000
06018000
46018000
46330000
7ffb0600
c633ff00
86220c00
06070c00
06050c00
06090c00
06010c00
0d811800
0d811800
0d809800
0980b000
1980b000
19806000
1188e000
31b1b000
21e31800
40c60c00
800c0700
00300200
00000000
00000000
ENDCHAR
STARTCHAR 265d
ENCODING 9821
SWIDTH 962 0
DWIDTH 26 0
BBX 26 27 0 -1
BITMAP
00000000
02010000
4381c000
73018000
63018000
63030000
63030600
6303ff00
63f20c00
7f070c00
63050c00
63090c00
63010c00
63011800
63011800
63109800
6310b000
6310b000
63106000
6318e000
67f9b000
79f31800
30060c00
000c0700
00300200
00000000
00000000
ENDCHAR
STARTCHAR 265e
ENCODING 9822
SWIDTH 962 0
DWIDTH 26 0
BBX 26 27 0 -1
BITMAP
00000000
08010000
0e01c000
0c018000
0e018000
19830000
10c30600
30e3ff00
20620c00
40070c00
bfc50c00
00090c00
00010c00
00c11800
7fe11800
00c09800
00c0b000
00c0b000
01806000
0180e000
0301b000
02031800
04060c00
080c0700
10300200
00000000
00000000
ENDCHAR
STARTCHAR 265f
ENCODING 9823
SWIDTH 962 0
DWIDTH 26 0
BBX 26 27 0 -1
BITMAP
00000000
20008000
3800e000
3060c000
3ff0c000
6000c600
4000ff00
80c0c000
7fe0c000
0000c000
0000cc00
018ffe00
7fc20c00
01820c00
03020c00
06031800
0c011800
1801b000
3080e000
6080e000
c081b000
c0c31800
ffc60c00
7f8c0700
00300200
00000000
00000000
ENDCHAR
STARTCHAR 2660
ENCODING 9824
SWIDTH 962 0
DWIDTH 26 0
BBX 26 27 0 -1
BITMAP
00000000
04008000
0700e000
0600c000
0660c000
fff0c600
0600ff00
0600c000
4640c000
7670c000
6660cc00
666ffe00
66620c00
66620c00
66620c00
ffe31800
46411800
0601b000
0600e000
0600e000
06219000
06c31800
07860c00
03180700
00600200
00000000
00000000
ENDCHAR
STARTCHAR 2661
ENCODING 9825
SWIDTH 962 0
DWIDTH 26 0
BBX 26 27 0 -1
BITMAP
00000000
0000c000
00006000
43042000
7f873000
63061000
63061800
630c0800
630c0c00
63190600
6311c700
7f218200
63418000
63018000
63030000
63030000
63060000
63062000
630c1000
7f0c0800
62180c00
4031fe00
007f0600
00380600
00000000
00000000
00000000
ENDCHAR
STARTCHAR 2662
ENCODING 9826
SWIDTH 962 0
DWIDTH 26 0
BBX 26 27 0 -1
BITMAP
00000000
00100000
201c0800
38180e00
30180c00
30180c00
7ffffc00
20180800
00180000
00180600
ffffff00
00000000
00000000
08003000
0ffff800
0c003000
0c003000
0c003000
0ffff000
0c003000
0c003000
0c003000
0ffff000
0c003000
08002000
00000000
00000000
ENDCHAR
STARTCHAR 2663
ENCODING 9827
SWIDTH 962 0
DWIDTH 26 0
BBX 26 27 0 -1
BITMAP
00000000
08000000
0e000000
0c000c00
1ffffe00
18618c00
30618c00
60c30c00
81860c00
030c0c00
0c181800
3033f000
00c06000
03000000
04006000
07fff000
06006000
06006000
06006000
07ffe000
06006000
06006000
06006000
07ffe000
04004000
00000000
00000000
ENDCHAR
STARTCHAR 2664
ENCODING 9828
SWIDTH 962 0
DWIDTH 26 0
BBX 26 27 0 -1
BITMAP
00000000
43000000
7f800c00
633ffe00
63030000
63030000
63030000
63030000
7f030000
63030000
63033000
633ff800
63063000
63063000
63063000
7f063000
63063000
63063000
63063000
630c3000
430c3000
430c3000
c30c3600
9f7fff00
86000000
00000000
00000000
ENDCHAR
STARTCHAR 2665
ENCODING 9829
SWIDTH 962 0
DWIDTH 26 0
BBX 26 27 0 -1
BITMAP
00000000
20040000
38070000
30060000
30660c00
3ff7fe00
30060000
30060200
30060200
30660300
3387ff00
3e03fe00
18100000
001c0000
00180000
00180600
ffffff00
00180000
01180000
0398c000
06183000
0c181c00
30180e00
c0180600
00100000
00000000
00000000
ENDCHAR
STARTCHAR 2666
ENCODING 9830
SWIDTH 962 0
DWIDTH 26 0
BBX 26 27 0 -1
BITMAP
00000000
10000400
1c018700
187fc600
18018600
18018600
ff018600
18018600
18218600
383f8600
3c310600
5a300600
5b600600
5a618600
98ffc600
98418600
18018600
18018600
18018600
18018600
18018600
18018600
18030600
187e0600
100c0400
00000000
00000000
ENDCHAR
STARTCHAR 2667
ENCODING 9831
SWIDTH 962 0
DWIDTH 26 0
BBX 26 27 0 -1
BITMAP
00000000
10000000
1c001c00
1821fe00
183f3000
18333000
ff333000
18333000
18333000
38333000
38333000
5c333000
5a333000
5b333000
9a333000
98333000
18331000
18331800
18631800
18630800
18430c00
18c30400
18830600
19020300
12000200
00000000
00000000
ENDCHAR
STARTCHAR 2668
ENCODING 9832
SWIDTH 962 0
DWIDTH 26 0
BBX 26 27 0 -1
BITMAP
00000000
02008000
0380e000
0300c200
ff00ff00
0300c000
0300c000
02108000
001c0000
00180000
00180000
00180600
ffffff00
00380000
007c0000
00db0000
01998000
0318c000
06186000
0c183000
18181c00
30180f00
c0180400
00180000
00100000
00000000
00000000
ENDCHAR
STARTCHAR 2669
ENCODING 9833
SWIDTH 962 0
DWIDTH 26 0
BBX 26 27 0 -1
BITMAP
00000000
10010000
1c01c000
18018000
18018600
18ffff00
1a018000
ff018000
18018000
18418600
387fff00
3c618600
5a618600
5b618600
5a618600
98618600
98618600
98618600
18618600
18618600
1861be00
18418c00
18018000
18018000
10010000
00000000
00000000
ENDCHAR
STARTCHAR 266a
ENCODING 9834
SWIDTH 962 0
DWIDTH 26 0
BBX 26 27 0 -1
BITMAP
00000000
10000000
1c102000
181c3800
18183000
18183000
18183000
ff183000
18183000
18183000
38183000
3c183000
5a103000
5b383000
9a343000
98346800
18326800
18626800
18634800
1862cc00
18c08400
18c18400
19810600
19020300
12040200
00000000
00000000
ENDCHAR
STARTCHAR 266b
ENCODING 9835
SWIDTH 962 0
DWIDTH 26 0
BBX 26 27 0 -1
BITMAP
00000000
00100000
001c0000
08180000
0e183000
0c1ff800
0c180000
0c180000
0c180000
0c180c00
7ffffe00
00000000
00100000
001c0000
00180600
ffffff00
00180000
02190000
0398c000
07186000
0e183800
18181c00
30180c00
40180000
00100000
00000000
00000000
ENDCHAR
STARTCHAR 266c
ENCODING 9836
SWIDTH 962 0
DWIDTH 26 0
BBX 26 27 0 -1
BITMAP
00000000
00040000
00070000
ffc60000
33060000
33060600
3307ff00
330cc600
330cc600
3308c400
3310c800
ffc0c000
3300c000
3300c000
3301a000
3301a000
3301a000
33033000
33031000
33061800
23060800
630c0c00
43180600
43300700
82400200
00000000
00000000
ENDCHAR
STARTCHAR 266d
ENCODING 9837
SWIDTH 962 0
DWIDTH 26 0
BBX 26 27 0 -1
BITMAP
00000000
20040000
38070000
30c60000
3fe60000
30060600
2007ff00
4086c600
5fc4c400
800cc800
0008c000
0190c000
7fc0c000
0180c000
0301a000
0601a000
0c01a000
18033000
30833000
60861000
60c61800
7fcc0c00
3f980e00
00300700
00c00200
00000000
00000000
ENDCHAR
STARTCHAR 266e
ENCODING 9838
SWIDTH 962 0
DWIDTH 26 0
BBX 26 27 0 -1
BITMAP
00000000
10010000
1c01c000
18018000
18018000
30630600
3ff3ff00
26626600
66466600
46846400
86086800
06006000
06006000
06006000
0d00d000
0d00d000
0c80d000
18c19800
18c18800
30630c00
30630c00
60660400
400c0600
80180700
00600200
00000000
00000000
ENDCHAR
STARTCHAR 266f
ENCODING 9839
SWIDTH 962 0
DWIDTH 26 0
BBX 26 27 0 -1
BITMAP
00000000
02020000
11038000
1d830000
18c30000
30c60600
2067ff00
4064c600
800cc600
0008c400
7fd0c800
1800c000
1800c000
1800c000
30c1a000
7fe1a000
20c1b000
00c31000
00c31000
00c61800
00c60800
00cc0c00
01980600
3f300700
06400200
00000000
00000000
ENDCHAR
STARTCHAR 2670
ENCODING 9840
SWIDTH 962 0
DWIDTH 26 0
BBX 26 27 0 -1
BITMAP
00000000
04040000
07070000
06060000
0d060000
0c860600
18c7ff00
1866c600
3064c400
600cc800
4008c000
9110c000
1dc0c000
1980c000
1981a000
1981a000
1981b000
19831000
19831000
31861800
31860800
218c0c00
61980600
41b00700
81400200
00000000
00000000
ENDCHAR
STARTCHAR 2671
ENCODING 9841
SWIDTH 962 0
DWIDTH 26 0
BBX 26 27 0 -1
BITMAP
00000000
08020000
0e038000
0c030000
0c030000
0c030000
0f830600
0c03ff00
0c06c600
0c04c600
0cccc400
ffe8c800
00d0c000
00c0c000
00c0c000
00c1a000
06c1a000
38c1b000
e0c31000
40c31800
01c60800
018c0c00
03980600
3f300700
06400200
00000000
00000000
ENDCHAR
STARTCHAR 2672
ENCODING 9842
SWIDTH 962 0
DWIDTH 26 0
BBX 26 27 0 -1
BITMAP
00000000
00004000
08007000
0e006000
0c006000
0c006000
0c006000
0c006000
0c006000
0c846000
0ce76400
7cc67e00
0cc66000
0cc66000
0cc66000
0cc66000
0cc66000
0cc66000
0cc66000
0df66000
0f066000
f8066000
60066600
003fff00
00000000
00000000
00000000
ENDCHAR
STARTCHAR 2673
ENCODING 9843
SWIDTH 962 0
DWIDTH 26 0
BBX 26 27 0 -1
BITMAP
00000000
00020000
00038000
01830000
ffc30000
30031800
303ffc00
33031800
3f831800
33031800
33031800
63031800
63031800
5b031a00
8e7fff00
06060000
0c068000
0c0c6000
180c3000
18181800
30300c00
20600600
40c00300
81800200
06000000
00000000
00000000
ENDCHAR
STARTCHAR 2674
ENCODING 9844
SWIDTH 962 0
DWIDTH 26 0
BBX 26 27 0 -1
BITMAP
00000000
00010000
0001c000
01818000
ffc18000
30018600
3001ff00
33018000
3f818000
33018000
33019800
633ffc00
73081800
5f081800
8e0c1800
06043000
0c063000
0c036000
1801c000
1803c000
30066000
200c3000
40181c00
80600f00
01800400
00000000
00000000
ENDCHAR
STARTCHAR 2675
ENCODING 9845
SWIDTH 962 0
DWIDTH 26 0
BBX 26 27 0 -1
BITMAP
00000000
00008000
00c0e000
ffe0c000
3000c000
3000c000
3180c000
3fc0c000
3180c000
3190c400
219cfe00
3198c000
6d98c000
4798c000
8318c000
8318c000
0618c000
0618c000
0418c000
0c18c000
0818c000
1036c000
2023ff00
4040fe00
80800000
00000000
00000000
ENDCHAR
STARTCHAR 2676
ENCODING 9846
SWIDTH 962 0
DWIDTH 26 0
BBX 26 27 0 -1
BITMAP
00000000
00001c00
00107e00
019fc000
ffd80000
30180000
30180000
33180000
3f980600
331fff00
33183000
63183000
63183000
5b183000
8e183000
06183000
0c183000
0c303000
18303000
18303000
30203000
20603000
40403000
80803000
00002000
00000000
00000000
ENDCHAR
STARTCHAR 2677
ENCODING 9847
SWIDTH 962 0
DWIDTH 26 0
BBX 26 27 0 -1
BITMAP
00000000
01000000
ff800000
30200400
30380700
30302600
33303600
3fb02600
33342600
33322600
63332600
63314600
5330c600
9b30c600
0a31a600
06313600
06321600
0c341e00
0c381600
18300600
18300600
30300600
207ffe00
40200600
80000400
00000000
00000000
ENDCHAR
STARTCHAR 2678
ENCODING 9848
SWIDTH 962 0
DWIDTH 26 0
BBX 26 27 0 -1
BITMAP
00000000
08000000
0e041800
0c07fc00
0c061800
0c061800
4cc61800
7fe61800
ccc41800
cc8c1e00
0c080f00
0c100000
0c27fc00
0c020c00
1b020c00
1b021800
1b011800
1b013000
1b00e000
3310e000
3361b000
23c31800
41860c00
80180700
00600200
00000000
00000000
ENDCHAR
STARTCHAR 2679
ENCODING 9849
SWIDTH 962 0
DWIDTH 26 0
BBX 26 27 0 -1
BITMAP
00000000
08000000
0e003000
0c00f800
0c0f8000
0c818000
ffc18000
0c018800
0c1ffc00
0c018000
0c818000
ffc18600
21bfff00
21818000
21818000
23018200
33018200
16018300
1c01ff00
0c00fe00
1a000000
31800000
20ffff00
403ffc00
80000000
00000000
00000000
ENDCHAR
STARTCHAR 267a
ENCODING 9850
SWIDTH 962 0
DWIDTH 26 0
BBX 26 27 0 -1
BITMAP
00000000
01000000
41c01800
7180fc00
618f8000
61818000
61818000
61818000
61818800
7f9ffc00
61018000
60018000
60018000
61818000
7fc18c00
61bffe00
61818000
61818000
61818200
61818200
41818200
41818300
c181ff00
8180fe00
81000000
00000000
00000000
ENDCHAR
STARTCHAR 267b
ENCODING 9851
SWIDTH 962 0
DWIDTH 26 0
BBX 26 27 0 -1
BITMAP
00000000
00400600
207fff00
18600600
0c600600
08600600
007ffe00
02600400
82620000
46638000
64630000
4c633000
0c6ff800
18633000
18633000
30633000
30633200
f0633200
60c33200
60c63200
60c63200
318c3300
31083f00
32101e00
34200000
00000000
00000000
ENDCHAR
STARTCHAR 267c
ENCODING 9852
SWIDTH 962 0
DWIDTH 26 0
BBX 26 27 0 -1
BITMAP
00000000
00200000
20380000
18300000
0c300c00
083ffe00
01300000
01300000
81300000
63300000
323ffe00
261fff00
04000000
04008000
0c00e000
0800c000
1800cc00
703ffe00
3000c000
1800c000
1800c000
1800c000
1800c600
187fff00
00000000
00000000
00000000
ENDCHAR
STARTCHAR 267d
ENCODING 9853
SWIDTH 962 0
DWIDTH 26 0
BBX 26 27 0 -1
BITMAP
00000000
00020000
20038000
18030000
0c030c00
08fffe00
00030000
82030000
42232000
663b3800
44323000
0c303000
0c303000
18303600
1bffff00
30303000
30303000
e0303000
60303000
60303000
30203000
30603000
30403000
30803000
31002000
00000000
00000000
ENDCHAR
STARTCHAR 267e
ENCODING 9854
SWIDTH 962 0
DWIDTH 26 0
BBX 26 27 0 -1
BITMAP
00000000
00208000
4038e000
3030c000
1830c000
1030c000
01fec000
8030c000
6030c000
4470c000
0478c000
08b4c000
08b6c000
19b4c000
1130c000
3230c000
3230c000
e030c200
6030c200
6030c200
6030c200
3030c300
3030ff00
30307e00
30200000
00000000
00000000
ENDCHAR
STARTCHAR 2721
ENCODING 10017
SWIDTH 962 0
DWIDTH 26 0
BBX 26 27 0 -1
BITMAP
00000000
00000000
20800600
18ffff00
0cc00600
08c00600
00c00600
82c06600
62dff600
32c86600
24c86600
04cc6600
0cc4c600
08c6c600
18c38600
18c38600
30c6c600
f0cc6600
30d83e00
30e01600
18c00600
18c00600
18fffe00
18c00600
00800400
00000000
00000000
ENDCHAR
STARTCHAR 2722
ENCODING 10018
SWIDTH 962 0
DWIDTH 26 0
BBX 26 27 0 -1
BITMAP
00000000
00020000
20038000
18030000
0c030c00
087ffe00
00060000
00060000
820c1000
420c0800
64180c00
44303e00
0cffe600
086c6000
180c6000
180c6000
300c6000
f00c6000
60186200
60186200
60306200
30606300
30c07f00
31803e00
36000000
00000000
00000000
ENDCHAR
STARTCHAR 2723
ENCODING 10019
SWIDTH 962 0
DWIDTH 26 0
BBX 26 27 0 -1
BITMAP
00000000
00003800
2001fc00
183f8000
0c018000
08018000
00018000
82018000
42018600
62ffff00
44018000
04038000
0c07c000
0805a000
180db000
18099000
30199800
f0318c00
60618700
60c18200
61018000
30018000
30018000
30018000
30010000
00000000
00000000
ENDCHAR
STARTCHAR 2724
ENCODING 10020
SWIDTH 962 0
DWIDTH 26 0
BBX 26 27 0 -1
BITMAP
00000000
00400c00
207ffe00
18600c00
0c600c00
08600c00
00600c00
827ffc00
42600800
62600000
44643000
0467f800
0c663000
08663000
18663000
10663000
30663000
e0663000
30c63200
30c63200
30cc3200
188c3300
18983f00
19101e00
19200000
00000000
00000000
ENDCHAR
STARTCHAR 2725
ENCODING 10021
SWIDTH 962 0
DWIDTH 26 0
BBX 26 27 0 -1
BITMAP
00000000
00020000
20038000
18030000
0c030000
08431800
007ffc00
02631800
82631800
44631800
64631800
4c7ff800
08631800
18631800
10631800
30631800
63ffff00
e0601800
60601800
60601800
30601800
30601800
30601800
3060f800
00403000
00000000
00000000
ENDCHAR
STARTCHAR 2726
ENCODING 10022
SWIDTH 962 0
DWIDTH 26 0
BBX 26 27 0 -1
BITMAP
00000000
00100000
201c0000
18180000
0c180000
08180600
001fff00
02318600
82218600
42618400
64418800
44818000
0c118000
081da000
18199000
10199800
30198c00
e0318600
60318600
60218300
30618300
30418000
30818000
300f8000
00030000
00000000
00000000
ENDCHAR
STARTCHAR 2727
ENCODING 10023
SWIDTH 962 0
DWIDTH 26 0
BBX 26 27 0 -1
BITMAP
00000000
10060000
1c030000
18010000
18018000
18218600
993fff00
99b0c600
db30c600
da30c600
5c30e600
5831a600
58313600
18333600
18361e00
18341e00
18381600
14300600
32300600
33300600
21b00600
61300600
40300600
80307e00
00200c00
00000000
00000000
ENDCHAR
STARTCHAR 2728
ENCODING 10024
SWIDTH 962 0
DWIDTH 26 0
BBX 26 27 0 -1
BITMAP
00000000
10100000
1c1c0000
18180000
18180000
18300600
993fff00
99a66600
db666600
da466600
5c8c6600
580c6600
580c6600
1818c600
1818c600
1830c600
18318600
14618600
32c30600
33060600
218c0c00
61180c00
40601c00
8183f800
00003000
00000000
00000000
ENDCHAR
STARTCHAR 2729
ENCODING 10025
SWIDTH 962 0
DWIDTH 26 0
BBX 26 27 0 -1
BITMAP
00000000
02008000
0380e000
0300c000
0300c000
0300c600
ffffff00
0300c000
0300c000
0300c000
03ffc000
03008000
02100000
001c0000
20181000
18181c00
0c183000
06346000
04368000
00630000
00c18000
0180c000
07007000
1c003f00
e0001800
00000000
00000000
ENDCHAR
STARTCHAR 272a
ENCODING 10026
SWIDTH 962 0
DWIDTH 26 0
BBX 26 27 0 -1
BITMAP
00000000
00100000
001c0800
01981c00
7fdc3000
019ac000
01998000
0318c000
06186000
0c183800
30f81f00
c0300c00
00000000
00100000
101c1000
08181800
0c183000
06186000
04368000
00618000
00c06000
01803800
06001c00
18000e00
e0000600
00000000
00000000
ENDCHAR
STARTCHAR 272b
ENCODING 10027
SWIDTH 962 0
DWIDTH 26 0
BBX 26 27 0 -1
BITMAP
00000000
00100000
101c1000
08181c00
0c183000
04182000
06364000
00618000
00c07000
01801c00
06000e00
1a100600
e39c0000
07180000
06180000
0c180c00
1e1ffe00
36180000
66180000
86180200
06180200
06180300
061fff00
060ffe00
04000000
00000000
00000000
ENDCHAR
STARTCHAR 272c
ENCODING 10028
SWIDTH 962 0
DWIDTH 26 0
BBX 26 27 0 -1
BITMAP
00000000
0000f000
0007f800
007e0000
3fc02000
00003800
10303000
0c186000
0618c000
03108000
02010000
00006000
0ffff000
00180000
00180000
00180000
00180c00
7ffffe00
00180000
00180000
00180000
00180000
00183000
1ffff800
00000000
00000000
00000000
ENDCHAR
STARTCHAR 272d
ENCODING 10029
SWIDTH 962 0
DWIDTH 26 0
BBX 26 27 0 -1
BITMAP
00000000
02010000
4381c000
73018000
63018000
63018000
63018400
630d8700
637d8600
7f0d8c00
430dc800
030db000
030da000
430db000
7f199000
63199800
63198800
63318c00
63218600
63418700
43818200
43018000
83018000
831f8000
02030000
00000000
00000000
ENDCHAR
STARTCHAR 272e
ENCODING 10030
SWIDTH 962 0
DWIDTH 26 0
BBX 26 27 0 -1
BITMAP
00000000
20083000
390ff800
31cc3000
318c3000
318c3000
318c3000
31883000
31983e00
3f901f00
31200000
30401800
301ffc00
31841800
3fc41800
31841800
31823000
31823000
31816000
3180e000
3181b000
31831800
61860e00
41980700
81600200
00000000
00000000
ENDCHAR
STARTCHAR 272f
ENCODING 10031
SWIDTH 962 0
DWIDTH 26 0
BBX 26 27 0 -1
BITMAP
00000000
04002000
07003800
46003000
76083000
66063000
66033000
7fc33000
46003000
46003000
86103000
060c3000
06063000
07c63000
fe003000
66003000
06003600
063fff00
06003000
06003000
06003000
06003000
06003000
06003000
04002000
00000000
00000000
ENDCHAR
STARTCHAR 2730
ENCODING 10032
SWIDTH 962 0
DWIDTH 26 0
BBX 26 27 0 -1
BITMAP
00000000
08010000
0e01c000
0c018000
6c018000
6c218600
6c3fff00
7f218600
4c618400
4c618800
8c018000
0c038000
0c03e000
0f06c000
fc06c000
cc06c000
0c06c000
0c0cc200
0c0cc200
0c18c200
0c18c200
0c30c300
0c60ff00
0c807e00
09000000
00000000
00000000
ENDCHAR
STARTCHAR 2731
ENCODING 10033
SWIDTH 962 0
DWIDTH 26 0
BBX 26 27 0 -1
BITMAP
00000000
08020000
0e039000
0c030c00
6c030600
6c030400
6c030000
7f830600
4c7fff00
4c030000
8c030000
0c030400
0c030700
0f830600
fc030c00
6c019800
0c01b000
0c00e000
0c00c200
0c01e200
0c033200
0c061a00
0c180e00
0c600700
09800300
00000000
00000000
ENDCHAR
STARTCHAR 2732
ENCODING 10034
SWIDTH 962 0
DWIDTH 26 0
BBX 26 27 0 -1
BITMAP
00000000
08018000
0e00c000
0c084000
6c0e6000
6c0c2000
6c0c3000
7f981800
4c181c00
4c300f00
8c600400
0c801800
0c3ffc00
0f861800
fc061800
cc061800
0c061800
0c061800
0c061800
0c0c1800
0c0c1800
0c181800
0c303800
0c63f000
08806000
00000000
00000000
ENDCHAR
STARTCHAR 2733
ENCODING 10035
SWIDTH 962 0
DWIDTH 26 0
BBX 26 27 0 -1
BITMAP
00000000
04008000
0700e000
0600c000
6600c000
6600c600
663fff00
7fc0c000
4600c000
4610c600
861fff00
0618c600
0658c600
0f98c600
fe18c600
c618c600
0618c600
0618c600
0618c600
0618de00
0610cc00
0600c000
0600c000
0600c000
04008000
00000000
00000000
ENDCHAR
STARTCHAR 2734
ENCODING 10036
SWIDTH 962 0
DWIDTH 26 0
BBX 26 27 0 -1
BITMAP
00000000
04010000
0701c000
06018000
06819000
06418c00
06618600
06418400
06018000
ffefff00
06018000
06018000
06018000
06018000
0d034000
0c834000
0cc32000
0cc32000
18663000
18661000
304c1800
300c0c00
60180e00
40100700
80200200
00000000
00000000
ENDCHAR
STARTCHAR 2735
ENCODING 10037
SWIDTH 962 0
DWIDTH 26 0
BBX 26 27 0 -1
BITMAP
00000000
02001800
83a0fc00
633fc000
3630c000
1c30c000
1830c000
1c30c000
3430c000
6630c600
463fff00
8e30c000
0e30c000
1e30c000
1630c000
36306000
26306000
46306200
86303200
06339200
063e1a00
06180e00
0e000700
fc3ff300
18000000
00000000
00000000
ENDCHAR
STARTCHAR 2736
ENCODING 10038
SWIDTH 962 0
DWIDTH 26 0
BBX 26 27 0 -1
BITMAP
00000000
04004000
87207000
66386000
3c306000
1c306000
18306200
1c21ff00
34646600
66476600
46c66600
8e746600
0e1c6600
1e086600
16186600
36106600
26346600
46626600
86c26600
06fec600
0662c600
06018600
0e010600
fc027c00
18041800
00000000
00000000
ENDCHAR
STARTCHAR 2737
ENCODING 10039
SWIDTH 962 0
DWIDTH 26 0
BBX 26 27 0 -1
BITMAP
00000000
04008000
0700e000
0600c800
0620c400
fff0c600
0600c400
0600c000
0600c000
4660c600
7fefff00
6660c000
6660c000
6660c000
6661a000
6661a000
6661b000
66631000
66631800
66661800
66e60c00
464c0c00
06180600
06300700
04400200
00000000
00000000
ENDCHAR
STARTCHAR 2738
ENCODING 10040
SWIDTH 962 0
DWIDTH 26 0
BBX 26 27 0 -1
BITMAP
00000000
02010000
8381c000
63018c00
36018600
1c018400
18018000
1c018600
34ffff00
66018000
46018000
8e119000
0e1d9c00
1e199800
16199800
36199800
26199800
46199800
86119800
06319e00
06218f00
06418000
0e818000
fc018000
18010000
00000000
00000000
ENDCHAR
STARTCHAR 2739
ENCODING 10041
SWIDTH 962 0
DWIDTH 26 0
BBX 26 27 0 -1
BITMAP
00000000
04400000
87700000
46600000
6c600000
38600000
38664600
3bff7f00
68666600
4c666600
8c666600
1c666600
1c666600
3c666600
2c666600
6c666600
4c666600
8c666600
0c666600
0cc66600
0cc67e00
0c866400
1d8c4000
f97c0000
32180000
00000000
00000000
ENDCHAR
STARTCHAR 273a
ENCODING 10042
SWIDTH 962 0
DWIDTH 26 0
BBX 26 27 0 -1
BITMAP
00000000
04010000
8701c000
66018000
3c018000
1c018000
18218c00
1c3ffe00
34318c00
66318c00
46318c00
8e318c00
0e318c00
1e318c00
16318c00
36ffff00
26030000
46034000
86063000
06061800
060c0c00
06180600
0e300300
fc600300
18800000
00000000
00000000
ENDCHAR
STARTCHAR 273b
ENCODING 10043
SWIDTH 962 0
DWIDTH 26 0
BBX 26 27 0 -1
BITMAP
00000000
00020000
00038000
02031000
ff030c00
18030600
18030400
18030000
18030600
18ffff00
1a030000
ff030000
18038000
18068000
1806c000
18064000
180c6000
180c6000
18183000
1f183000
f0301800
60601c00
00c00e00
01800700
02000200
00000000
00000000
ENDCHAR
STARTCHAR 273c
ENCODING 10044
SWIDTH 962 0
DWIDTH 26 0
BBX 26 27 0 -1
BITMAP
00000000
00040000
00070000
01060c00
ff87fe00
18060c00
18060c00
180c0c00
18080c00
18180c00
1911f800
ffa03000
18000000
183ffc00
18081800
18081800
18043000
18063000
1f836000
f001c000
60036000
00063000
000c1c00
00300f00
01c00400
00000000
00000000
ENDCHAR
STARTCHAR 273d
ENCODING 10045
SWIDTH 962 0
DWIDTH 26 0
BBX 26 27 0 -1
BITMAP
00000000
0038c000
00306000
00300600
ffffff00
00300000
00180200
000e0200
00038300
0000ff00
00001e00
00000000
00000600
ffffff00
03000000
03006000
03fff000
03006000
03306200
06186200
06106200
0c006300
0cfc7f00
7f803e00
38000000
00000000
00000000
ENDCHAR
STARTCHAR 273e
ENCODING 10046
SWIDTH 962 0
DWIDTH 26 0
BBX 26 27 0 -1
BITMAP
00000000
00000000
21000c00
39cffe00
3180c000
3180c000
3180c000
31a0c000
fff0c000
3180c000
3180c000
3180c600
319fff00
3180c000
3f80c000
3180c000
3180c000
3180c000
3180c000
3180c000
3180c000
3f80c000
3180c000
2100c000
00008000
00000000
00000000
ENDCHAR
STARTCHAR 273f
ENCODING 10047
SWIDTH 962 0
DWIDTH 26 0
BBX 26 27 0 -1
BITMAP
00000000
00000000
00000c00
819ffe00
ffc0c000
c980c000
c980c000
c980c000
c980c000
c980c000
c980c000
c980c600
ffbfff00
c980c000
c980c000
c980c000
c980c000
c980c000
c980c000
c980c000
ff80c000
c100c000
8000c000
0000c000
00008000
00000000
00000000
ENDCHAR
STARTCHAR 2740
ENCODING 10048
SWIDTH 962 0
DWIDTH 26 0
BBX 26 27 0 -1
BITMAP
00000000
08080000
0e0e0000
0c0c0000
8c8c0000
ffcc0600
cc8fff00
cc8c0600
cc980600
cc980600
ff900600
cca40600
cc830600
cc818600
cc80c600
ff80c600
cc800600
8c000600
0c000600
0c000600
0c000e00
0c000c00
0c001c00
0c03f800
08003000
00000000
00000000
ENDCHAR
STARTCHAR 2741
ENCODING 10049
SWIDTH 962 0
DWIDTH 26 0
BBX 26 27 0 -1
BITMAP
00000000
00100000
001c0000
08183000
0ffff800
0c183000
0c183000
0c183000
0ffff000
0c183000
0c183000
0c183000
0ffff000
09010000
01c1c000
01818000
01818600
ffffff00
01818000
03018000
03018000
06018000
0c018000
18018000
60010000
00000000
00000000
ENDCHAR
STARTCHAR 2742
ENCODING 10050
SWIDTH 962 0
DWIDTH 26 0
BBX 26 27 0 -1
BITMAP
00000000
00000000
00000000
40800000
7fc84200
648e7300
648c6300
6498c600
6498c600
64908c00
64b18800
64a11800
7fe21000
64c62000
64a31800
64b18800
64988c00
6498c600
648c6600
648c6300
7f8c6300
60884200
40000000
00000000
00000000
00000000
00000000
ENDCHAR
STARTCHAR 2743
ENCODING 10051
SWIDTH 962 0
DWIDTH 26 0
BBX 26 27 0 -1
BITMAP
00000000
000c0000
00060000
08040600
0fffff00
8c000000
4c000000
6c000c00
4dfffe00
0c060000
0c060000
0c060000
0c060000
1c070000
6c06c000
cc066000
4c063000
0c061800
0c061800
18060000
18060000
30060000
20060000
40060000
80040000
00000000
00000000
ENDCHAR
STARTCHAR 2744
ENCODING 10052
SWIDTH 962 0
DWIDTH 26 0
BBX 26 27 0 -1
BITMAP
00000000
000c0000
00060000
08040600
0fffff00
0c000000
8c00e000
4c07f000
6cfe0000
3c060000
2c060000
0c060000
0c060000
0c060c00
0dfffe00
1c060000
6c060000
cc060000
8c060400
0c060400
18060400
10060600
3007fe00
2003fc00
40000000
00000000
00000000
ENDCHAR
STARTCHAR 2745
ENCODING 10053
SWIDTH 962 0
DWIDTH 26 0
BBX 26 27 0 -1
BITMAP
00000000
000c0000
00060000
08040600
0fffff00
0c000000
8c100000
4c1c0000
6c180000
4c180000
0c186000
0dfff000
0c186000
0c186000
1c186000
6c186000
cc346000
0c366200
0c336200
18636200
18606200
10c06300
31807f00
23003e00
44000000
00000000
00000000
ENDCHAR
STARTCHAR 2746
ENCODING 10054
SWIDTH 962 0
DWIDTH 26 0
BBX 26 27 0 -1
BITMAP
00000000
04010000
0701c000
06018000
46618000
7ff18000
66618000
66419800
669ffc00
66019800
66c19800
7fe19800
60c19800
60c59800
70c31800
6d819800
6581d800
63035a00
63831a00
46c21a00
44661a00
4c4c1b00
98081f00
90100e00
20200000
00000000
00000000
ENDCHAR
STARTCHAR 2747
ENCODING 10055
SWIDTH 962 0
DWIDTH 26 0
BBX 26 27 0 -1
BITMAP
00000000
00200000
00180000
000c0000
00080600
ffffff00
06000000
06000000
06000000
06000000
06000000
07fff800
03fffc00
00000000
00000000
08003000
0ffff800
0c663000
0c663000
0c663000
0c663000
0c663000
0c663600
ffffff00
00000000
00000000
00000000
ENDCHAR
STARTCHAR 2748
ENCODING 10056
SWIDTH 962 0
DWIDTH 26 0
BBX 26 27 0 -1
BITMAP
00000000
00006000
0ffff000
00180000
00180000
00180000
00180000
00180000
00180c00
7ffffe00
00180000
00180000
00180000
00180000
00180000
00100000
08003000
0ffff800
0c663000
0c663000
0c663000
0c663000
0c663600
ffffff00
00000000
00000000
00000000
ENDCHAR
STARTCHAR 2749
ENCODING 10057
SWIDTH 962 0
DWIDTH 26 0
BBX 26 27 0 -1
BITMAP
00000000
00000000
00001800
1ffffc00
00180000
00180000
00180000
00180000
00180000
00180000
00180c00
7ffffe00
00000000
00000000
00000000
08003000
0ffff800
0c663000
0c663000
0c663000
0c663000
0c663000
0c663600
ffffff00
00000000
00000000
00000000
ENDCHAR
STARTCHAR 274a
ENCODING 10058
SWIDTH 962 0
DWIDTH 26 0
BBX 26 27 0 -1
BITMAP
00000000
00000000
43000600
7fbfff00
63018600
63018600
63018600
63018600
63218600
7f198600
630d8600
63078600
63038600
63018600
63018600
7f018600
63030600
63030600
63060600
63060600
630c0600
7f180600
62300e00
4061fc00
00801800
00000000
00000000
ENDCHAR
STARTCHAR 274b
ENCODING 10059
SWIDTH 962 0
DWIDTH 26 0
BBX 26 27 0 -1
BITMAP
00000000
00000000
43103000
7f9ff800
63183000
63183000
63183000
63183000
63183000
7f183000
631c3000
631a3000
631b3000
6319b000
63193000
7f183000
63183000
63183200
63183200
63183200
63303200
7f303300
62603f00
40c01e00
01000000
00000000
00000000
ENDCHAR
STARTCHAR 274c
ENCODING 10060
SWIDTH 962 0
DWIDTH 26 0
BBX 26 27 0 -1
BITMAP
00000000
00080000
430e0000
7f8c0000
630c0000
630c0000
630c3000
637ff800
630c3000
7f0c3000
630c3000
630c3000
630e3000
630d3000
630db000
7f0db000
630c3000
630c3200
630c3200
63183200
63183200
7f303300
62203f00
40401e00
00800000
00000000
00000000
ENDCHAR
ENDFONT
